<svg id="Calque_1" data-name="Calque 1" xmlns="http://www.w3.org/2000/svg" viewBox="0 0 32 32"><defs><style>.cls-1{fill:#fff;}.cls-2{fill:#c69433;}</style></defs><rect class="cls-1" width="32" height="32" rx="16"/><path class="cls-2" d="M10.27,23.87a3,3,0,1,1,3-3A3,3,0,0,1,10.27,23.87Zm0-5.1A2.13,2.13,0,1,0,12.4,20.9,2.13,2.13,0,0,0,10.27,18.77Z"/><path class="cls-2" d="M18,21.81H12.77a.41.41,0,0,1-.32-.15.45.45,0,0,1-.09-.35,1.9,1.9,0,0,0-.2-1.34,2.22,2.22,0,0,0-1.92-1.2,2.13,2.13,0,0,0-2.1,2.13,2,2,0,0,0,0,.41.45.45,0,0,1-.09.35.41.41,0,0,1-.32.15H5.12a.71.71,0,0,1-.72-.71V18.16A2.46,2.46,0,0,1,6.86,15.7H8.17l.64-1.1a4.76,4.76,0,0,1,4.1-2.36h3.44a5.51,5.51,0,0,1,2.09.4.41.41,0,0,1,.24.54.42.42,0,0,1-.55.24,4.9,4.9,0,0,0-1.78-.34H12.91A3.91,3.91,0,0,0,9.54,15l-.77,1.31a.41.41,0,0,1-.36.21H6.86a1.62,1.62,0,0,0-1.61,1.62V21H7.3V20.9a3,3,0,0,1,2.93-3h0a3,3,0,0,1,2.63,1.65,2.8,2.8,0,0,1,.35,1.4H18a.42.42,0,0,1,0,.84Z"/><path class="cls-2" d="M19.82,16.58l-11.41,0A.42.42,0,0,1,8,16.12a.42.42,0,0,1,.42-.42l11.41,0a.43.43,0,0,1,0,.85Z"/><path class="cls-2" d="M15.77,21.81a.43.43,0,0,1-.42-.41l-.13-5.27V12.66a.42.42,0,1,1,.84,0v3.46l.13,5.26a.41.41,0,0,1-.41.43Z"/><path class="cls-2" d="M26.6,22H20a.42.42,0,0,1-.42-.43V18.66a2.07,2.07,0,0,1,1.15-1.87l.53-.27a.57.57,0,0,0,0-1l-.53-.27a2.07,2.07,0,0,1-1.15-1.87V10.39A.42.42,0,0,1,20,10H26.6a.42.42,0,0,1,.42.43v2.95a2.08,2.08,0,0,1-1.16,1.87l-.53.27a.58.58,0,0,0,0,1l.53.27A2.08,2.08,0,0,1,27,18.66v2.95A.42.42,0,0,1,26.6,22Zm-6.15-.85h5.73V18.66a1.24,1.24,0,0,0-.7-1.12L25,17.28a1.42,1.42,0,0,1,0-2.56l.52-.26a1.24,1.24,0,0,0,.7-1.12V10.81H20.45v2.53a1.23,1.23,0,0,0,.69,1.12l.53.26a1.43,1.43,0,0,1,0,2.56l-.53.26a1.23,1.23,0,0,0-.69,1.12Z"/><path class="cls-2" d="M26.84,10.81H19.78a.76.76,0,0,1-.75-.76V8.88a.76.76,0,0,1,.75-.75h7.06a.76.76,0,0,1,.76.75v1.17A.76.76,0,0,1,26.84,10.81Zm-7-.85h6.88V9H19.87Z"/><path class="cls-2" d="M26.84,23.87H19.78a.76.76,0,0,1-.75-.75V22a.76.76,0,0,1,.75-.76h7.06a.76.76,0,0,1,.76.76v1.17A.76.76,0,0,1,26.84,23.87Zm-7-.84h6.88V22H19.87Z"/><path class="cls-2" d="M22.79,13.09H20a.42.42,0,0,1,0-.84h2.76a.42.42,0,0,1,0,.84Z"/><path class="cls-2" d="M26.6,13.09H24.28a.42.42,0,1,1,0-.84H26.6a.42.42,0,1,1,0,.84Z"/><path class="cls-2" d="M21.19,19.75H20a.43.43,0,0,1,0-.85h1.16a.43.43,0,0,1,0,.85Z"/><path class="cls-2" d="M26.6,19.75h-4a.43.43,0,0,1,0-.85h4a.43.43,0,0,1,0,.85Z"/><path class="cls-2" d="M25.44,23.87H4.82a.42.42,0,0,1,0-.84H25.44a.42.42,0,0,1,0,.84Z"/></svg>