<svg id="Calque_1" data-name="Calque 1" xmlns="http://www.w3.org/2000/svg" viewBox="0 0 32 32"><defs><style>.cls-1{fill:#c69433;}</style></defs><path class="cls-1" d="M23.06,24.37a2.83,2.83,0,1,1,2.82-2.82A2.83,2.83,0,0,1,23.06,24.37Zm0-4.85a2,2,0,1,0,2,2A2,2,0,0,0,23.06,19.52Z"/><path class="cls-1" d="M9.06,24.37a2.83,2.83,0,1,1,2.82-2.82A2.83,2.83,0,0,1,9.06,24.37Zm0-4.85a2,2,0,1,0,2,2A2,2,0,0,0,9.06,19.52Z"/><path class="cls-1" d="M14.7,16.82A5.8,5.8,0,1,1,20.5,11,5.8,5.8,0,0,1,14.7,16.82ZM14.7,6a5,5,0,1,0,5,5A5,5,0,0,0,14.7,6Z"/><path class="cls-1" d="M29,22H25.48a.4.4,0,0,1-.4-.4,2,2,0,1,0-4,0,.4.4,0,0,1-.4.4H11.48a.4.4,0,0,1-.4-.4,2,2,0,1,0-4,0,.4.4,0,0,1-.4.4h-3a.39.39,0,0,1-.29-.13.4.4,0,0,1-.11-.31c.28-3.34,2-7.58,6.12-9.49a.4.4,0,0,1,.34,0,.42.42,0,0,1,.21.26,5,5,0,0,0,9.62.18.42.42,0,0,1,.22-.25.38.38,0,0,1,.33,0,14.26,14.26,0,0,1,3.19,1.95A7,7,0,0,0,26,15.57a4.31,4.31,0,0,1,3.33,4.22v1.76A.4.4,0,0,1,29,22Zm-3.09-.8h2.69V19.79a3.54,3.54,0,0,0-2.72-3.45,7.75,7.75,0,0,1-3.11-1.56,13.7,13.7,0,0,0-2.61-1.66A5.8,5.8,0,0,1,9.24,13,10.66,10.66,0,0,0,4,21.15H6.26a2.83,2.83,0,0,1,5.6,0h8.4a2.83,2.83,0,0,1,5.6,0Z"/><path class="cls-1" d="M20.1,18.36H4.45a.4.4,0,0,1,0-.8H20.1a.4.4,0,0,1,0,.8Z"/><path class="cls-1" d="M14.73,13.83a3,3,0,1,1,1.84-5.39.29.29,0,0,1-.35.46,2.43,2.43,0,1,0,0,3.83.29.29,0,1,1,.35.45A3,3,0,0,1,14.73,13.83Z"/><path class="cls-1" d="M14.73,13.94a3.12,3.12,0,0,1,0-6.24,3.06,3.06,0,0,1,1.91.65.4.4,0,0,1-.49.64,2.28,2.28,0,0,0-1.42-.48,2.32,2.32,0,0,0,0,4.63,2.35,2.35,0,0,0,1.44-.5.4.4,0,1,1,.49.63A3.06,3.06,0,0,1,14.73,13.94Zm0-6a2.89,2.89,0,0,0,0,5.78,2.82,2.82,0,0,0,1.79-.62.17.17,0,1,0-.21-.27,2.58,2.58,0,0,1-1.58.54,2.54,2.54,0,0,1,0-5.08,2.47,2.47,0,0,1,1.55.53.19.19,0,0,0,.25,0,.18.18,0,0,0,0-.25A2.89,2.89,0,0,0,14.73,7.93Z"/><path class="cls-1" d="M14.43,10h-3a.29.29,0,0,1,0-.58h3a.29.29,0,0,1,0,.58Z"/><path class="cls-1" d="M14.43,10.09h-3a.4.4,0,0,1,0-.8h3a.4.4,0,0,1,0,.8Zm-3-.57a.18.18,0,0,0-.17.17.18.18,0,0,0,.17.18h3a.18.18,0,0,0,.18-.18.18.18,0,0,0-.18-.17Z"/><path class="cls-1" d="M14.43,12.24h-3a.29.29,0,0,1,0-.58h3a.29.29,0,0,1,0,.58Z"/><path class="cls-1" d="M14.43,12.35h-3a.4.4,0,0,1,0-.8h3a.4.4,0,1,1,0,.8Zm-3-.58a.18.18,0,0,0-.17.18.17.17,0,0,0,.17.17h3a.17.17,0,0,0,.18-.17.18.18,0,0,0-.18-.18Z"/></svg>