<?xml version="1.0" encoding="UTF-8"?>
<svg xmlns="http://www.w3.org/2000/svg" xmlns:xlink="http://www.w3.org/1999/xlink" width="32px" height="32px" viewBox="0 0 32 32" version="1.1">
<g id="surface1">
<path style=" stroke:none;fill-rule:nonzero;fill:rgb(83.529412%,67.45098%,26.666667%);fill-opacity:1;" d="M 10.800781 16.601562 C 9.601562 16.601562 8.601562 15.601562 8.601562 14.398438 C 8.601562 13.199219 9.601562 12.199219 10.800781 12.199219 C 12 12.199219 13 13.199219 13 14.398438 C 13 15.699219 12 16.601562 10.800781 16.601562 Z M 10.800781 12.800781 C 9.898438 12.800781 9.199219 13.5 9.199219 14.398438 C 9.199219 15.300781 9.898438 16 10.800781 16 C 11.699219 16 12.398438 15.300781 12.398438 14.398438 C 12.5 13.601562 11.699219 12.800781 10.800781 12.800781 Z M 10.800781 12.800781 "/>
<path style=" stroke:none;fill-rule:nonzero;fill:rgb(83.529412%,67.45098%,26.666667%);fill-opacity:1;" d="M 10.800781 16.699219 C 9.5 16.699219 8.5 15.699219 8.5 14.398438 C 8.5 13.101562 9.5 12.101562 10.800781 12.101562 C 12.101562 12.101562 13.101562 13.101562 13.101562 14.398438 C 13.101562 15.699219 12.101562 16.699219 10.800781 16.699219 Z M 10.800781 12.398438 C 9.699219 12.398438 8.699219 13.300781 8.699219 14.398438 C 8.699219 15.5 9.601562 16.5 10.699219 16.5 C 11.800781 16.5 12.800781 15.601562 12.800781 14.5 C 12.898438 13.300781 12 12.398438 10.800781 12.398438 Z M 10.800781 16.199219 C 9.800781 16.199219 9.101562 15.398438 9.101562 14.5 C 9.101562 13.5 9.898438 12.800781 10.800781 12.800781 C 11.800781 12.800781 12.5 13.601562 12.5 14.5 C 12.601562 15.398438 11.800781 16.199219 10.800781 16.199219 Z M 10.800781 12.898438 C 10 12.898438 9.300781 13.601562 9.300781 14.398438 C 9.300781 15.199219 10 16 10.800781 16 C 11.601562 16 12.300781 15.300781 12.300781 14.5 C 12.300781 13.699219 11.699219 13 10.800781 12.898438 Z M 10.800781 12.898438 "/>
<path style=" stroke:none;fill-rule:nonzero;fill:rgb(83.529412%,67.45098%,26.666667%);fill-opacity:1;" d="M 14.898438 22.199219 L 6.800781 22.199219 C 6.699219 22.199219 6.5 22.101562 6.5 21.898438 L 6.5 19.101562 C 6.5 17.800781 7.5 16.800781 8.800781 16.800781 L 9 16.800781 C 9.199219 16.800781 9.5 16.898438 9.601562 17.101562 C 10.199219 17.800781 11.199219 17.898438 11.898438 17.300781 C 12 17.199219 12 17.199219 12.101562 17.101562 C 12.300781 16.898438 12.5 16.800781 12.699219 16.800781 L 12.800781 16.800781 C 14.101562 16.800781 15.101562 17.800781 15.101562 19.101562 L 15.101562 21.898438 C 15.199219 22.101562 15.101562 22.199219 14.898438 22.199219 Z M 7 21.699219 L 14.601562 21.699219 L 14.601562 19.199219 C 14.601562 18.199219 13.800781 17.398438 12.800781 17.398438 L 12.699219 17.398438 C 12.601562 17.398438 12.5 17.398438 12.5 17.5 C 11.699219 18.398438 10.398438 18.5 9.5 17.800781 C 9.398438 17.699219 9.300781 17.601562 9.199219 17.5 C 9.199219 17.5 9.101562 17.398438 9 17.398438 L 8.800781 17.398438 C 7.800781 17.398438 7 18.199219 7 19.199219 Z M 7 21.699219 "/>
<path style=" stroke:none;fill-rule:nonzero;fill:rgb(83.529412%,67.45098%,26.666667%);fill-opacity:1;" d="M 14.898438 22.300781 L 6.800781 22.300781 C 6.601562 22.300781 6.398438 22.101562 6.398438 21.898438 L 6.398438 19.101562 C 6.398438 17.800781 7.5 16.699219 8.800781 16.699219 L 9 16.699219 C 9.300781 16.699219 9.5 16.800781 9.699219 17 C 10 17.300781 10.398438 17.5 10.898438 17.5 C 11.300781 17.5 11.699219 17.300781 12 17 C 12.199219 16.800781 12.398438 16.699219 12.699219 16.699219 L 12.800781 16.699219 C 14.101562 16.699219 15.199219 17.800781 15.199219 19.101562 L 15.199219 21.898438 C 15.300781 22.101562 15.101562 22.300781 14.898438 22.300781 Z M 8.800781 17 C 7.601562 17 6.601562 18 6.601562 19.199219 L 6.601562 22 C 6.601562 22.101562 6.699219 22.199219 6.800781 22.199219 L 14.898438 22.199219 C 15 22.199219 15.101562 22.101562 15.101562 22 L 15.101562 19.199219 C 15.101562 18 14.101562 17 12.898438 17 L 12.800781 17 C 12.601562 17 12.398438 17.101562 12.199219 17.199219 C 11.601562 17.898438 10.5 18 9.800781 17.398438 C 9.699219 17.300781 9.699219 17.300781 9.601562 17.199219 C 9.398438 17.101562 9.199219 17 9 17 Z M 14.699219 21.800781 L 6.898438 21.800781 L 6.898438 19.199219 C 6.898438 18.101562 7.699219 17.300781 8.800781 17.300781 L 9 17.300781 C 9.101562 17.300781 9.199219 17.300781 9.300781 17.398438 C 10 18.300781 11.300781 18.398438 12.199219 17.601562 C 12.300781 17.5 12.398438 17.398438 12.398438 17.398438 C 12.5 17.300781 12.601562 17.300781 12.699219 17.300781 L 12.800781 17.300781 C 13.898438 17.300781 14.699219 18.199219 14.699219 19.199219 Z M 7.101562 21.601562 L 14.5 21.601562 L 14.5 19.199219 C 14.5 18.300781 13.800781 17.5 12.800781 17.5 L 12.699219 17.5 C 12.601562 17.5 12.601562 17.5 12.5 17.5 C 11.699219 18.5 10.300781 18.601562 9.300781 17.800781 C 9.199219 17.699219 9.101562 17.601562 9 17.5 C 9 17.5 8.898438 17.5 8.898438 17.5 L 8.800781 17.5 C 7.898438 17.5 7.101562 18.300781 7.101562 19.199219 Z M 7.101562 21.601562 "/>
<path style=" stroke:none;fill-rule:nonzero;fill:rgb(83.529412%,67.45098%,26.666667%);fill-opacity:1;" d="M 24.300781 15.601562 L 17.800781 15.601562 C 17.699219 15.601562 17.5 15.5 17.5 15.300781 L 17.5 13.5 C 17.5 13.398438 17.601562 13.199219 17.800781 13.199219 L 24.300781 13.199219 C 24.398438 13.199219 24.601562 13.300781 24.601562 13.5 L 24.601562 15.300781 C 24.601562 15.5 24.5 15.601562 24.300781 15.601562 Z M 18.101562 15.101562 L 24.101562 15.101562 L 24.101562 13.800781 L 18.101562 13.800781 Z M 18.101562 15.101562 "/>
<path style=" stroke:none;fill-rule:nonzero;fill:rgb(83.529412%,67.45098%,26.666667%);fill-opacity:1;" d="M 24.300781 15.699219 L 17.800781 15.699219 C 17.601562 15.699219 17.398438 15.5 17.398438 15.300781 L 17.398438 13.5 C 17.398438 13.300781 17.601562 13.101562 17.699219 13.101562 L 24.199219 13.101562 C 24.398438 13.101562 24.601562 13.300781 24.601562 13.5 L 24.601562 15.300781 C 24.699219 15.5 24.5 15.699219 24.300781 15.699219 Z M 17.800781 13.300781 C 17.699219 13.300781 17.601562 13.398438 17.699219 13.5 L 17.699219 15.300781 C 17.699219 15.398438 17.800781 15.5 17.800781 15.5 L 24.300781 15.5 C 24.398438 15.5 24.5 15.398438 24.398438 15.300781 L 24.398438 13.5 C 24.398438 13.398438 24.300781 13.300781 24.300781 13.300781 Z M 24.199219 15.199219 L 18 15.199219 L 18 13.699219 L 24.199219 13.699219 Z M 18.199219 14.898438 L 24 14.898438 L 24 13.800781 L 18.199219 13.800781 Z M 18.199219 14.898438 "/>
<path style=" stroke:none;fill-rule:nonzero;fill:rgb(83.529412%,67.45098%,26.666667%);fill-opacity:1;" d="M 22.199219 17.398438 L 19.898438 17.398438 C 19.800781 17.398438 19.601562 17.300781 19.601562 17.101562 C 19.601562 17 19.699219 16.800781 19.898438 16.800781 L 22.199219 16.800781 C 22.300781 16.800781 22.5 16.898438 22.5 17.101562 C 22.5 17.300781 22.398438 17.398438 22.199219 17.398438 C 22.300781 17.398438 22.300781 17.398438 22.199219 17.398438 Z M 22.199219 17.398438 "/>
<path style=" stroke:none;fill-rule:nonzero;fill:rgb(83.529412%,67.45098%,26.666667%);fill-opacity:1;" d="M 22.199219 17.5 L 19.898438 17.5 C 19.699219 17.5 19.601562 17.300781 19.601562 17.101562 C 19.601562 16.898438 19.699219 16.800781 19.898438 16.800781 L 22.199219 16.800781 C 22.398438 16.800781 22.601562 16.898438 22.601562 17.101562 C 22.601562 17.300781 22.5 17.5 22.300781 17.5 C 22.300781 17.5 22.300781 17.5 22.199219 17.5 Z M 19.898438 17 C 19.800781 17 19.800781 17.101562 19.800781 17.101562 C 19.800781 17.199219 19.898438 17.300781 19.898438 17.300781 L 22.199219 17.300781 C 22.300781 17.300781 22.398438 17.199219 22.398438 17.101562 C 22.398438 17 22.300781 16.898438 22.199219 17 Z M 19.898438 17 "/>
<path style=" stroke:none;fill-rule:nonzero;fill:rgb(83.529412%,67.45098%,26.666667%);fill-opacity:1;" d="M 22.199219 19.199219 L 19.898438 19.199219 C 19.800781 19.199219 19.601562 19.101562 19.601562 18.898438 C 19.601562 18.800781 19.699219 18.601562 19.898438 18.601562 L 22.199219 18.601562 C 22.300781 18.601562 22.5 18.699219 22.5 18.800781 C 22.5 19.101562 22.398438 19.199219 22.199219 19.199219 Z M 22.199219 19.199219 "/>
<path style=" stroke:none;fill-rule:nonzero;fill:rgb(83.529412%,67.45098%,26.666667%);fill-opacity:1;" d="M 22.199219 19.300781 L 19.898438 19.300781 C 19.699219 19.300781 19.5 19.101562 19.5 18.898438 C 19.5 18.699219 19.699219 18.5 19.898438 18.5 L 22.199219 18.5 C 22.398438 18.5 22.601562 18.699219 22.601562 18.898438 C 22.601562 19.101562 22.5 19.300781 22.199219 19.300781 C 22.300781 19.300781 22.300781 19.300781 22.199219 19.300781 Z M 19.898438 18.800781 C 19.800781 18.800781 19.699219 18.898438 19.800781 19 C 19.800781 19.101562 19.898438 19.101562 19.898438 19.101562 L 22.199219 19.101562 C 22.300781 19.101562 22.398438 19 22.398438 19 C 22.398438 18.898438 22.300781 18.800781 22.199219 18.800781 Z M 19.898438 18.800781 "/>
<path style=" stroke:none;fill-rule:nonzero;fill:rgb(83.529412%,67.45098%,26.666667%);fill-opacity:1;" d="M 25.199219 8.601562 L 24.699219 8.601562 C 24.601562 8.601562 24.398438 8.5 24.398438 8.300781 C 24.398438 8.199219 24.5 8 24.699219 8 L 25.199219 8 C 25.300781 8 25.5 8.101562 25.5 8.300781 C 25.5 8.398438 25.300781 8.601562 25.199219 8.601562 Z M 25.199219 8.601562 "/>
<path style=" stroke:none;fill-rule:nonzero;fill:rgb(83.529412%,67.45098%,26.666667%);fill-opacity:1;" d="M 25.199219 8.699219 L 24.699219 8.699219 C 24.5 8.699219 24.300781 8.5 24.300781 8.300781 C 24.300781 8.101562 24.5 8 24.699219 8 L 25.199219 8 C 25.398438 8 25.601562 8.199219 25.601562 8.398438 C 25.5 8.5 25.398438 8.699219 25.199219 8.699219 Z M 24.699219 8.199219 C 24.601562 8.199219 24.601562 8.300781 24.601562 8.300781 C 24.601562 8.398438 24.699219 8.5 24.699219 8.5 L 25.199219 8.5 C 25.300781 8.5 25.398438 8.398438 25.398438 8.300781 C 25.398438 8.199219 25.300781 8.101562 25.199219 8.199219 Z M 24.699219 8.199219 "/>
<path style=" stroke:none;fill-rule:nonzero;fill:rgb(83.529412%,67.45098%,26.666667%);fill-opacity:1;" d="M 22.601562 8.601562 L 21.601562 8.601562 C 21.5 8.601562 21.300781 8.5 21.300781 8.398438 C 21.300781 8.300781 21.398438 8.101562 21.601562 8.101562 L 22.601562 8.101562 C 22.699219 8.101562 22.898438 8.199219 22.898438 8.398438 C 22.898438 8.5 22.800781 8.601562 22.601562 8.601562 Z M 19.601562 8.601562 L 18.601562 8.601562 C 18.5 8.601562 18.300781 8.5 18.300781 8.398438 C 18.300781 8.300781 18.398438 8.101562 18.601562 8.101562 L 19.601562 8.101562 C 19.699219 8.101562 19.898438 8.199219 19.898438 8.398438 C 19.800781 8.5 19.699219 8.601562 19.601562 8.601562 Z M 19.601562 8.601562 "/>
<path style=" stroke:none;fill-rule:nonzero;fill:rgb(83.529412%,67.45098%,26.666667%);fill-opacity:1;" d="M 22.601562 8.699219 L 21.601562 8.699219 C 21.398438 8.699219 21.199219 8.5 21.199219 8.300781 C 21.199219 8.101562 21.398438 8 21.601562 8 L 22.601562 8 C 22.800781 8 23 8.199219 23 8.398438 C 23 8.5 22.800781 8.699219 22.601562 8.699219 Z M 21.601562 8.199219 C 21.5 8.199219 21.398438 8.300781 21.398438 8.300781 C 21.398438 8.398438 21.5 8.5 21.601562 8.5 L 22.601562 8.5 C 22.699219 8.5 22.800781 8.398438 22.800781 8.300781 C 22.800781 8.199219 22.699219 8.101562 22.601562 8.199219 Z M 19.601562 8.699219 L 18.601562 8.699219 C 18.398438 8.699219 18.199219 8.5 18.199219 8.300781 C 18.199219 8.101562 18.300781 8 18.5 8 L 19.5 8 C 19.699219 8 19.898438 8.199219 19.898438 8.398438 C 19.898438 8.5 19.699219 8.699219 19.601562 8.699219 Z M 18.601562 8.199219 C 18.5 8.199219 18.398438 8.300781 18.398438 8.300781 C 18.398438 8.398438 18.5 8.5 18.601562 8.5 L 19.601562 8.5 C 19.699219 8.5 19.800781 8.398438 19.699219 8.300781 C 19.699219 8.199219 19.601562 8.199219 19.601562 8.199219 Z M 18.601562 8.199219 "/>
<path style=" stroke:none;fill-rule:nonzero;fill:rgb(83.529412%,67.45098%,26.666667%);fill-opacity:1;" d="M 16.5 8.601562 L 16 8.601562 C 15.898438 8.601562 15.699219 8.5 15.699219 8.300781 C 15.699219 8.199219 15.800781 8 16 8 L 16.5 8 C 16.601562 8 16.800781 8.101562 16.800781 8.300781 C 16.800781 8.5 16.699219 8.601562 16.5 8.601562 Z M 16.5 8.601562 "/>
<path style=" stroke:none;fill-rule:nonzero;fill:rgb(83.529412%,67.45098%,26.666667%);fill-opacity:1;" d="M 16.5 8.699219 L 16 8.699219 C 15.800781 8.699219 15.601562 8.5 15.601562 8.300781 C 15.699219 8.101562 15.800781 8 16 8 L 16.5 8 C 16.699219 8 16.898438 8.199219 16.898438 8.398438 C 16.898438 8.5 16.699219 8.699219 16.5 8.699219 Z M 16 8.199219 C 15.898438 8.199219 15.898438 8.300781 15.898438 8.300781 C 15.898438 8.398438 16 8.5 16 8.5 L 16.5 8.5 C 16.601562 8.5 16.699219 8.398438 16.601562 8.300781 C 16.601562 8.199219 16.5 8.199219 16.5 8.199219 Z M 16 8.199219 "/>
<path style=" stroke:none;fill-rule:nonzero;fill:rgb(83.529412%,67.45098%,26.666667%);fill-opacity:1;" d="M 25.800781 24 L 6.199219 24 C 5 24 4 23.101562 4 21.898438 C 4 21.898438 4 21.800781 4 21.800781 L 4 10.199219 C 4 9 5 8 6.199219 8 L 16 8 C 16.101562 8 16.300781 8.101562 16.300781 8.300781 C 16.300781 8.398438 16.199219 8.601562 16.101562 8.601562 L 6.199219 8.601562 C 5.300781 8.601562 4.601562 9.300781 4.601562 10.199219 L 4.601562 21.800781 C 4.601562 22.699219 5.300781 23.398438 6.199219 23.398438 L 25.800781 23.398438 C 26.699219 23.398438 27.398438 22.699219 27.398438 21.800781 L 27.398438 10.199219 C 27.398438 9.300781 26.699219 8.601562 25.800781 8.601562 L 25.199219 8.601562 C 25.101562 8.601562 24.898438 8.5 24.898438 8.300781 C 24.898438 8.199219 25 8 25.199219 8 L 25.800781 8 C 27 8 28 9 28 10.199219 L 28 21.800781 C 28 23 27.101562 24 25.800781 24 C 25.898438 24 25.800781 24 25.800781 24 Z M 25.800781 24 "/>
<path style=" stroke:none;fill-rule:nonzero;fill:rgb(83.529412%,67.45098%,26.666667%);fill-opacity:1;" d="M 25.800781 24 L 6.199219 24 C 5 24 3.898438 23 3.898438 21.699219 L 3.898438 10.199219 C 4 9 5 8 6.199219 8 L 16 8 C 16.199219 8 16.398438 8.199219 16.398438 8.300781 C 16.398438 8.5 16.199219 8.699219 16 8.699219 L 6.199219 8.699219 C 5.398438 8.699219 4.699219 9.398438 4.699219 10.199219 L 4.699219 21.699219 C 4.699219 22.5 5.398438 23.199219 6.199219 23.199219 L 25.800781 23.199219 C 26.601562 23.199219 27.300781 22.5 27.300781 21.699219 L 27.300781 10.199219 C 27.300781 9.398438 26.601562 8.699219 25.800781 8.699219 L 25.199219 8.699219 C 25 8.699219 24.800781 8.5 24.800781 8.300781 C 24.898438 8.101562 25 8 25.199219 8 L 25.800781 8 C 27 8 28.101562 9 28.101562 10.300781 L 28.101562 21.800781 C 28.101562 23 27.101562 24.101562 25.800781 24 Z M 6.199219 8.199219 C 5.101562 8.199219 4.101562 9.101562 4.101562 10.199219 L 4.101562 21.800781 C 4.101562 22.898438 5 23.898438 6.101562 23.898438 L 25.699219 23.898438 C 26.800781 23.898438 27.800781 23 27.800781 21.898438 L 27.800781 10.199219 C 27.800781 9.101562 26.898438 8.101562 25.800781 8.101562 L 25.199219 8.101562 C 25.101562 8.101562 25.101562 8.199219 25.101562 8.199219 C 25.101562 8.300781 25.199219 8.398438 25.199219 8.398438 L 25.800781 8.398438 C 26.800781 8.398438 27.5 9.199219 27.5 10.101562 L 27.5 21.699219 C 27.5 22.699219 26.699219 23.398438 25.800781 23.398438 L 6.199219 23.398438 C 5.199219 23.398438 4.5 22.601562 4.5 21.699219 L 4.5 10.199219 C 4.5 9.199219 5.300781 8.5 6.199219 8.5 L 16 8.5 C 16.101562 8.5 16.199219 8.398438 16.199219 8.300781 C 16.199219 8.199219 16.101562 8.101562 16 8.101562 L 6.199219 8.101562 Z M 6.199219 8.199219 "/>
<path style=" stroke:none;fill-rule:nonzero;fill:rgb(83.529412%,67.45098%,26.666667%);fill-opacity:1;" d="M 27.699219 11 L 6.800781 11 C 6.699219 11 6.5 10.898438 6.5 10.699219 C 6.5 10.5 6.601562 10.398438 6.800781 10.398438 L 27.699219 10.398438 C 27.800781 10.398438 28 10.5 28 10.699219 C 28 10.898438 27.898438 11 27.699219 11 Z M 27.699219 11 "/>
<path style=" stroke:none;fill-rule:nonzero;fill:rgb(83.529412%,67.45098%,26.666667%);fill-opacity:1;" d="M 27.699219 11.101562 L 6.800781 11.101562 C 6.601562 11.101562 6.398438 10.898438 6.398438 10.699219 C 6.398438 10.5 6.601562 10.300781 6.800781 10.300781 L 27.699219 10.300781 C 27.898438 10.300781 28.101562 10.5 28.101562 10.699219 C 28.101562 10.898438 27.898438 11.101562 27.699219 11.101562 Z M 6.800781 10.601562 C 6.699219 10.601562 6.601562 10.699219 6.601562 10.800781 C 6.601562 10.898438 6.699219 11 6.800781 11 L 27.699219 11 C 27.800781 11 27.898438 10.898438 27.898438 10.800781 C 27.898438 10.699219 27.800781 10.601562 27.699219 10.601562 Z M 6.800781 10.601562 "/>
</g>
</svg>
