<svg id="Calque_1" data-name="Calque 1" xmlns="http://www.w3.org/2000/svg" viewBox="0 0 32 32"><defs><style>.cls-1{fill:#c69433;}</style></defs><path class="cls-1" d="M10.22,16.25a.34.34,0,0,1-.28-.13,3.44,3.44,0,1,1,5.41,0,.36.36,0,0,1-.57-.44,2.72,2.72,0,1,0-4.28,0,.36.36,0,0,1-.06.51A.34.34,0,0,1,10.22,16.25Z"/><path class="cls-1" d="M21,14.73A1.87,1.87,0,0,1,21,11a1.83,1.83,0,0,1,1.14.39.18.18,0,0,1,0,.25.17.17,0,0,1-.25,0,1.54,1.54,0,0,0-.92-.31,1.51,1.51,0,1,0,.93,2.7.18.18,0,0,1,.22.28A1.85,1.85,0,0,1,21,14.73Z"/><path class="cls-1" d="M21,14.83a2,2,0,1,1,0-3.94,1.94,1.94,0,0,1,1.2.41.27.27,0,0,1,.11.19.27.27,0,0,1-.06.21.29.29,0,0,1-.18.1.3.3,0,0,1-.21-.05,1.36,1.36,0,0,0-.86-.3,1.41,1.41,0,1,0,0,2.82,1.43,1.43,0,0,0,.87-.3.29.29,0,0,1,.4,0,.3.3,0,0,1-.05.4A1.94,1.94,0,0,1,21,14.83Zm0-3.74a1.77,1.77,0,1,0,0,3.54,1.72,1.72,0,0,0,1.09-.38.08.08,0,0,0,0-.11.07.07,0,0,0-.1,0,1.65,1.65,0,0,1-1,.34,1.61,1.61,0,1,1,0-3.22,1.57,1.57,0,0,1,1,.33.07.07,0,0,0,.06,0,.05.05,0,0,0,.05,0,.14.14,0,0,0,0-.06l0,0A1.79,1.79,0,0,0,21,11.09Z"/><path class="cls-1" d="M20.79,12.34H18.94a.18.18,0,0,1,0-.36h1.85a.18.18,0,0,1,0,.36Z"/><path class="cls-1" d="M20.79,12.44H18.94a.29.29,0,0,1-.28-.28.28.28,0,0,1,.28-.28h1.85a.28.28,0,0,1,.28.28A.29.29,0,0,1,20.79,12.44Zm-1.85-.36a.08.08,0,0,0,0,.16h1.85a.08.08,0,1,0,0-.16Z"/><path class="cls-1" d="M20.79,13.74H18.94a.18.18,0,0,1,0-.36h1.85a.18.18,0,0,1,0,.36Z"/><path class="cls-1" d="M20.79,13.84H18.94a.28.28,0,0,1-.28-.28.29.29,0,0,1,.28-.28h1.85a.29.29,0,0,1,.28.28A.28.28,0,0,1,20.79,13.84Zm-1.85-.36a.08.08,0,0,0,0,.16h1.85a.08.08,0,1,0,0-.16Z"/><path class="cls-1" d="M19.54,16.22l-.13,0a3.45,3.45,0,1,1,2.44,0,.36.36,0,0,1-.25-.68,2.73,2.73,0,1,0-1.93,0,.36.36,0,0,1-.13.7Z"/><path class="cls-1" d="M16.15,10.25a3.45,3.45,0,1,1,3.44-3.44A3.45,3.45,0,0,1,16.15,10.25Zm0-6.17a2.73,2.73,0,1,0,2.72,2.73A2.73,2.73,0,0,0,16.15,4.08Z"/><path class="cls-1" d="M21.48,26.64h-11A3,3,0,0,1,7.6,24.17L6.23,16a.39.39,0,0,1,.09-.29.34.34,0,0,1,.27-.13H25.41a.34.34,0,0,1,.27.13.39.39,0,0,1,.09.29L24.4,24.17A3,3,0,0,1,21.48,26.64ZM7,16.25l1.3,7.8a2.22,2.22,0,0,0,2.2,1.87h11a2.24,2.24,0,0,0,2.21-1.87L25,16.25Z"/><path class="cls-1" d="M24,16.25H8a.36.36,0,0,1-.36-.36V13.15a8.35,8.35,0,0,1,3.78-7,.36.36,0,0,1,.5.11.37.37,0,0,1-.1.5,7.61,7.61,0,0,0-3.46,6.39v2.38H24a.36.36,0,0,1,.36.36A.36.36,0,0,1,24,16.25Z"/><path class="cls-1" d="M22.93,9.51a.38.38,0,0,1-.31-.18,7.69,7.69,0,0,0-2.44-2.57.36.36,0,0,1,.4-.61A8.44,8.44,0,0,1,23.24,9a.36.36,0,0,1-.13.49A.41.41,0,0,1,22.93,9.51Z"/><path class="cls-1" d="M19,23.68a.38.38,0,0,1-.24-.09.35.35,0,0,1,0-.51l4.43-4.86a.37.37,0,0,1,.51,0,.35.35,0,0,1,0,.51l-4.43,4.85A.36.36,0,0,1,19,23.68Z"/><path class="cls-1" d="M14.72,23.68a.38.38,0,0,1-.25-.09.36.36,0,0,1,0-.51l4.43-4.86a.37.37,0,0,1,.51,0,.36.36,0,0,1,0,.51L15,23.56A.35.35,0,0,1,14.72,23.68Z"/><path class="cls-1" d="M10.48,23.68a.38.38,0,0,1-.25-.09.37.37,0,0,1,0-.51l4.43-4.86a.37.37,0,0,1,.51,0,.36.36,0,0,1,0,.51l-4.44,4.85A.35.35,0,0,1,10.48,23.68Z"/><path class="cls-1" d="M12.89,23.68a.34.34,0,0,1-.26-.12L8.19,18.71a.36.36,0,0,1,.53-.49l4.44,4.86a.37.37,0,0,1,0,.51A.38.38,0,0,1,12.89,23.68Z"/><path class="cls-1" d="M17.13,23.68a.36.36,0,0,1-.27-.12l-4.43-4.85a.36.36,0,0,1,.53-.49l4.44,4.86a.36.36,0,0,1,0,.51A.36.36,0,0,1,17.13,23.68Z"/><path class="cls-1" d="M21.37,23.68a.36.36,0,0,1-.27-.12l-4.43-4.85a.35.35,0,0,1,0-.51.37.37,0,0,1,.51,0l4.43,4.86a.35.35,0,0,1,0,.51A.38.38,0,0,1,21.37,23.68Z"/><path class="cls-1" d="M25.91,26.64H6.09a.36.36,0,0,1,0-.72H25.91a.36.36,0,0,1,0,.72Z"/><path class="cls-1" d="M16.27,8.82a1.88,1.88,0,1,1,1.14-3.36.18.18,0,0,1,0,.26.18.18,0,0,1-.25,0,1.45,1.45,0,0,0-.92-.32,1.52,1.52,0,0,0,0,3,1.49,1.49,0,0,0,.93-.33.19.19,0,0,1,.26,0,.18.18,0,0,1,0,.25A1.83,1.83,0,0,1,16.27,8.82Z"/><path class="cls-1" d="M16.27,8.92a2,2,0,1,1,1.21-3.54.3.3,0,0,1,.1.19.3.3,0,0,1,0,.21.31.31,0,0,1-.19.11.26.26,0,0,1-.21-.06,1.41,1.41,0,1,0-.86,2.52,1.37,1.37,0,0,0,.87-.3.28.28,0,0,1,.4,0,.28.28,0,0,1-.05.39A1.93,1.93,0,0,1,16.27,8.92Zm0-3.74a1.77,1.77,0,1,0,0,3.53,1.72,1.72,0,0,0,1.09-.38s0-.07,0-.11a.09.09,0,0,0-.11,0,1.58,1.58,0,0,1-1,.35,1.62,1.62,0,1,1,1-2.89h0a.05.05,0,0,0,.05,0s0,0,0-.05a.05.05,0,0,0,0,0A1.7,1.7,0,0,0,16.27,5.18Z"/><path class="cls-1" d="M16.08,6.42H14.24a.18.18,0,0,1,0-.36h1.84a.18.18,0,1,1,0,.36Z"/><path class="cls-1" d="M16.08,6.53H14.24a.29.29,0,1,1,0-.57h1.84a.29.29,0,0,1,0,.57Zm-1.84-.36a.07.07,0,0,0-.08.07.07.07,0,0,0,.08.08h1.84a.08.08,0,0,0,.08-.08.08.08,0,0,0-.08-.07Z"/><path class="cls-1" d="M16.08,7.83H14.24a.18.18,0,0,1,0-.36h1.84a.18.18,0,1,1,0,.36Z"/><path class="cls-1" d="M16.08,7.93H14.24a.29.29,0,1,1,0-.57h1.84a.29.29,0,0,1,0,.57Zm-1.84-.36a.07.07,0,0,0-.08.08.07.07,0,0,0,.08.07h1.84a.08.08,0,0,0,.08-.07.08.08,0,0,0-.08-.08Z"/><path class="cls-1" d="M12.75,16a1.87,1.87,0,1,1,0-3.74,1.9,1.9,0,0,1,1.15.39.2.2,0,0,1,0,.26.19.19,0,0,1-.25,0,1.5,1.5,0,0,0-.93-.32,1.51,1.51,0,1,0,.94,2.7.18.18,0,0,1,.22.28A1.8,1.8,0,0,1,12.75,16Z"/><path class="cls-1" d="M12.75,16.07A2,2,0,1,1,14,12.53a.31.31,0,0,1,.11.19.27.27,0,0,1-.06.21.29.29,0,0,1-.19.11.27.27,0,0,1-.21-.06,1.37,1.37,0,0,0-.86-.29,1.41,1.41,0,0,0,0,2.81,1.37,1.37,0,0,0,.87-.3.28.28,0,0,1,.4.05.27.27,0,0,1,0,.39A2,2,0,0,1,12.75,16.07Zm0-3.74a1.77,1.77,0,1,0,1.1,3.15.08.08,0,0,0,0-.11.08.08,0,0,0-.11,0,1.56,1.56,0,0,1-1,.35,1.62,1.62,0,1,1,1-2.89h.06s0,0,0,0a0,0,0,0,0,0-.05.09.09,0,0,0,0-.06A1.73,1.73,0,0,0,12.75,12.33Z"/><path class="cls-1" d="M12.56,13.57H10.72a.18.18,0,1,1,0-.36h1.84a.18.18,0,1,1,0,.36Z"/><path class="cls-1" d="M12.56,13.67H10.72a.27.27,0,0,1-.28-.28.28.28,0,0,1,.28-.28h1.84a.29.29,0,0,1,.29.28A.28.28,0,0,1,12.56,13.67Zm-1.84-.36a.08.08,0,1,0,0,.16h1.84a.08.08,0,1,0,0-.16Z"/><path class="cls-1" d="M12.56,15H10.72a.19.19,0,0,1-.18-.18.18.18,0,0,1,.18-.18h1.84a.18.18,0,0,1,.18.18A.19.19,0,0,1,12.56,15Z"/><path class="cls-1" d="M12.56,15.08H10.72a.29.29,0,0,1,0-.57h1.84a.29.29,0,1,1,0,.57Zm-1.84-.36a.08.08,0,0,0-.08.08.08.08,0,0,0,.08.07h1.84a.07.07,0,0,0,.08-.07.07.07,0,0,0-.08-.08Z"/></svg>