<svg id="Calque_1" data-name="Calque 1" xmlns="http://www.w3.org/2000/svg" viewBox="0 0 32 32"><defs><style>.cls-1{fill:#c69433;}</style></defs><path class="cls-1" d="M10.84,16.64A2.16,2.16,0,1,1,13,14.48,2.16,2.16,0,0,1,10.84,16.64Zm0-3.8a1.64,1.64,0,1,0,1.63,1.64A1.64,1.64,0,0,0,10.84,12.84Z"/><path class="cls-1" d="M10.84,16.74a2.27,2.27,0,1,1,2.26-2.26A2.27,2.27,0,0,1,10.84,16.74Zm0-4.32a2.06,2.06,0,1,0,2.05,2.06A2.06,2.06,0,0,0,10.84,12.42Zm0,3.8a1.74,1.74,0,1,1,1.74-1.74A1.74,1.74,0,0,1,10.84,16.22Zm0-3.27a1.53,1.53,0,1,0,1.53,1.53A1.53,1.53,0,0,0,10.84,13Z"/><path class="cls-1" d="M14.9,22.18H6.77a.26.26,0,0,1-.26-.26V19.17a2.32,2.32,0,0,1,2.32-2.32H9a.82.82,0,0,1,.64.28,1.63,1.63,0,0,0,2.49,0,.82.82,0,0,1,.64-.28h.12a2.32,2.32,0,0,1,2.32,2.32v2.75A.26.26,0,0,1,14.9,22.18ZM7,21.66h7.61V19.17a1.81,1.81,0,0,0-1.8-1.8h-.12a.31.31,0,0,0-.24.09,2.14,2.14,0,0,1-3.29,0A.31.31,0,0,0,9,17.37H8.83A1.81,1.81,0,0,0,7,19.17Z"/><path class="cls-1" d="M14.9,22.29H6.77a.37.37,0,0,1-.36-.37V19.17a2.42,2.42,0,0,1,2.42-2.43H9a.94.94,0,0,1,.72.32,1.54,1.54,0,0,0,1.17.54A1.52,1.52,0,0,0,12,17.06a.94.94,0,0,1,.72-.32h.12a2.43,2.43,0,0,1,2.43,2.43v2.75A.38.38,0,0,1,14.9,22.29ZM8.83,17a2.22,2.22,0,0,0-2.21,2.22v2.75a.16.16,0,0,0,.15.16H14.9a.16.16,0,0,0,.16-.16V19.17A2.23,2.23,0,0,0,12.84,17h-.12a.75.75,0,0,0-.56.24,1.73,1.73,0,0,1-2.65,0A.73.73,0,0,0,9,17Zm5.91,4.81H6.93V19.17a1.91,1.91,0,0,1,1.9-1.91H9a.43.43,0,0,1,.32.13,2.05,2.05,0,0,0,3.13,0,.4.4,0,0,1,.32-.14h.12a1.91,1.91,0,0,1,1.9,1.91Zm-7.6-.21h7.39V19.17a1.68,1.68,0,0,0-1.69-1.69h-.12a.23.23,0,0,0-.16.05,2.26,2.26,0,0,1-3.45,0A.23.23,0,0,0,9,17.48H8.83a1.69,1.69,0,0,0-1.69,1.69Z"/><path class="cls-1" d="M24.33,15.58H17.84a.26.26,0,0,1-.26-.26V13.51a.27.27,0,0,1,.26-.27h6.49a.27.27,0,0,1,.26.27v1.81A.26.26,0,0,1,24.33,15.58Zm-6.23-.52h6V13.77h-6Z"/><path class="cls-1" d="M24.33,15.69H17.84a.37.37,0,0,1-.36-.37V13.51a.36.36,0,0,1,.36-.37h6.49a.36.36,0,0,1,.36.37v1.81A.37.37,0,0,1,24.33,15.69Zm-6.49-2.34a.16.16,0,0,0-.15.16v1.81a.16.16,0,0,0,.15.16h6.49a.16.16,0,0,0,.15-.16V13.51a.16.16,0,0,0-.15-.16Zm6.33,1.81H18v-1.5h6.17Zm-6-.21H24V13.87H18.21Z"/><path class="cls-1" d="M22.25,17.39H19.91a.26.26,0,0,1-.26-.26.26.26,0,0,1,.26-.26h2.34a.26.26,0,0,1,.26.26A.25.25,0,0,1,22.25,17.39Z"/><path class="cls-1" d="M22.25,17.5H19.91a.37.37,0,0,1,0-.73h2.34a.37.37,0,1,1,0,.73ZM19.91,17a.15.15,0,0,0-.15.15.16.16,0,0,0,.15.16h2.34a.16.16,0,0,0,.16-.16.16.16,0,0,0-.16-.15Z"/><path class="cls-1" d="M22.25,19.21H19.91a.26.26,0,0,1-.26-.26.26.26,0,0,1,.26-.26h2.34a.25.25,0,0,1,.26.26A.26.26,0,0,1,22.25,19.21Z"/><path class="cls-1" d="M22.25,19.31H19.91a.36.36,0,0,1-.36-.36.37.37,0,0,1,.36-.37h2.34a.37.37,0,0,1,.37.37A.36.36,0,0,1,22.25,19.31Zm-2.34-.52a.16.16,0,0,0-.15.16.15.15,0,0,0,.15.15h2.34a.16.16,0,0,0,.16-.15.16.16,0,0,0-.16-.16Z"/><path class="cls-1" d="M25.19,8.57h-.52a.26.26,0,0,1-.26-.26.26.26,0,0,1,.26-.26h.52a.26.26,0,0,1,.26.26A.25.25,0,0,1,25.19,8.57Z"/><path class="cls-1" d="M25.19,8.68h-.52a.37.37,0,0,1-.36-.37A.36.36,0,0,1,24.67,8h.52a.37.37,0,0,1,.37.36A.38.38,0,0,1,25.19,8.68Zm-.52-.52a.15.15,0,0,0-.15.15.15.15,0,0,0,.15.16h.52a.16.16,0,0,0,.16-.16.16.16,0,0,0-.16-.15Z"/><path class="cls-1" d="M22.63,8.57h-1a.25.25,0,0,1-.26-.26.26.26,0,0,1,.26-.26h1a.26.26,0,0,1,.26.26A.26.26,0,0,1,22.63,8.57Zm-3.06,0h-1a.25.25,0,0,1-.26-.26.26.26,0,0,1,.26-.26h1a.26.26,0,0,1,.26.26A.26.26,0,0,1,19.57,8.57Z"/><path class="cls-1" d="M22.63,8.68h-1a.38.38,0,0,1-.37-.37A.37.37,0,0,1,21.61,8h1a.37.37,0,0,1,.37.36A.38.38,0,0,1,22.63,8.68Zm-1-.52a.16.16,0,0,0-.16.15.16.16,0,0,0,.16.16h1a.16.16,0,0,0,.16-.16.16.16,0,0,0-.16-.15Zm-2,.52h-1a.38.38,0,0,1-.37-.37A.37.37,0,0,1,18.55,8h1a.36.36,0,0,1,.36.36A.37.37,0,0,1,19.57,8.68Zm-1-.52a.16.16,0,0,0-.16.15.16.16,0,0,0,.16.16h1a.16.16,0,0,0,.15-.16.15.15,0,0,0-.15-.15Z"/><path class="cls-1" d="M16.51,8.57H16a.26.26,0,0,1-.26-.26A.26.26,0,0,1,16,8.05h.53a.26.26,0,0,1,.26.26A.26.26,0,0,1,16.51,8.57Z"/><path class="cls-1" d="M16.51,8.68H16a.37.37,0,0,1-.36-.37A.36.36,0,0,1,16,8h.53a.36.36,0,0,1,.36.36A.37.37,0,0,1,16.51,8.68ZM16,8.16a.15.15,0,0,0-.15.15.16.16,0,0,0,.15.16h.53a.16.16,0,0,0,.15-.16.15.15,0,0,0-.15-.15Z"/><path class="cls-1" d="M25.81,24H6.19A2.16,2.16,0,0,1,4,21.79V10.21A2.16,2.16,0,0,1,6.19,8.05H16a.26.26,0,0,1,.26.26.25.25,0,0,1-.26.26H6.19a1.64,1.64,0,0,0-1.64,1.64V21.79a1.64,1.64,0,0,0,1.64,1.64H25.81a1.64,1.64,0,0,0,1.64-1.64V10.21a1.64,1.64,0,0,0-1.64-1.64h-.62a.26.26,0,0,1-.26-.26.26.26,0,0,1,.26-.26h.62A2.16,2.16,0,0,1,28,10.21V21.79A2.16,2.16,0,0,1,25.81,24Z"/><path class="cls-1" d="M25.81,24.05H6.19a2.27,2.27,0,0,1-2.27-2.26V10.21A2.27,2.27,0,0,1,6.19,8H16a.36.36,0,0,1,.37.36.37.37,0,0,1-.37.37H6.19a1.54,1.54,0,0,0-1.54,1.53V21.79a1.54,1.54,0,0,0,1.54,1.53H25.81a1.54,1.54,0,0,0,1.54-1.53V10.21a1.54,1.54,0,0,0-1.54-1.53h-.62a.37.37,0,0,1-.36-.37A.36.36,0,0,1,25.19,8h.62a2.27,2.27,0,0,1,2.27,2.26V21.79A2.27,2.27,0,0,1,25.81,24.05ZM6.19,8.16a2.05,2.05,0,0,0-2.06,2.05V21.79a2.05,2.05,0,0,0,2.06,2.05H25.81a2.05,2.05,0,0,0,2.06-2.05V10.21a2.05,2.05,0,0,0-2.06-2.05h-.62a.15.15,0,0,0-.15.15.16.16,0,0,0,.15.16h.62a1.74,1.74,0,0,1,1.75,1.74V21.79a1.74,1.74,0,0,1-1.75,1.74H6.19a1.74,1.74,0,0,1-1.75-1.74V10.21A1.74,1.74,0,0,1,6.19,8.47H16a.16.16,0,0,0,.16-.16A.16.16,0,0,0,16,8.16Z"/><path class="cls-1" d="M27.71,11H6.77a.26.26,0,0,1,0-.52H27.71a.26.26,0,0,1,0,.52Z"/><path class="cls-1" d="M27.71,11.11H6.77a.37.37,0,0,1,0-.74H27.71a.37.37,0,0,1,0,.74ZM6.77,10.58a.16.16,0,0,0,0,.32H27.71a.16.16,0,0,0,0-.32Z"/></svg>