<?xml version="1.0" encoding="UTF-8"?>
<svg xmlns="http://www.w3.org/2000/svg" xmlns:xlink="http://www.w3.org/1999/xlink" width="32px" height="32px" viewBox="0 0 32 32" version="1.1">
<g id="surface1">
<path style=" stroke:none;fill-rule:nonzero;fill:rgb(83.529412%,67.45098%,26.666667%);fill-opacity:1;" d="M 12.898438 17.398438 L 6.5 17.398438 C 5.699219 17.398438 5.101562 16.800781 5.101562 16 C 5.101562 15.199219 5.699219 14.601562 6.5 14.601562 L 16 14.601562 C 16.199219 14.601562 16.398438 14.800781 16.398438 15 C 16.398438 15.199219 16.199219 15.398438 16 15.398438 L 6.5 15.398438 C 6.199219 15.398438 5.898438 15.699219 5.898438 16 C 5.898438 16.300781 6.199219 16.601562 6.5 16.601562 L 12.898438 16.601562 C 13.101562 16.601562 13.300781 16.800781 13.300781 17 C 13.300781 17.199219 13.101562 17.398438 12.898438 17.398438 Z M 12.898438 17.398438 "/>
<path style=" stroke:none;fill-rule:nonzero;fill:rgb(83.529412%,67.45098%,26.666667%);fill-opacity:1;" d="M 12.300781 15.398438 L 10.398438 15.398438 C 10.199219 15.398438 10 15.199219 10 15 L 10 8.199219 C 10 8 10.199219 7.800781 10.398438 7.800781 L 12.300781 7.800781 C 12.5 7.800781 12.699219 8 12.699219 8.199219 L 12.699219 15 C 12.699219 15.199219 12.5 15.398438 12.300781 15.398438 Z M 10.800781 14.601562 L 12 14.601562 L 12 8.601562 L 10.800781 8.601562 Z M 10.800781 14.601562 "/>
<path style=" stroke:none;fill-rule:nonzero;fill:rgb(83.529412%,67.45098%,26.666667%);fill-opacity:1;" d="M 16 15.398438 L 14.101562 15.398438 C 13.898438 15.398438 13.699219 15.199219 13.699219 15 L 13.699219 8.199219 C 13.699219 8 13.898438 7.800781 14.101562 7.800781 L 16 7.800781 C 16.199219 7.800781 16.398438 8 16.398438 8.199219 L 16.398438 15 C 16.398438 15.199219 16.199219 15.398438 16 15.398438 Z M 14.5 14.601562 L 15.699219 14.601562 L 15.699219 8.601562 L 14.5 8.601562 Z M 14.5 14.601562 "/>
<path style=" stroke:none;fill-rule:nonzero;fill:rgb(83.529412%,67.45098%,26.666667%);fill-opacity:1;" d="M 8.699219 15.398438 L 6.800781 15.398438 C 6.601562 15.398438 6.398438 15.199219 6.398438 15 L 6.398438 8.199219 C 6.398438 8 6.601562 7.800781 6.800781 7.800781 L 8.699219 7.800781 C 8.898438 7.898438 9 8.101562 9 8.199219 L 9 15 C 9 15.199219 8.898438 15.300781 8.699219 15.398438 Z M 7.199219 14.601562 L 8.398438 14.601562 L 8.398438 8.601562 L 7.199219 8.601562 Z M 7.199219 14.601562 "/>
<path style=" stroke:none;fill-rule:nonzero;fill:rgb(83.529412%,67.45098%,26.666667%);fill-opacity:1;" d="M 16.898438 8.601562 L 5.800781 8.601562 C 5.5 8.601562 5.199219 8.5 5 8.199219 C 4.898438 8 4.800781 7.699219 4.898438 7.398438 C 5 7.101562 5.199219 6.800781 5.601562 6.699219 L 11 5 C 11.199219 4.898438 11.5 4.898438 11.699219 5 L 17.199219 6.699219 C 17.5 6.800781 17.800781 7.101562 17.898438 7.398438 C 18 7.699219 17.898438 8 17.699219 8.199219 C 17.5 8.398438 17.199219 8.601562 16.898438 8.601562 Z M 11.398438 5.699219 C 11.398438 5.699219 11.300781 5.699219 11.300781 5.699219 L 5.800781 7.398438 C 5.699219 7.398438 5.699219 7.5 5.601562 7.601562 C 5.601562 7.699219 5.601562 7.800781 5.699219 7.800781 C 5.699219 7.898438 5.800781 7.898438 5.898438 7.898438 L 17 7.898438 C 17.101562 7.898438 17.101562 7.898438 17.199219 7.800781 C 17.300781 7.699219 17.300781 7.699219 17.199219 7.601562 C 17.199219 7.5 17.101562 7.5 17 7.398438 L 11.5 5.699219 C 11.5 5.699219 11.398438 5.699219 11.398438 5.699219 Z M 11.398438 5.699219 "/>
<path style=" stroke:none;fill-rule:nonzero;fill:rgb(83.529412%,67.45098%,26.666667%);fill-opacity:1;" d="M 25.5 27 L 15.699219 27 C 14.898438 27 14.300781 26.398438 14.300781 25.601562 C 14.300781 24.800781 14.898438 24.199219 15.699219 24.199219 L 25.5 24.199219 C 26.300781 24.199219 26.898438 24.800781 26.898438 25.601562 C 26.898438 26.398438 26.300781 27 25.5 27 Z M 15.699219 25 C 15.398438 25 15.101562 25.300781 15.101562 25.601562 C 15.101562 25.898438 15.398438 26.199219 15.699219 26.199219 L 25.5 26.199219 C 25.800781 26.199219 26.101562 25.898438 26.101562 25.601562 C 26.101562 25.300781 25.800781 25 25.5 25 Z M 15.699219 25 "/>
<path style=" stroke:none;fill-rule:nonzero;fill:rgb(83.529412%,67.45098%,26.666667%);fill-opacity:1;" d="M 21.601562 25 L 19.699219 25 C 19.5 25 19.300781 24.800781 19.300781 24.601562 L 19.300781 17.898438 C 19.300781 17.699219 19.5 17.5 19.699219 17.5 L 21.601562 17.5 C 21.800781 17.5 22 17.699219 22 17.898438 L 22 24.699219 C 21.898438 24.800781 21.800781 25 21.601562 25 Z M 20 24.300781 L 21.199219 24.300781 L 21.199219 18.300781 L 20 18.300781 Z M 20 24.300781 "/>
<path style=" stroke:none;fill-rule:nonzero;fill:rgb(83.529412%,67.45098%,26.666667%);fill-opacity:1;" d="M 25.199219 25 L 23.300781 25 C 23.101562 25 22.898438 24.800781 22.898438 24.601562 L 22.898438 17.898438 C 22.898438 17.699219 23.101562 17.5 23.300781 17.5 L 25.199219 17.5 C 25.398438 17.5 25.601562 17.699219 25.601562 17.898438 L 25.601562 24.699219 C 25.601562 24.800781 25.398438 25 25.199219 25 Z M 23.699219 24.300781 L 24.800781 24.300781 L 24.800781 18.300781 L 23.699219 18.300781 Z M 23.699219 24.300781 "/>
<path style=" stroke:none;fill-rule:nonzero;fill:rgb(83.529412%,67.45098%,26.666667%);fill-opacity:1;" d="M 17.898438 25 L 16 25 C 15.800781 25 15.601562 24.800781 15.601562 24.601562 L 15.601562 17.898438 C 15.601562 17.699219 15.800781 17.5 16 17.5 L 17.898438 17.5 C 18.101562 17.5 18.300781 17.699219 18.300781 17.898438 L 18.300781 24.699219 C 18.199219 24.800781 18.101562 25 17.898438 25 Z M 16.398438 24.300781 L 17.601562 24.300781 L 17.601562 18.300781 L 16.398438 18.300781 Z M 16.398438 24.300781 "/>
<path style=" stroke:none;fill-rule:nonzero;fill:rgb(83.529412%,67.45098%,26.666667%);fill-opacity:1;" d="M 26.199219 18.300781 L 15.101562 18.300781 C 14.800781 18.300781 14.5 18.199219 14.300781 17.898438 C 14.101562 17.699219 14.101562 17.398438 14.101562 17.101562 C 14.199219 16.800781 14.398438 16.5 14.800781 16.398438 L 20.300781 14.699219 C 20.5 14.601562 20.800781 14.601562 21 14.699219 L 26.5 16.398438 C 26.800781 16.5 27.101562 16.800781 27.199219 17.101562 C 27.300781 17.398438 27.199219 17.699219 27 17.898438 C 26.699219 18.101562 26.5 18.300781 26.199219 18.300781 Z M 20.601562 15.398438 C 20.601562 15.398438 20.5 15.398438 20.5 15.398438 L 15 17.101562 C 14.898438 17.101562 14.898438 17.199219 14.800781 17.300781 C 14.800781 17.398438 14.800781 17.5 14.898438 17.5 C 14.898438 17.601562 15 17.601562 15.101562 17.601562 L 26.199219 17.601562 C 26.300781 17.601562 26.300781 17.601562 26.398438 17.5 C 26.398438 17.398438 26.398438 17.398438 26.398438 17.300781 C 26.398438 17.199219 26.300781 17.199219 26.199219 17.101562 L 20.601562 15.398438 C 20.699219 15.398438 20.601562 15.398438 20.601562 15.398438 Z M 20.601562 15.398438 "/>
<path style=" stroke:none;fill-rule:nonzero;fill:rgb(83.529412%,67.45098%,26.666667%);fill-opacity:1;" d="M 20.601562 13.800781 C 20.398438 13.800781 20.199219 13.601562 20.199219 13.398438 L 20.199219 8 C 20.199219 7.800781 20.398438 7.601562 20.601562 7.601562 C 20.800781 7.601562 21 7.800781 21 8 L 21 13.5 C 21 13.601562 20.800781 13.800781 20.601562 13.800781 Z M 20.601562 13.800781 "/>
<path style=" stroke:none;fill-rule:nonzero;fill:rgb(83.529412%,67.45098%,26.666667%);fill-opacity:1;" d="M 20.601562 13.800781 C 20.5 13.800781 20.398438 13.800781 20.300781 13.699219 L 19 12.300781 C 18.898438 12.101562 18.898438 11.898438 19.101562 11.800781 C 19.199219 11.699219 19.398438 11.699219 19.601562 11.800781 L 20.699219 12.898438 L 21.800781 11.800781 C 21.898438 11.699219 22.199219 11.699219 22.300781 11.800781 C 22.398438 11.898438 22.398438 12.199219 22.300781 12.300781 L 20.898438 13.699219 C 20.800781 13.699219 20.699219 13.800781 20.601562 13.800781 Z M 20.601562 13.800781 "/>
<path style=" stroke:none;fill-rule:nonzero;fill:rgb(83.529412%,67.45098%,26.666667%);fill-opacity:1;" d="M 11.398438 24.699219 C 11.199219 24.699219 11 24.5 11 24.300781 L 11 18.898438 C 11 18.699219 11.199219 18.5 11.398438 18.5 C 11.601562 18.5 11.800781 18.699219 11.800781 18.898438 L 11.800781 24.300781 C 11.699219 24.601562 11.601562 24.699219 11.398438 24.699219 Z M 11.398438 24.699219 "/>
<path style=" stroke:none;fill-rule:nonzero;fill:rgb(83.529412%,67.45098%,26.666667%);fill-opacity:1;" d="M 12.800781 20.601562 C 12.699219 20.601562 12.601562 20.601562 12.5 20.5 L 11.398438 19.398438 L 10.300781 20.5 C 10.199219 20.601562 9.898438 20.601562 9.800781 20.5 C 9.699219 20.398438 9.699219 20.101562 9.800781 20 L 11.199219 18.601562 C 11.300781 18.5 11.601562 18.5 11.699219 18.601562 L 13 20 C 13.101562 20.101562 13.101562 20.398438 13 20.5 C 12.898438 20.601562 12.898438 20.601562 12.800781 20.601562 Z M 12.800781 20.601562 "/>
<path style=" stroke:none;fill-rule:nonzero;fill:rgb(83.529412%,67.45098%,26.666667%);fill-opacity:1;" d="M 23.800781 27 L 8 27 C 7.800781 27 7.601562 26.800781 7.601562 26.601562 C 7.601562 26.398438 7.800781 26.199219 8 26.199219 L 23.800781 26.199219 C 24 26.199219 24.199219 26.398438 24.199219 26.601562 C 24.199219 26.800781 24 27 23.800781 27 Z M 23.800781 27 "/>
</g>
</svg>
