<?xml version="1.0" encoding="UTF-8"?>
<svg xmlns="http://www.w3.org/2000/svg" xmlns:xlink="http://www.w3.org/1999/xlink" width="32px" height="32px" viewBox="0 0 32 32" version="1.1">
<g id="surface1">
<path style=" stroke:none;fill-rule:nonzero;fill:rgb(83.529412%,67.45098%,26.666667%);fill-opacity:1;" d="M 16 28.800781 C 15.898438 28.800781 15.898438 28.800781 15.800781 28.800781 C 5.199219 24.101562 5.101562 7.601562 5.101562 7.398438 C 5.101562 7.199219 5.300781 7 5.398438 7 C 9.101562 6.601562 12.699219 5.300781 15.800781 3.199219 C 15.898438 3.101562 16.101562 3.101562 16.300781 3.199219 C 19.398438 5.300781 23 6.601562 26.699219 7 C 26.898438 7 27 7.199219 27.101562 7.398438 C 27.101562 7.601562 27 24 16.300781 28.699219 C 16.101562 28.800781 16.101562 28.800781 16 28.800781 Z M 5.800781 7.800781 C 5.898438 10.101562 6.800781 23.800781 16 28 C 25.199219 23.800781 26.101562 10.199219 26.101562 7.800781 C 22.5 7.300781 19.101562 6.101562 16 4.101562 C 12.898438 6.101562 9.5 7.300781 5.800781 7.800781 Z M 5.800781 7.800781 "/>
<path style=" stroke:none;fill-rule:nonzero;fill:rgb(83.529412%,67.45098%,26.666667%);fill-opacity:1;" d="M 16 27.199219 L 15.800781 27.101562 C 8.398438 23.300781 6.898438 13.101562 6.601562 8.800781 L 6.601562 8.398438 L 7 8.398438 C 10.101562 7.898438 13.101562 6.800781 15.800781 5.101562 L 16 5 L 16.199219 5.101562 C 18.898438 6.699219 21.898438 7.898438 25.101562 8.398438 L 25.5 8.5 L 25.5 8.898438 C 25.199219 13.101562 23.699219 23.398438 16.300781 27.199219 Z M 7.398438 9.101562 C 7.699219 12.699219 9.101562 22.699219 16 26.300781 C 22.898438 22.699219 24.300781 12.601562 24.601562 9.101562 C 21.601562 8.5 18.699219 7.5 16 5.898438 C 13.398438 7.398438 10.5 8.5 7.398438 9.101562 Z M 7.398438 9.101562 "/>
<path style=" stroke:none;fill-rule:nonzero;fill:rgb(83.529412%,67.45098%,26.666667%);fill-opacity:1;" d="M 19.5 18.800781 L 12.601562 18.800781 C 12.398438 18.800781 12.199219 18.601562 12.199219 18.398438 L 12.199219 12.398438 C 12.199219 12.199219 12.398438 12 12.601562 12 L 19.5 12 C 19.699219 12 19.898438 12.199219 19.898438 12.398438 L 19.898438 18.398438 C 19.898438 18.699219 19.699219 18.800781 19.5 18.800781 Z M 12.898438 18.101562 L 19.101562 18.101562 L 19.101562 12.800781 L 12.898438 12.800781 Z M 12.898438 18.101562 "/>
<path style=" stroke:none;fill-rule:nonzero;fill:rgb(83.529412%,67.45098%,26.666667%);fill-opacity:1;" d="M 20.398438 12.800781 L 11.601562 12.800781 C 11.398438 12.800781 11.300781 12.699219 11.199219 12.601562 C 11.101562 12.398438 11.199219 12.300781 11.300781 12.199219 L 15.699219 8.5 C 15.800781 8.398438 16.101562 8.398438 16.199219 8.5 L 20.601562 12.199219 C 20.699219 12.300781 20.800781 12.5 20.699219 12.601562 C 20.699219 12.699219 20.601562 12.800781 20.398438 12.800781 Z M 12.601562 12 L 19.300781 12 L 16 9.199219 Z M 12.601562 12 "/>
<path style=" stroke:none;fill-rule:nonzero;fill:rgb(83.529412%,67.45098%,26.666667%);fill-opacity:1;" d="M 16.898438 18.800781 L 15.101562 18.800781 C 14.898438 18.800781 14.699219 18.601562 14.699219 18.398438 L 14.699219 15.398438 C 14.699219 15.199219 14.898438 15 15.101562 15 L 16.898438 15 C 17.101562 15 17.300781 15.199219 17.300781 15.398438 L 17.300781 18.398438 C 17.300781 18.699219 17.101562 18.800781 16.898438 18.800781 Z M 15.5 18.101562 L 16.5 18.101562 L 16.5 15.898438 L 15.5 15.898438 Z M 15.5 18.101562 "/>
<path style=" stroke:none;fill-rule:nonzero;fill:rgb(83.529412%,67.45098%,26.666667%);fill-opacity:1;" d="M 20.601562 18.800781 L 11.5 18.800781 C 11.300781 18.800781 11.101562 18.601562 11.101562 18.398438 C 11.101562 18.199219 11.300781 18 11.5 18 L 20.601562 18 C 20.800781 18 21 18.199219 21 18.398438 C 21 18.699219 20.800781 18.800781 20.601562 18.800781 Z M 20.601562 18.800781 "/>
<path style=" stroke:none;fill-rule:nonzero;fill:rgb(83.529412%,67.45098%,26.666667%);fill-opacity:1;" d="M 19.300781 20.601562 L 12.699219 20.601562 C 12.5 20.601562 12.300781 20.398438 12.300781 20.199219 C 12.300781 20 12.5 19.800781 12.699219 19.800781 L 19.300781 19.800781 C 19.5 19.800781 19.699219 20 19.699219 20.199219 C 19.699219 20.5 19.5 20.601562 19.300781 20.601562 Z M 19.300781 20.601562 "/>
</g>
</svg>
