<?xml version="1.0" encoding="UTF-8"?>
<svg xmlns="http://www.w3.org/2000/svg" xmlns:xlink="http://www.w3.org/1999/xlink" width="32px" height="32px" viewBox="0 0 32 32" version="1.1">
<g id="surface1">
<path style=" stroke:none;fill-rule:nonzero;fill:rgb(83.529412%,67.45098%,26.666667%);fill-opacity:1;" d="M 10.199219 16.199219 C 10.101562 16.199219 10 16.199219 9.898438 16.101562 C 8.699219 14.601562 9 12.398438 10.5 11.300781 C 12 10.199219 14.199219 10.398438 15.300781 11.898438 C 16.300781 13.101562 16.300781 14.898438 15.300781 16.199219 C 15.199219 16.398438 15 16.398438 14.800781 16.300781 C 14.601562 16.199219 14.601562 16 14.699219 15.800781 C 15.601562 14.601562 15.398438 12.898438 14.199219 12 C 13 11.101562 11.300781 11.300781 10.398438 12.5 C 9.601562 13.5 9.601562 14.898438 10.398438 15.898438 C 10.5 16.101562 10.5 16.300781 10.300781 16.398438 C 10.398438 16.199219 10.300781 16.300781 10.199219 16.199219 Z M 10.199219 16.199219 "/>
<path style=" stroke:none;fill-rule:nonzero;fill:rgb(83.529412%,67.45098%,26.666667%);fill-opacity:1;" d="M 21 14.699219 C 20 14.601562 19.199219 13.699219 19.300781 12.699219 C 19.398438 11.800781 20.101562 11 21 11 C 21.398438 11 21.800781 11.101562 22.101562 11.398438 C 22.199219 11.5 22.199219 11.601562 22.101562 11.601562 C 22 11.699219 21.898438 11.699219 21.898438 11.601562 C 21.601562 11.398438 21.300781 11.300781 21 11.300781 C 20.199219 11.300781 19.5 12 19.5 12.800781 C 19.5 13.601562 20.199219 14.300781 21 14.300781 C 21.300781 14.300781 21.699219 14.199219 21.898438 14 C 22 14 22.101562 14 22.101562 14.101562 C 22.101562 14.199219 22.101562 14.300781 22.101562 14.300781 C 21.800781 14.601562 21.398438 14.699219 21 14.699219 Z M 21 14.699219 "/>
<path style=" stroke:none;fill-rule:nonzero;fill:rgb(83.529412%,67.45098%,26.666667%);fill-opacity:1;" d="M 21 14.800781 C 19.898438 15 18.898438 14.300781 18.699219 13.199219 C 18.5 12.101562 19.199219 11.101562 20.300781 10.898438 C 20.5 10.898438 20.800781 10.898438 21 10.898438 C 21.398438 10.898438 21.898438 11 22.199219 11.300781 C 22.300781 11.300781 22.300781 11.398438 22.300781 11.5 C 22.300781 11.601562 22.300781 11.699219 22.199219 11.699219 C 22.199219 11.800781 22.101562 11.800781 22 11.800781 C 21.898438 11.800781 21.898438 11.800781 21.800781 11.699219 C 21.601562 11.5 21.300781 11.398438 20.898438 11.398438 C 20.101562 11.398438 19.5 12 19.5 12.800781 C 19.5 13.601562 20.101562 14.199219 20.898438 14.199219 C 21.199219 14.199219 21.5 14.101562 21.800781 13.898438 C 21.898438 13.800781 22.101562 13.800781 22.199219 13.898438 C 22.300781 14 22.300781 14.199219 22.199219 14.300781 C 21.898438 14.699219 21.398438 14.800781 21 14.800781 Z M 21 11.101562 C 20 11.101562 19.199219 11.898438 19.199219 12.898438 C 19.199219 13.898438 20 14.699219 21 14.699219 C 21.398438 14.699219 21.800781 14.601562 22.101562 14.300781 C 22.101562 14.300781 22.101562 14.199219 22.101562 14.199219 C 22.101562 14.199219 22 14.199219 22 14.199219 C 21.699219 14.398438 21.398438 14.5 21 14.5 C 20.101562 14.5 19.398438 13.800781 19.398438 12.898438 C 19.398438 12 20.101562 11.300781 21 11.300781 C 21.398438 11.300781 21.699219 11.398438 22 11.601562 C 22 11.601562 22 11.601562 22.101562 11.601562 C 22.101562 11.601562 22.101562 11.601562 22.101562 11.5 C 21.800781 11.300781 21.398438 11.101562 21 11.101562 Z M 21 11.101562 "/>
<path style=" stroke:none;fill-rule:nonzero;fill:rgb(83.529412%,67.45098%,26.666667%);fill-opacity:1;" d="M 20.800781 12.300781 L 18.898438 12.300781 C 18.800781 12.300781 18.699219 12.199219 18.699219 12.101562 C 18.699219 12 18.800781 11.898438 18.898438 11.898438 L 20.800781 11.898438 C 20.898438 11.898438 21 12 21 12.101562 C 21 12.300781 20.898438 12.300781 20.800781 12.300781 Z M 20.800781 12.300781 "/>
<path style=" stroke:none;fill-rule:nonzero;fill:rgb(83.529412%,67.45098%,26.666667%);fill-opacity:1;" d="M 20.800781 12.398438 L 18.898438 12.398438 C 18.699219 12.398438 18.601562 12.300781 18.601562 12.101562 C 18.601562 11.898438 18.699219 11.800781 18.898438 11.800781 L 20.800781 11.800781 C 21 11.800781 21.101562 11.898438 21.101562 12.101562 C 21.101562 12.300781 20.898438 12.398438 20.800781 12.398438 Z M 18.898438 12.101562 C 18.800781 12.199219 18.898438 12.300781 18.898438 12.300781 L 20.800781 12.300781 C 20.800781 12.300781 20.898438 12.300781 20.898438 12.199219 C 20.898438 12.199219 20.898438 12.101562 20.800781 12.101562 Z M 18.898438 12.101562 "/>
<path style=" stroke:none;fill-rule:nonzero;fill:rgb(83.529412%,67.45098%,26.666667%);fill-opacity:1;" d="M 20.800781 13.699219 L 18.898438 13.699219 C 18.800781 13.699219 18.699219 13.601562 18.699219 13.5 C 18.699219 13.398438 18.800781 13.300781 18.898438 13.300781 L 20.800781 13.300781 C 20.898438 13.300781 21 13.398438 21 13.5 C 21 13.699219 20.898438 13.699219 20.800781 13.699219 Z M 20.800781 13.699219 "/>
<path style=" stroke:none;fill-rule:nonzero;fill:rgb(83.529412%,67.45098%,26.666667%);fill-opacity:1;" d="M 20.800781 13.800781 L 18.898438 13.800781 C 18.699219 13.800781 18.601562 13.699219 18.601562 13.5 C 18.601562 13.300781 18.699219 13.199219 18.898438 13.199219 L 20.800781 13.199219 C 21 13.199219 21.101562 13.300781 21.101562 13.5 C 21.101562 13.699219 20.898438 13.800781 20.800781 13.800781 Z M 18.898438 13.5 C 18.800781 13.601562 18.898438 13.699219 18.898438 13.699219 L 20.800781 13.699219 C 20.800781 13.699219 20.898438 13.699219 20.898438 13.601562 C 20.898438 13.601562 20.898438 13.5 20.800781 13.5 Z M 18.898438 13.5 "/>
<path style=" stroke:none;fill-rule:nonzero;fill:rgb(83.529412%,67.45098%,26.666667%);fill-opacity:1;" d="M 19.5 16.199219 L 19.398438 16.199219 C 17.601562 15.5 16.699219 13.5 17.398438 11.800781 C 18.101562 10 20.101562 9.101562 21.800781 9.800781 C 23.601562 10.5 24.5 12.5 23.800781 14.199219 C 23.398438 15.101562 22.699219 15.898438 21.800781 16.199219 C 21.601562 16.300781 21.398438 16.199219 21.300781 16 C 21.199219 15.800781 21.300781 15.601562 21.5 15.5 C 22.898438 15 23.601562 13.398438 23.101562 12 C 22.601562 10.601562 21 9.898438 19.601562 10.398438 C 18.199219 10.898438 17.5 12.5 18 13.898438 C 18.300781 14.601562 18.898438 15.199219 19.601562 15.5 C 19.800781 15.601562 19.898438 15.800781 19.800781 16 C 19.800781 16.101562 19.699219 16.199219 19.5 16.199219 Z M 19.5 16.199219 "/>
<path style=" stroke:none;fill-rule:nonzero;fill:rgb(83.529412%,67.45098%,26.666667%);fill-opacity:1;" d="M 16.101562 10.199219 C 14.199219 10.199219 12.601562 8.699219 12.601562 6.800781 C 12.601562 4.898438 14.101562 3.300781 16 3.300781 C 17.898438 3.300781 19.5 4.800781 19.5 6.699219 C 19.601562 8.699219 18 10.199219 16.101562 10.199219 Z M 16.101562 4.101562 C 14.601562 4.101562 13.398438 5.300781 13.398438 6.800781 C 13.398438 8.300781 14.601562 9.5 16.101562 9.5 C 17.601562 9.5 18.800781 8.300781 18.800781 6.800781 C 18.898438 5.300781 17.699219 4.101562 16.101562 4.101562 Z M 16.101562 4.101562 "/>
<path style=" stroke:none;fill-rule:nonzero;fill:rgb(83.529412%,67.45098%,26.666667%);fill-opacity:1;" d="M 21.5 26.601562 L 10.5 26.601562 C 9.101562 26.601562 7.898438 25.5 7.601562 24.101562 L 6.199219 16 C 6.199219 15.898438 6.199219 15.800781 6.300781 15.699219 C 6.398438 15.601562 6.5 15.601562 6.601562 15.601562 L 25.398438 15.601562 C 25.5 15.601562 25.601562 15.601562 25.699219 15.699219 C 25.800781 15.800781 25.800781 15.898438 25.800781 16 L 24.398438 24.199219 C 24.101562 25.601562 22.898438 26.601562 21.5 26.601562 Z M 7 16.199219 L 8.300781 24 C 8.5 25.101562 9.398438 25.898438 10.5 25.898438 L 21.5 25.898438 C 22.601562 25.898438 23.5 25.101562 23.699219 24 L 25 16.199219 Z M 7 16.199219 "/>
<path style=" stroke:none;fill-rule:nonzero;fill:rgb(83.529412%,67.45098%,26.666667%);fill-opacity:1;" d="M 24 16.199219 L 8 16.199219 C 7.800781 16.199219 7.601562 16 7.601562 15.800781 L 7.601562 13.101562 C 7.601562 10.300781 9 7.601562 11.398438 6.101562 C 11.601562 6 11.800781 6 11.898438 6.199219 C 12 6.398438 12 6.601562 11.800781 6.800781 C 9.601562 8.199219 8.300781 10.601562 8.300781 13.199219 L 8.300781 15.601562 L 24 15.601562 C 24.199219 15.601562 24.398438 15.800781 24.398438 16 C 24.398438 16.101562 24.199219 16.199219 24 16.199219 Z M 24 16.199219 "/>
<path style=" stroke:none;fill-rule:nonzero;fill:rgb(83.529412%,67.45098%,26.666667%);fill-opacity:1;" d="M 22.898438 9.5 C 22.800781 9.5 22.699219 9.398438 22.601562 9.300781 C 22 8.300781 21.199219 7.398438 20.199219 6.699219 C 20 6.601562 20 6.398438 20.101562 6.300781 C 20.199219 6.101562 20.398438 6.101562 20.601562 6.199219 C 21.699219 6.898438 22.601562 7.898438 23.300781 9 C 23.398438 9.199219 23.300781 9.398438 23.199219 9.5 C 23.101562 9.5 23 9.5 22.898438 9.5 Z M 22.898438 9.5 "/>
<path style=" stroke:none;fill-rule:nonzero;fill:rgb(83.529412%,67.45098%,26.666667%);fill-opacity:1;" d="M 19 23.699219 C 18.898438 23.699219 18.800781 23.699219 18.800781 23.601562 C 18.699219 23.5 18.699219 23.199219 18.800781 23.101562 L 23.199219 18.199219 C 23.300781 18.101562 23.601562 18.101562 23.699219 18.199219 C 23.800781 18.300781 23.800781 18.601562 23.699219 18.699219 L 19.300781 23.601562 C 19.199219 23.601562 19.101562 23.699219 19 23.699219 Z M 19 23.699219 "/>
<path style=" stroke:none;fill-rule:nonzero;fill:rgb(83.529412%,67.45098%,26.666667%);fill-opacity:1;" d="M 14.699219 23.699219 C 14.601562 23.699219 14.5 23.699219 14.5 23.601562 C 14.398438 23.5 14.398438 23.199219 14.5 23.101562 L 18.898438 18.199219 C 19 18.101562 19.300781 18.101562 19.398438 18.199219 C 19.5 18.300781 19.5 18.601562 19.398438 18.699219 L 15 23.601562 C 14.898438 23.601562 14.800781 23.699219 14.699219 23.699219 Z M 14.699219 23.699219 "/>
<path style=" stroke:none;fill-rule:nonzero;fill:rgb(83.529412%,67.45098%,26.666667%);fill-opacity:1;" d="M 10.5 23.699219 C 10.398438 23.699219 10.300781 23.699219 10.300781 23.601562 C 10.199219 23.5 10.199219 23.199219 10.300781 23.101562 L 14.699219 18.199219 C 14.800781 18.101562 15.101562 18.101562 15.199219 18.199219 C 15.300781 18.300781 15.300781 18.601562 15.199219 18.699219 L 10.800781 23.601562 C 10.699219 23.601562 10.601562 23.699219 10.5 23.699219 Z M 10.5 23.699219 "/>
<path style=" stroke:none;fill-rule:nonzero;fill:rgb(83.529412%,67.45098%,26.666667%);fill-opacity:1;" d="M 12.898438 23.699219 C 12.800781 23.699219 12.699219 23.699219 12.601562 23.601562 L 8.199219 18.699219 C 8.101562 18.601562 8.101562 18.300781 8.199219 18.199219 C 8.300781 18.101562 8.601562 18.101562 8.699219 18.199219 L 13.101562 23.101562 C 13.199219 23.199219 13.199219 23.5 13.101562 23.601562 C 13.101562 23.699219 13 23.699219 12.898438 23.699219 Z M 12.898438 23.699219 "/>
<path style=" stroke:none;fill-rule:nonzero;fill:rgb(83.529412%,67.45098%,26.666667%);fill-opacity:1;" d="M 17.101562 23.699219 C 17 23.699219 16.898438 23.699219 16.800781 23.601562 L 12.398438 18.699219 C 12.300781 18.601562 12.300781 18.300781 12.398438 18.199219 C 12.5 18.101562 12.800781 18.101562 12.898438 18.199219 L 17.300781 23.101562 C 17.398438 23.199219 17.398438 23.5 17.300781 23.601562 C 17.300781 23.699219 17.199219 23.699219 17.101562 23.699219 Z M 17.101562 23.699219 "/>
<path style=" stroke:none;fill-rule:nonzero;fill:rgb(83.529412%,67.45098%,26.666667%);fill-opacity:1;" d="M 21.398438 23.699219 C 21.300781 23.699219 21.199219 23.699219 21.101562 23.601562 L 16.699219 18.699219 C 16.601562 18.601562 16.601562 18.300781 16.699219 18.199219 C 16.800781 18.101562 17.101562 18.101562 17.199219 18.199219 L 21.601562 23.101562 C 21.699219 23.199219 21.699219 23.5 21.601562 23.601562 C 21.5 23.601562 21.5 23.699219 21.398438 23.699219 Z M 21.398438 23.699219 "/>
<path style=" stroke:none;fill-rule:nonzero;fill:rgb(83.529412%,67.45098%,26.666667%);fill-opacity:1;" d="M 25.898438 26.601562 L 6.101562 26.601562 C 5.898438 26.601562 5.699219 26.398438 5.699219 26.199219 C 5.699219 26 5.898438 25.800781 6.101562 25.800781 L 25.898438 25.800781 C 26.101562 25.800781 26.300781 26 26.300781 26.199219 C 26.300781 26.5 26.101562 26.601562 25.898438 26.601562 Z M 25.898438 26.601562 "/>
<path style=" stroke:none;fill-rule:nonzero;fill:rgb(83.529412%,67.45098%,26.666667%);fill-opacity:1;" d="M 16.300781 8.800781 C 15.300781 8.800781 14.398438 8 14.398438 6.898438 C 14.398438 5.800781 15.199219 5 16.300781 5 C 16.699219 5 17.101562 5.101562 17.5 5.398438 C 17.601562 5.5 17.601562 5.601562 17.5 5.699219 C 17.398438 5.800781 17.300781 5.800781 17.300781 5.699219 C 17 5.5 16.699219 5.398438 16.398438 5.398438 C 15.601562 5.5 15 6.300781 15.101562 7.101562 C 15.199219 7.699219 15.699219 8.199219 16.398438 8.398438 C 16.699219 8.398438 17.101562 8.300781 17.300781 8.101562 C 17.398438 8 17.5 8 17.601562 8.101562 C 17.699219 8.199219 17.699219 8.300781 17.601562 8.300781 C 17.101562 8.601562 16.699219 8.800781 16.300781 8.800781 Z M 16.300781 8.800781 "/>
<path style=" stroke:none;fill-rule:nonzero;fill:rgb(83.529412%,67.45098%,26.666667%);fill-opacity:1;" d="M 16.300781 8.898438 C 15.199219 8.898438 14.300781 8.101562 14.199219 7 C 14.101562 5.898438 15 5 16.101562 4.898438 C 16.601562 4.898438 17.101562 5 17.398438 5.398438 C 17.5 5.398438 17.5 5.5 17.5 5.601562 C 17.5 5.699219 17.5 5.699219 17.5 5.800781 C 17.5 5.898438 17.398438 5.898438 17.300781 5.898438 C 17.199219 5.898438 17.101562 5.898438 17.101562 5.800781 C 16.5 5.300781 15.601562 5.398438 15.101562 6 C 14.601562 6.601562 14.699219 7.5 15.300781 8 C 15.601562 8.199219 15.898438 8.300781 16.199219 8.300781 C 16.5 8.300781 16.800781 8.199219 17.101562 8 C 17.199219 7.898438 17.398438 7.898438 17.5 8 C 17.601562 8.101562 17.601562 8.300781 17.5 8.398438 C 17.199219 8.699219 16.699219 8.898438 16.300781 8.898438 Z M 16.300781 5.199219 C 15.300781 5.101562 14.5 5.898438 14.398438 6.800781 C 14.300781 7.800781 15.101562 8.601562 16 8.699219 C 16.101562 8.699219 16.199219 8.699219 16.300781 8.699219 C 16.699219 8.699219 17.101562 8.601562 17.398438 8.300781 C 17.398438 8.300781 17.398438 8.199219 17.398438 8.199219 C 17.398438 8.199219 17.300781 8.199219 17.300781 8.199219 C 17 8.398438 16.699219 8.601562 16.300781 8.601562 C 15.398438 8.601562 14.699219 7.898438 14.699219 7 C 14.699219 6.101562 15.398438 5.398438 16.300781 5.398438 C 16.699219 5.398438 17 5.5 17.300781 5.699219 C 17.300781 5.699219 17.300781 5.699219 17.300781 5.601562 C 17 5.398438 16.699219 5.199219 16.300781 5.199219 Z M 16.300781 5.199219 "/>
<path style=" stroke:none;fill-rule:nonzero;fill:rgb(83.529412%,67.45098%,26.666667%);fill-opacity:1;" d="M 16.101562 6.398438 L 14.300781 6.398438 C 14.199219 6.398438 14.101562 6.300781 14.101562 6.199219 C 14.101562 6.101562 14.199219 6 14.300781 6 L 16.101562 6 C 16.199219 6 16.300781 6.101562 16.300781 6.199219 C 16.300781 6.300781 16.199219 6.398438 16.101562 6.398438 Z M 16.101562 6.398438 "/>
<path style=" stroke:none;fill-rule:nonzero;fill:rgb(83.529412%,67.45098%,26.666667%);fill-opacity:1;" d="M 16.101562 6.5 L 14.300781 6.5 C 14.101562 6.5 14 6.398438 14 6.300781 C 13.898438 6.101562 14 6 14.101562 6 C 14.101562 6 14.199219 6 14.199219 6 L 16 6 C 16.199219 6 16.300781 6.199219 16.199219 6.300781 C 16.300781 6.398438 16.199219 6.5 16.101562 6.5 Z M 14.199219 6.199219 C 14.101562 6.300781 14.101562 6.300781 14.199219 6.398438 L 16 6.398438 C 16 6.398438 16.101562 6.398438 16.101562 6.300781 C 16.101562 6.300781 16.101562 6.199219 16 6.199219 Z M 14.199219 6.199219 "/>
<path style=" stroke:none;fill-rule:nonzero;fill:rgb(83.529412%,67.45098%,26.666667%);fill-opacity:1;" d="M 16.101562 7.800781 L 14.300781 7.800781 C 14.199219 7.800781 14.101562 7.699219 14.101562 7.601562 C 14.101562 7.5 14.199219 7.398438 14.300781 7.398438 L 16.101562 7.398438 C 16.199219 7.398438 16.300781 7.5 16.300781 7.601562 C 16.300781 7.699219 16.199219 7.800781 16.101562 7.800781 Z M 16.101562 7.800781 "/>
<path style=" stroke:none;fill-rule:nonzero;fill:rgb(83.529412%,67.45098%,26.666667%);fill-opacity:1;" d="M 16.101562 7.898438 L 14.300781 7.898438 C 14.101562 7.898438 14 7.800781 14 7.699219 C 14 7.5 14.101562 7.398438 14.199219 7.398438 C 14.199219 7.398438 14.300781 7.398438 14.300781 7.398438 L 16.101562 7.398438 C 16.300781 7.398438 16.398438 7.601562 16.300781 7.699219 C 16.300781 7.800781 16.199219 7.898438 16.101562 7.898438 Z M 14.199219 7.601562 C 14.101562 7.699219 14.199219 7.800781 14.199219 7.800781 L 16 7.800781 C 16 7.800781 16.101562 7.800781 16.101562 7.699219 C 16.101562 7.699219 16.101562 7.601562 16 7.601562 Z M 14.199219 7.601562 "/>
<path style=" stroke:none;fill-rule:nonzero;fill:rgb(83.529412%,67.45098%,26.666667%);fill-opacity:1;" d="M 12.800781 16 C 11.800781 16 10.898438 15.199219 10.898438 14.101562 C 10.898438 13.101562 11.699219 12.199219 12.800781 12.199219 C 13.199219 12.199219 13.601562 12.300781 13.898438 12.601562 C 14 12.699219 14 12.800781 13.898438 12.898438 C 13.800781 13 13.699219 13 13.699219 12.898438 C 13.398438 12.699219 13.101562 12.601562 12.800781 12.601562 C 12 12.601562 11.300781 13.300781 11.300781 14.101562 C 11.300781 14.898438 12 15.601562 12.800781 15.601562 C 13.101562 15.601562 13.5 15.5 13.699219 15.300781 C 13.800781 15.300781 13.898438 15.300781 13.898438 15.398438 C 13.898438 15.5 13.898438 15.601562 13.898438 15.601562 C 13.601562 15.800781 13.199219 16 12.800781 16 Z M 12.800781 16 "/>
<path style=" stroke:none;fill-rule:nonzero;fill:rgb(83.529412%,67.45098%,26.666667%);fill-opacity:1;" d="M 12.800781 16.101562 C 11.699219 16.101562 10.800781 15.199219 10.800781 14.101562 C 10.800781 13 11.699219 12.101562 12.800781 12.101562 C 13.300781 12.101562 13.699219 12.300781 14.101562 12.601562 C 14.199219 12.601562 14.199219 12.699219 14.199219 12.800781 C 14.199219 12.898438 14.199219 13 14.101562 13 C 14.101562 13.101562 14 13.101562 13.898438 13.101562 C 13.800781 13.101562 13.699219 13.101562 13.699219 13 C 13.5 12.800781 13.199219 12.699219 12.800781 12.699219 C 12 12.800781 11.398438 13.398438 11.5 14.199219 C 11.601562 14.898438 12.101562 15.398438 12.800781 15.5 C 13.101562 15.5 13.398438 15.398438 13.699219 15.199219 C 13.800781 15.101562 14 15.101562 14.101562 15.199219 C 14.199219 15.300781 14.199219 15.5 14.101562 15.601562 C 13.699219 15.898438 13.199219 16.101562 12.800781 16.101562 Z M 12.800781 12.300781 C 11.800781 12.300781 11 13.101562 11 14.101562 C 11 15.101562 11.800781 15.898438 12.800781 15.898438 C 13.199219 15.898438 13.601562 15.800781 13.898438 15.5 C 13.898438 15.5 13.898438 15.398438 13.898438 15.398438 C 13.898438 15.398438 13.800781 15.398438 13.800781 15.398438 C 13.5 15.601562 13.199219 15.800781 12.800781 15.800781 C 11.898438 15.800781 11.199219 15.101562 11.199219 14.199219 C 11.199219 13.300781 11.898438 12.601562 12.800781 12.601562 C 13.199219 12.601562 13.5 12.699219 13.800781 12.898438 L 13.898438 12.898438 M 13.800781 12.800781 C 13.800781 12.800781 13.800781 12.699219 13.800781 12.800781 C 13.5 12.5 13.101562 12.398438 12.699219 12.398438 Z M 13.800781 12.800781 "/>
<path style=" stroke:none;fill-rule:nonzero;fill:rgb(83.529412%,67.45098%,26.666667%);fill-opacity:1;" d="M 12.601562 13.601562 L 10.800781 13.601562 C 10.699219 13.601562 10.601562 13.5 10.601562 13.398438 C 10.601562 13.300781 10.699219 13.199219 10.800781 13.199219 L 12.601562 13.199219 C 12.699219 13.199219 12.800781 13.300781 12.800781 13.398438 C 12.800781 13.5 12.699219 13.601562 12.601562 13.601562 Z M 12.601562 13.601562 "/>
<path style=" stroke:none;fill-rule:nonzero;fill:rgb(83.529412%,67.45098%,26.666667%);fill-opacity:1;" d="M 12.601562 13.699219 L 10.800781 13.699219 C 10.699219 13.699219 10.5 13.601562 10.5 13.398438 C 10.5 13.199219 10.601562 13.101562 10.800781 13.101562 L 12.601562 13.101562 C 12.800781 13.101562 12.898438 13.199219 12.898438 13.398438 C 12.898438 13.5 12.699219 13.699219 12.601562 13.699219 Z M 10.699219 13.300781 C 10.699219 13.300781 10.601562 13.300781 10.699219 13.300781 C 10.601562 13.398438 10.699219 13.5 10.699219 13.5 L 12.5 13.5 C 12.5 13.5 12.601562 13.5 12.601562 13.398438 C 12.601562 13.398438 12.601562 13.300781 12.5 13.300781 Z M 10.699219 13.300781 "/>
<path style=" stroke:none;fill-rule:nonzero;fill:rgb(83.529412%,67.45098%,26.666667%);fill-opacity:1;" d="M 12.601562 15 L 10.800781 15 C 10.699219 15 10.601562 14.898438 10.601562 14.800781 C 10.601562 14.699219 10.699219 14.601562 10.800781 14.601562 L 12.601562 14.601562 C 12.699219 14.601562 12.800781 14.699219 12.800781 14.800781 C 12.699219 14.898438 12.699219 15 12.601562 15 Z M 12.601562 15 "/>
<path style=" stroke:none;fill-rule:nonzero;fill:rgb(83.529412%,67.45098%,26.666667%);fill-opacity:1;" d="M 12.601562 15.101562 L 10.800781 15.101562 C 10.601562 15.101562 10.5 14.898438 10.601562 14.800781 C 10.601562 14.699219 10.699219 14.601562 10.800781 14.601562 L 12.601562 14.601562 C 12.800781 14.601562 12.898438 14.699219 12.898438 14.800781 C 12.898438 15 12.800781 15.101562 12.699219 15.101562 C 12.601562 15.101562 12.601562 15.101562 12.601562 15.101562 Z M 10.699219 14.699219 C 10.699219 14.699219 10.601562 14.800781 10.699219 14.699219 C 10.601562 14.800781 10.699219 14.898438 10.699219 14.800781 L 12.5 14.800781 C 12.5 14.800781 12.601562 14.800781 12.601562 14.699219 C 12.601562 14.699219 12.601562 14.601562 12.5 14.601562 L 10.699219 14.601562 Z M 10.699219 14.699219 "/>
</g>
</svg>
