<?xml version="1.0" encoding="UTF-8"?>
<svg xmlns="http://www.w3.org/2000/svg" xmlns:xlink="http://www.w3.org/1999/xlink" width="32px" height="32px" viewBox="0 0 32 32" version="1.1">
<g id="surface1">
<path style=" stroke:none;fill-rule:nonzero;fill:rgb(83.529412%,67.45098%,26.666667%);fill-opacity:1;" d="M 23.101562 24.398438 C 21.5 24.398438 20.300781 23.101562 20.300781 21.601562 C 20.300781 20 21.601562 18.800781 23.101562 18.800781 C 24.699219 18.800781 25.898438 20.101562 25.898438 21.601562 C 25.898438 23.101562 24.601562 24.398438 23.101562 24.398438 Z M 23.101562 19.5 C 22 19.5 21.101562 20.398438 21.101562 21.5 C 21.101562 22.601562 22 23.5 23.101562 23.5 C 24.199219 23.5 25.101562 22.601562 25.101562 21.5 C 25.101562 20.398438 24.199219 19.5 23.101562 19.5 Z M 23.101562 19.5 "/>
<path style=" stroke:none;fill-rule:nonzero;fill:rgb(83.529412%,67.45098%,26.666667%);fill-opacity:1;" d="M 9.101562 24.398438 C 7.5 24.398438 6.300781 23.101562 6.300781 21.601562 C 6.300781 20.101562 7.601562 18.800781 9.101562 18.800781 C 10.699219 18.800781 11.898438 20.101562 11.898438 21.601562 C 11.898438 23.101562 10.601562 24.398438 9.101562 24.398438 Z M 9.101562 19.5 C 8 19.5 7.101562 20.398438 7.101562 21.5 C 7.101562 22.601562 8 23.5 9.101562 23.5 C 10.199219 23.5 11.101562 22.601562 11.101562 21.5 C 11.101562 20.398438 10.199219 19.5 9.101562 19.5 Z M 9.101562 19.5 "/>
<path style=" stroke:none;fill-rule:nonzero;fill:rgb(83.529412%,67.45098%,26.666667%);fill-opacity:1;" d="M 14.699219 16.800781 C 11.5 16.800781 8.898438 14.199219 8.898438 11 C 8.898438 7.800781 11.5 5.199219 14.699219 5.199219 C 17.898438 5.199219 20.5 7.800781 20.5 11 C 20.5 14.199219 17.898438 16.800781 14.699219 16.800781 Z M 14.699219 6 C 11.898438 6 9.699219 8.199219 9.699219 11 C 9.699219 13.800781 11.898438 16 14.699219 16 C 17.5 16 19.699219 13.800781 19.699219 11 C 19.699219 8.199219 17.5 6 14.699219 6 Z M 14.699219 6 "/>
<path style=" stroke:none;fill-rule:nonzero;fill:rgb(83.529412%,67.45098%,26.666667%);fill-opacity:1;" d="M 29 22 L 25.5 22 C 25.300781 22 25.101562 21.800781 25.101562 21.601562 C 25.101562 20.5 24.199219 19.601562 23.101562 19.601562 C 22 19.601562 21.101562 20.5 21.101562 21.601562 C 21.101562 21.800781 20.898438 22 20.699219 22 L 11.5 22 C 11.300781 22 11.101562 21.800781 11.101562 21.601562 C 11.101562 20.5 10.199219 19.601562 9.101562 19.601562 C 8 19.601562 7.101562 20.5 7.101562 21.601562 C 7.101562 21.800781 6.898438 22 6.699219 22 L 3.699219 22 C 3.601562 22 3.5 22 3.398438 21.898438 C 3.300781 21.800781 3.300781 21.699219 3.300781 21.601562 C 3.601562 18.300781 5.300781 14 9.398438 12.101562 C 9.5 12 9.601562 12 9.699219 12.101562 C 9.800781 12.199219 9.898438 12.199219 9.898438 12.398438 C 10.601562 15.101562 13.300781 16.699219 16 16 C 17.699219 15.601562 19 14.300781 19.5 12.601562 C 19.5 12.5 19.601562 12.398438 19.699219 12.398438 C 19.800781 12.300781 19.898438 12.300781 20 12.398438 C 21.101562 12.898438 22.199219 13.601562 23.199219 14.300781 C 24 14.898438 24.898438 15.398438 25.898438 15.699219 C 27.898438 16.199219 29.199219 17.898438 29.199219 19.898438 L 29.199219 21.699219 C 29.398438 21.800781 29.199219 22 29 22 Z M 25.898438 21.199219 L 28.601562 21.199219 L 28.601562 19.800781 C 28.601562 18.199219 27.5 16.699219 25.898438 16.300781 C 24.800781 16 23.699219 15.5 22.800781 14.699219 C 22 14 21.101562 13.5 20.199219 13 C 19.101562 16 15.699219 17.5 12.699219 16.398438 C 11.101562 15.800781 9.800781 14.5 9.199219 12.898438 C 6.199219 14.601562 4.300781 17.699219 4 21 L 6.300781 21 C 6.5 19.5 8 18.398438 9.5 18.601562 C 10.699219 18.800781 11.699219 19.800781 11.898438 21 L 20.300781 21 C 20.5 19.5 22 18.398438 23.5 18.601562 C 24.699219 18.898438 25.699219 19.898438 25.898438 21.199219 Z M 25.898438 21.199219 "/>
<path style=" stroke:none;fill-rule:nonzero;fill:rgb(83.529412%,67.45098%,26.666667%);fill-opacity:1;" d="M 20.101562 18.398438 L 4.398438 18.398438 C 4.199219 18.398438 4 18.199219 4 18 C 4 17.800781 4.199219 17.601562 4.398438 17.601562 L 20.101562 17.601562 C 20.300781 17.601562 20.5 17.800781 20.5 18 C 20.5 18.199219 20.300781 18.398438 20.101562 18.398438 Z M 20.101562 18.398438 "/>
<path style=" stroke:none;fill-rule:nonzero;fill:rgb(83.529412%,67.45098%,26.666667%);fill-opacity:1;" d="M 14.699219 13.800781 C 13 13.800781 11.699219 12.398438 11.699219 10.800781 C 11.699219 9.199219 13.101562 7.800781 14.699219 7.800781 C 15.300781 7.800781 16 8 16.5 8.398438 C 16.601562 8.5 16.601562 8.699219 16.5 8.800781 C 16.5 9 16.300781 9 16.199219 8.898438 C 15.101562 8.101562 13.601562 8.300781 12.800781 9.300781 C 12 10.398438 12.199219 11.898438 13.199219 12.699219 C 14.101562 13.398438 15.300781 13.398438 16.199219 12.699219 C 16.300781 12.601562 16.5 12.601562 16.601562 12.699219 C 16.699219 12.800781 16.699219 13 16.601562 13.101562 C 16.601562 13.101562 16.5 13.101562 16.5 13.199219 C 16 13.601562 15.398438 13.800781 14.699219 13.800781 Z M 14.699219 13.800781 "/>
<path style=" stroke:none;fill-rule:nonzero;fill:rgb(83.529412%,67.45098%,26.666667%);fill-opacity:1;" d="M 14.699219 13.898438 C 13 13.898438 11.601562 12.5 11.601562 10.800781 C 11.601562 9.101562 13 7.699219 14.699219 7.699219 C 15.398438 7.699219 16.101562 7.898438 16.601562 8.300781 C 16.800781 8.398438 16.800781 8.699219 16.699219 8.898438 C 16.601562 9.101562 16.300781 9.101562 16.101562 9 C 15.699219 8.699219 15.199219 8.5 14.699219 8.5 C 13.398438 8.601562 12.5 9.699219 12.5 11 C 12.601562 12.199219 13.5 13.101562 14.699219 13.199219 C 15.199219 13.199219 15.699219 13 16.101562 12.699219 C 16.300781 12.601562 16.5 12.601562 16.699219 12.699219 C 16.898438 12.800781 16.800781 13.101562 16.699219 13.300781 C 16.101562 13.699219 15.398438 13.898438 14.699219 13.898438 Z M 14.699219 7.898438 C 13.101562 7.898438 11.800781 9.199219 11.800781 10.800781 C 11.800781 12.398438 13.101562 13.699219 14.699219 13.699219 C 15.398438 13.699219 16 13.5 16.5 13.101562 C 16.601562 13 16.601562 12.898438 16.5 12.898438 C 16.398438 12.898438 16.300781 12.800781 16.300781 12.898438 C 15.800781 13.300781 15.300781 13.398438 14.699219 13.398438 C 13.300781 13.398438 12.199219 12.300781 12.199219 10.898438 C 12.199219 9.5 13.300781 8.398438 14.699219 8.398438 C 15.300781 8.398438 15.800781 8.601562 16.199219 8.898438 C 16.300781 9 16.398438 9 16.398438 8.898438 C 16.5 8.800781 16.5 8.699219 16.398438 8.699219 C 16 8.199219 15.398438 7.898438 14.699219 7.898438 Z M 14.699219 7.898438 "/>
<path style=" stroke:none;fill-rule:nonzero;fill:rgb(83.529412%,67.45098%,26.666667%);fill-opacity:1;" d="M 14.398438 10 L 11.398438 10 C 11.199219 10 11.101562 9.898438 11.101562 9.699219 C 11.101562 9.5 11.199219 9.398438 11.398438 9.398438 L 14.398438 9.398438 C 14.601562 9.398438 14.699219 9.5 14.699219 9.699219 C 14.699219 9.898438 14.601562 10 14.398438 10 Z M 14.398438 10 "/>
<path style=" stroke:none;fill-rule:nonzero;fill:rgb(83.529412%,67.45098%,26.666667%);fill-opacity:1;" d="M 14.398438 10.101562 L 11.398438 10.101562 C 11.199219 10.101562 11 9.898438 11 9.699219 C 11 9.5 11.199219 9.300781 11.398438 9.300781 L 14.398438 9.300781 C 14.601562 9.300781 14.800781 9.5 14.800781 9.699219 C 14.800781 9.898438 14.699219 10.101562 14.398438 10.101562 Z M 11.398438 9.5 C 11.300781 9.5 11.199219 9.601562 11.199219 9.699219 C 11.199219 9.800781 11.300781 9.898438 11.398438 9.898438 L 14.398438 9.898438 C 14.5 9.898438 14.601562 9.800781 14.601562 9.699219 C 14.601562 9.601562 14.5 9.5 14.398438 9.5 Z M 11.398438 9.5 "/>
<path style=" stroke:none;fill-rule:nonzero;fill:rgb(83.529412%,67.45098%,26.666667%);fill-opacity:1;" d="M 14.398438 12.199219 L 11.398438 12.199219 C 11.199219 12.199219 11.101562 12.101562 11.101562 11.898438 C 11.101562 11.699219 11.199219 11.601562 11.398438 11.601562 L 14.398438 11.601562 C 14.601562 11.601562 14.699219 11.699219 14.699219 11.898438 C 14.699219 12.101562 14.601562 12.199219 14.398438 12.199219 Z M 14.398438 12.199219 "/>
<path style=" stroke:none;fill-rule:nonzero;fill:rgb(83.529412%,67.45098%,26.666667%);fill-opacity:1;" d="M 14.398438 12.398438 L 11.398438 12.398438 C 11.199219 12.398438 11 12.199219 11 12 C 11 11.800781 11.199219 11.601562 11.398438 11.601562 L 14.398438 11.601562 C 14.601562 11.601562 14.800781 11.800781 14.800781 12 C 14.800781 12.199219 14.699219 12.398438 14.398438 12.398438 Z M 11.398438 11.800781 C 11.300781 11.800781 11.199219 11.898438 11.199219 12 C 11.199219 12.101562 11.300781 12.199219 11.398438 12.199219 L 14.398438 12.199219 C 14.5 12.199219 14.601562 12.101562 14.601562 12 C 14.601562 11.898438 14.5 11.800781 14.398438 11.800781 Z M 11.398438 11.800781 "/>
</g>
</svg>
