<?xml version="1.0" encoding="UTF-8"?>
<svg xmlns="http://www.w3.org/2000/svg" xmlns:xlink="http://www.w3.org/1999/xlink" width="32px" height="32px" viewBox="0 0 32 32" version="1.1">
<g id="surface1">
<path style=" stroke:none;fill-rule:nonzero;fill:rgb(83.529412%,67.45098%,26.666667%);fill-opacity:1;" d="M 16 26.300781 C 15.898438 26.300781 15.898438 26.300781 15.800781 26.300781 L 11.398438 24.101562 C 9.101562 23 7.601562 20.699219 7.601562 18.101562 L 7.601562 9.800781 C 7.601562 9.601562 7.800781 9.398438 8 9.398438 C 13.300781 8.800781 15.699219 6 15.699219 5.898438 C 15.800781 5.800781 15.898438 5.800781 16 5.800781 C 16.101562 5.800781 16.199219 5.898438 16.300781 6 C 16.300781 6 18.699219 8.898438 24 9.5 C 24.199219 9.5 24.398438 9.699219 24.398438 9.898438 L 24.398438 18.199219 C 24.398438 20.800781 22.898438 23.101562 20.601562 24.199219 L 16.101562 26.300781 C 16.101562 26.199219 16.101562 26.300781 16 26.300781 Z M 8.398438 10.101562 L 8.398438 18 C 8.398438 20.300781 9.699219 22.300781 11.699219 23.300781 L 16 25.300781 L 20.300781 23.300781 C 22.300781 22.300781 23.601562 20.300781 23.601562 18 L 23.601562 10.101562 C 20.800781 9.800781 18.101562 8.601562 16 6.699219 C 13.898438 8.699219 11.199219 9.898438 8.398438 10.101562 Z M 8.398438 10.101562 "/>
<path style=" stroke:none;fill-rule:nonzero;fill:rgb(83.529412%,67.45098%,26.666667%);fill-opacity:1;" d="M 16 29.199219 C 15.898438 29.199219 15.898438 29.199219 15.800781 29.199219 L 10 26.398438 C 7 25 5.199219 22 5.101562 18.699219 L 5.101562 7.898438 C 5.101562 7.699219 5.300781 7.5 5.5 7.5 C 12.5 6.800781 15.601562 3 15.699219 3 C 15.800781 2.800781 16.101562 2.800781 16.300781 2.898438 C 16.300781 2.898438 16.398438 2.898438 16.398438 3 C 16.398438 3 19.601562 6.800781 26.5 7.5 C 26.699219 7.5 26.898438 7.699219 26.898438 7.898438 L 26.898438 18.699219 C 26.898438 22 25 25 22.101562 26.398438 L 16.300781 29.199219 C 16.199219 29.199219 16.101562 29.199219 16 29.199219 Z M 6 8.300781 L 6 18.699219 C 6 21.699219 7.699219 24.398438 10.398438 25.699219 L 16 28.300781 L 21.601562 25.601562 C 24.300781 24.300781 26 21.601562 26 18.699219 L 26 8.300781 C 22.300781 8 18.699219 6.398438 16 3.800781 C 13.300781 6.398438 9.699219 8 6 8.300781 Z M 6 8.300781 "/>
<path style=" stroke:none;fill-rule:nonzero;fill:rgb(83.529412%,67.45098%,26.666667%);fill-opacity:1;" d="M 13.5 21.601562 C 13.300781 21.601562 13.101562 21.398438 13.101562 21.199219 L 13.101562 18.199219 C 13.101562 18 13.398438 17.800781 13.601562 17.800781 C 13.800781 17.800781 13.898438 18 14 18.199219 L 14 21.199219 C 13.898438 21.398438 13.699219 21.601562 13.5 21.601562 Z M 13.5 21.601562 "/>
<path style=" stroke:none;fill-rule:nonzero;fill:rgb(83.529412%,67.45098%,26.666667%);fill-opacity:1;" d="M 18.5 21.601562 C 18.300781 21.601562 18.101562 21.398438 18.101562 21.199219 L 18.101562 18.199219 C 18.101562 18 18.398438 17.800781 18.601562 17.800781 C 18.800781 17.800781 18.898438 18 19 18.199219 L 19 21.199219 C 18.898438 21.398438 18.699219 21.601562 18.5 21.601562 Z M 18.5 21.601562 "/>
<path style=" stroke:none;fill-rule:nonzero;fill:rgb(83.529412%,67.45098%,26.666667%);fill-opacity:1;" d="M 16 14.398438 C 14.699219 14.398438 13.601562 13.300781 13.601562 12 C 13.601562 10.699219 14.699219 9.601562 16 9.601562 C 17.300781 9.601562 18.398438 10.699219 18.398438 12 C 18.398438 13.300781 17.398438 14.398438 16 14.398438 Z M 16 10.398438 C 15.101562 10.398438 14.398438 11.101562 14.398438 12 C 14.398438 12.898438 15.101562 13.601562 16 13.601562 C 16.898438 13.601562 17.601562 12.898438 17.601562 12 C 17.5 11.101562 16.898438 10.5 16 10.398438 Z M 16 10.398438 "/>
<path style=" stroke:none;fill-rule:nonzero;fill:rgb(83.529412%,67.45098%,26.666667%);fill-opacity:1;" d="M 20.300781 21.601562 L 11.601562 21.601562 C 11.398438 21.601562 11.199219 21.398438 11.199219 21.199219 L 11.199219 17.601562 C 11.199219 16.101562 12.398438 14.898438 13.898438 14.800781 L 17.898438 14.800781 C 19.398438 14.800781 20.699219 16 20.699219 17.601562 L 20.699219 21.199219 C 20.800781 21.398438 20.601562 21.601562 20.300781 21.601562 Z M 12.101562 20.800781 L 19.898438 20.800781 L 19.898438 17.601562 C 19.898438 16.5 19.101562 15.699219 18 15.699219 L 14 15.699219 C 12.898438 15.699219 12.101562 16.5 12.101562 17.601562 Z M 12.101562 20.800781 "/>
</g>
</svg>
