<svg id="Calque_1" data-name="Calque 1" xmlns="http://www.w3.org/2000/svg" viewBox="0 0 32 32"><defs><style>.cls-1{fill:#c69433;}</style></defs><path class="cls-1" d="M16,28.79a.45.45,0,0,1-.16,0C5.18,24.09,5.06,7.62,5.06,7.45a.4.4,0,0,1,.35-.39A23.2,23.2,0,0,0,15.77,3.29a.39.39,0,0,1,.46,0A23.33,23.33,0,0,0,26.59,7.06a.4.4,0,0,1,.35.39c0,.17-.12,16.64-10.78,21.31A.45.45,0,0,1,16,28.79ZM5.85,7.8c.08,2.35.94,16,10.15,20.17C25.22,23.79,26.07,10.15,26.15,7.8A24,24,0,0,1,16,4.08,24,24,0,0,1,5.85,7.8Z"/><path class="cls-1" d="M16,27.17l-.18-.09c-7.4-3.76-8.9-14-9.2-18.3l0-.35L7,8.37a25.05,25.05,0,0,0,8.84-3.3L16,5l.2.12a25.12,25.12,0,0,0,8.85,3.3l.35.06,0,.35c-.3,4.25-1.78,14.53-9.2,18.3ZM7.43,9.07C7.72,12.62,9.15,22.66,16,26.3c6.87-3.65,8.29-13.68,8.57-17.23A25.78,25.78,0,0,1,16,5.86,25.88,25.88,0,0,1,7.43,9.07Z"/><path class="cls-1" d="M16,4.38v0Z"/><path class="cls-1" d="M19.47,18.84H12.53a.38.38,0,0,1-.39-.39v-6a.39.39,0,0,1,.39-.39h6.94a.39.39,0,0,1,.39.39v6A.38.38,0,0,1,19.47,18.84Zm-6.55-.78h6.16V12.8H12.92Z"/><path class="cls-1" d="M20.42,12.8H11.58a.39.39,0,0,1-.37-.25.41.41,0,0,1,.12-.44l4.42-3.7a.39.39,0,0,1,.5,0l4.42,3.7a.41.41,0,0,1,.12.44A.39.39,0,0,1,20.42,12.8ZM12.65,12h6.7L16,9.22Z"/><path class="cls-1" d="M16.91,18.84H15.09a.38.38,0,0,1-.39-.39v-3a.39.39,0,0,1,.39-.39h1.82a.39.39,0,0,1,.39.39v3A.38.38,0,0,1,16.91,18.84Zm-1.43-.78h1V15.82h-1Z"/><path class="cls-1" d="M20.57,18.84H11.43a.39.39,0,0,1-.39-.39.4.4,0,0,1,.39-.39h9.14a.4.4,0,0,1,.39.39A.39.39,0,0,1,20.57,18.84Z"/><path class="cls-1" d="M19.31,20.63H12.69a.4.4,0,0,1-.39-.39.39.39,0,0,1,.39-.39h6.62a.39.39,0,0,1,.39.39A.4.4,0,0,1,19.31,20.63Z"/></svg>