<svg id="Calque_1" data-name="Calque 1" xmlns="http://www.w3.org/2000/svg" viewBox="0 0 32 32"><defs><style>.cls-1{fill:#fff;}.cls-2{fill:#c69433;}</style></defs><rect class="cls-1" width="32" height="32" rx="16"/><path class="cls-2" d="M22.9,20.77H9.12A1.37,1.37,0,0,1,7.75,19.4V15.63a.33.33,0,0,1,0-.14L9.39,13a.26.26,0,0,1,.23-.13H22.4a.28.28,0,0,1,.23.13l1.59,2.53a.24.24,0,0,1,.05.14v.24a.27.27,0,1,1-.54,0v-.16l-1.48-2.34H9.76L8.29,15.71V19.4a.83.83,0,0,0,.83.83H22.9a.83.83,0,0,0,.83-.83V17.09a.27.27,0,0,1,.54,0V19.4A1.38,1.38,0,0,1,22.9,20.77Z"/><path class="cls-2" d="M22.9,20.87H9.12A1.47,1.47,0,0,1,7.65,19.4V15.63a.46.46,0,0,1,0-.2L9.3,12.9a.37.37,0,0,1,.32-.17H22.4a.37.37,0,0,1,.32.17l1.59,2.53a.36.36,0,0,1,.06.2v.24a.38.38,0,0,1-.75,0v-.13L22.2,13.47H9.82L8.39,15.74V19.4a.73.73,0,0,0,.73.72H22.9a.72.72,0,0,0,.72-.72V17.09a.38.38,0,0,1,.75,0V19.4A1.47,1.47,0,0,1,22.9,20.87ZM9.62,12.94a.17.17,0,0,0-.14.07l-1.6,2.53a.15.15,0,0,0,0,.09V19.4a1.26,1.26,0,0,0,1.26,1.26H22.9a1.26,1.26,0,0,0,1.26-1.26V17.09a.16.16,0,0,0-.16-.16.17.17,0,0,0-.17.16V19.4a.93.93,0,0,1-.93.93H9.12a.94.94,0,0,1-.94-.93V15.68l1.53-2.41h12.6l1.52,2.41v.19A.18.18,0,0,0,24,16a.17.17,0,0,0,.16-.17v-.24a.29.29,0,0,0,0-.09L22.54,13a.17.17,0,0,0-.14-.07Z"/><path class="cls-2" d="M12,22.84H10.93a.85.85,0,0,1-.84-.84V20.5a.27.27,0,0,1,.27-.27h2.21a.27.27,0,0,1,.27.27V22A.85.85,0,0,1,12,22.84Zm-1.37-2.07V22a.29.29,0,0,0,.3.3H12a.29.29,0,0,0,.3-.3V20.77Z"/><path class="cls-2" d="M12,22.94H10.93A.94.94,0,0,1,10,22V20.5a.38.38,0,0,1,.37-.38h2.21a.38.38,0,0,1,.37.38V22A.94.94,0,0,1,12,22.94Zm-1.64-2.61a.17.17,0,0,0-.16.17V22a.72.72,0,0,0,.73.73H12a.72.72,0,0,0,.73-.73V20.5a.17.17,0,0,0-.16-.17ZM12,22.41H10.93a.4.4,0,0,1-.4-.41V20.66H12.4V22A.4.4,0,0,1,12,22.41Zm-1.27-1.54V22a.2.2,0,0,0,.2.2H12a.2.2,0,0,0,.2-.2V20.87Z"/><path class="cls-2" d="M21.09,22.84H20a.84.84,0,0,1-.83-.84V20.5a.27.27,0,0,1,.27-.27h2.21a.27.27,0,0,1,.26.27V22A.84.84,0,0,1,21.09,22.84Zm-1.37-2.07V22a.29.29,0,0,0,.29.3h1.08a.3.3,0,0,0,.3-.3V20.77Z"/><path class="cls-2" d="M21.09,22.94H20a.94.94,0,0,1-.93-.94V20.5a.37.37,0,0,1,.37-.38h2.21a.38.38,0,0,1,.37.38V22A.94.94,0,0,1,21.09,22.94Zm-1.64-2.61a.18.18,0,0,0-.17.17V22a.73.73,0,0,0,.73.73h1.08a.73.73,0,0,0,.73-.73V20.5a.17.17,0,0,0-.16-.17Zm1.64,2.08H20a.4.4,0,0,1-.4-.41V20.66h1.88V22A.4.4,0,0,1,21.09,22.41Zm-1.27-1.54V22a.2.2,0,0,0,.19.2h1.08a.19.19,0,0,0,.19-.2V20.87Z"/><path class="cls-2" d="M22.4,13.37H9.62a.26.26,0,0,1-.23-.13.24.24,0,0,1,0-.26L11,9.88a1.31,1.31,0,0,1,1.17-.72h7.67A1.31,1.31,0,0,1,21,9.88L22.64,13a.27.27,0,0,1,0,.26A.28.28,0,0,1,22.4,13.37Zm-12.34-.54H22l-1.42-2.71a.77.77,0,0,0-.7-.42H12.17a.8.8,0,0,0-.7.42Z"/><path class="cls-2" d="M22.4,13.47H9.62a.35.35,0,0,1-.32-.18.33.33,0,0,1,0-.36l1.61-3.1a1.43,1.43,0,0,1,1.27-.77h7.67a1.41,1.41,0,0,1,1.27.77l1.62,3.1a.36.36,0,0,1,0,.36A.36.36,0,0,1,22.4,13.47ZM12.17,9.27a1.22,1.22,0,0,0-1.08.65L9.47,13a.15.15,0,0,0,0,.16.16.16,0,0,0,.14.08H22.4a.18.18,0,0,0,.14-.08.18.18,0,0,0,0-.16L20.93,9.92a1.23,1.23,0,0,0-1.09-.65Zm10,3.67H9.89l1.49-2.86a.89.89,0,0,1,.79-.49h7.67a.9.9,0,0,1,.8.49Zm-11.9-.21H21.79l-1.34-2.56a.68.68,0,0,0-.61-.37H12.17a.69.69,0,0,0-.61.37Z"/><path class="cls-2" d="M22.4,13.37a.28.28,0,0,1-.23-.13.27.27,0,0,1,.09-.37l.59-.34.16-1a.27.27,0,0,1,.27-.22h1.17a.73.73,0,0,1,.73.72v.19a.73.73,0,0,1-.73.72H23.16l-.62.37A.25.25,0,0,1,22.4,13.37Zm1-.94h1a.19.19,0,0,0,.19-.19v-.19a.18.18,0,0,0-.19-.18H23.5Z"/><path class="cls-2" d="M22.4,13.47a.38.38,0,0,1-.32-.18.37.37,0,0,1,.13-.51l.54-.32.16-.92a.38.38,0,0,1,.37-.31h1.17a.83.83,0,0,1,.83.82v.19a.83.83,0,0,1-.83.83H23.19l-.6.35A.32.32,0,0,1,22.4,13.47Zm.88-2a.16.16,0,0,0-.16.14l-.18,1-.62.37a.16.16,0,0,0-.08.1.16.16,0,0,0,0,.12.15.15,0,0,0,.22.06l.66-.38h1.31a.62.62,0,0,0,.62-.62v-.19a.62.62,0,0,0-.62-.62Zm1.17,1.1H23.29l.13-.77h1a.29.29,0,0,1,.29.29v.19A.29.29,0,0,1,24.45,12.53Zm-.92-.21h.92a.08.08,0,0,0,.08-.08v-.19a.08.08,0,0,0-.08-.08h-.86Z"/><path class="cls-2" d="M9.62,13.37a.23.23,0,0,1-.14,0L8.85,13H7.56a.72.72,0,0,1-.72-.72v-.19a.72.72,0,0,1,.72-.72H8.74a.26.26,0,0,1,.26.22l.17,1,.58.34a.27.27,0,0,1-.13.5Zm-2.06-1.5a.18.18,0,0,0-.18.18v.19a.19.19,0,0,0,.18.19h1l-.1-.56Z"/><path class="cls-2" d="M9.62,13.47a.3.3,0,0,1-.19-.05l-.61-.35H7.56a.83.83,0,0,1-.82-.83v-.19a.82.82,0,0,1,.82-.82H8.74a.38.38,0,0,1,.37.31l.15.92.55.32a.37.37,0,0,1-.19.69Zm-2.06-2a.61.61,0,0,0-.61.62v.19a.61.61,0,0,0,.61.62H8.88l.65.38a.17.17,0,0,0,.23-.06.13.13,0,0,0,0-.12A.14.14,0,0,0,9.7,13l-.62-.37-.18-1a.16.16,0,0,0-.16-.14Zm1.17,1.1H7.56a.29.29,0,0,1-.29-.29v-.19a.29.29,0,0,1,.29-.29h1ZM7.56,12a.09.09,0,0,0-.08.08v.19a.09.09,0,0,0,.08.08h.92L8.42,12Z"/><path class="cls-2" d="M9.69,18.31H8A.27.27,0,0,1,7.75,18V15.63A.27.27,0,0,1,8,15.36h2.82a.27.27,0,0,1,.27.27v1.26A1.43,1.43,0,0,1,9.69,18.31Zm-1.4-.54h1.4a.88.88,0,0,0,.88-.88v-1H8.29Z"/><path class="cls-2" d="M9.69,18.41H8A.36.36,0,0,1,7.65,18V15.63A.37.37,0,0,1,8,15.26h2.82a.37.37,0,0,1,.37.37v1.26A1.52,1.52,0,0,1,9.69,18.41ZM8,15.47a.16.16,0,0,0-.16.16V18A.16.16,0,0,0,8,18.2H9.69A1.31,1.31,0,0,0,11,16.89V15.63a.16.16,0,0,0-.16-.16Zm1.67,2.41H8.18V15.79h2.5v1.1A1,1,0,0,1,9.69,17.88Zm-1.3-.21h1.3a.78.78,0,0,0,.78-.78V16H8.39Z"/><path class="cls-2" d="M24,18.31H22.33a1.43,1.43,0,0,1-1.42-1.42V15.63a.27.27,0,0,1,.27-.27H24a.27.27,0,0,1,.27.27V18A.27.27,0,0,1,24,18.31ZM21.45,15.9v1a.87.87,0,0,0,.88.88h1.4V15.9Z"/><path class="cls-2" d="M24,18.41H22.33a1.53,1.53,0,0,1-1.53-1.52V15.63a.38.38,0,0,1,.38-.37H24a.38.38,0,0,1,.37.37V18A.37.37,0,0,1,24,18.41Zm-2.82-2.94a.17.17,0,0,0-.17.16v1.26a1.32,1.32,0,0,0,1.32,1.31H24a.16.16,0,0,0,.16-.16V15.63a.16.16,0,0,0-.16-.16Zm2.65,2.41h-1.5a1,1,0,0,1-1-1v-1.1h2.49ZM21.55,16v.89a.78.78,0,0,0,.78.78h1.29V16Z"/><path class="cls-2" d="M19.65,15.9H12.36a.27.27,0,0,1,0-.54h7.29a.27.27,0,0,1,0,.54Z"/><path class="cls-2" d="M19.65,16H12.36a.37.37,0,0,1-.37-.37.38.38,0,0,1,.37-.37h7.29a.38.38,0,0,1,.38.37A.37.37,0,0,1,19.65,16Zm-7.29-.53a.16.16,0,0,0,0,.32h7.29a.16.16,0,1,0,0-.32Z"/><path class="cls-2" d="M19.65,19H12.36a.26.26,0,0,1-.26-.26V16.84a.27.27,0,0,1,.26-.27h7.29a.27.27,0,0,1,.27.27v1.89A.27.27,0,0,1,19.65,19Zm-7-.53h6.75V17.1H12.63Z"/><path class="cls-2" d="M19.65,19.1H12.36a.38.38,0,0,1-.37-.37V16.84a.38.38,0,0,1,.37-.38h7.29a.38.38,0,0,1,.38.38v1.89A.38.38,0,0,1,19.65,19.1Zm-7.29-2.43a.17.17,0,0,0-.16.17v1.89a.16.16,0,0,0,.16.16h7.29a.17.17,0,0,0,.17-.16V16.84a.18.18,0,0,0-.17-.17Zm7.13,1.89h-7V17h7Zm-6.75-.21h6.54V17.21H12.74Z"/><path class="cls-2" d="M26.61,20.77a.19.19,0,0,1-.1,0,.26.26,0,0,1-.14-.35c.07-.16.13-.32.19-.49a.28.28,0,0,1,.35-.15.26.26,0,0,1,.15.34c-.06.17-.13.34-.2.51A.27.27,0,0,1,26.61,20.77Z"/><path class="cls-2" d="M26.61,20.87a.35.35,0,0,1-.14,0,.39.39,0,0,1-.2-.2.37.37,0,0,1,0-.29c.07-.16.13-.32.19-.48a.38.38,0,0,1,.48-.22.37.37,0,0,1,.22.48c-.06.17-.13.34-.2.51A.38.38,0,0,1,26.61,20.87Zm.2-1a.17.17,0,0,0-.15.11c-.06.17-.13.33-.2.49a.29.29,0,0,0,0,.13.2.2,0,0,0,.09.09.18.18,0,0,0,.22-.09l.2-.51a.18.18,0,0,0-.1-.21Z"/><path class="cls-2" d="M27.39,18h0a.28.28,0,0,1-.23-.31,10.36,10.36,0,0,0,.12-1.12.27.27,0,0,1,.28-.25.28.28,0,0,1,.26.28,11.31,11.31,0,0,1-.13,1.17A.26.26,0,0,1,27.39,18Zm0-3.44a.27.27,0,0,1-.26-.23,10.89,10.89,0,0,0-.22-1.11.26.26,0,0,1,.2-.32.26.26,0,0,1,.32.19,11.33,11.33,0,0,1,.23,1.16.26.26,0,0,1-.23.3Z"/><path class="cls-2" d="M27.39,18.14h-.06a.38.38,0,0,1-.24-.15.4.4,0,0,1-.07-.28,10,10,0,0,0,.12-1.1.37.37,0,0,1,.39-.36.38.38,0,0,1,.26.13.37.37,0,0,1,.09.27,11.79,11.79,0,0,1-.12,1.18A.37.37,0,0,1,27.39,18.14Zm.12-1.68a.17.17,0,0,0-.17.16c0,.38-.06.76-.11,1.13a.14.14,0,0,0,0,.12.13.13,0,0,0,.1.06h0a.16.16,0,0,0,.16-.14,11.4,11.4,0,0,0,.12-1.16.16.16,0,0,0,0-.12.14.14,0,0,0-.11-.06ZM27.4,14.7a.37.37,0,0,1-.36-.32c-.06-.36-.13-.73-.22-1.09a.38.38,0,0,1,0-.28.36.36,0,0,1,.23-.17.34.34,0,0,1,.28,0,.33.33,0,0,1,.17.23,9.15,9.15,0,0,1,.23,1.16.38.38,0,0,1-.31.43ZM27.18,13h0a.18.18,0,0,0-.1.07.2.2,0,0,0,0,.13,10.37,10.37,0,0,1,.22,1.11.18.18,0,0,0,.19.14.17.17,0,0,0,.14-.19,11,11,0,0,0-.23-1.14.18.18,0,0,0-.07-.1A.16.16,0,0,0,27.18,13Z"/><path class="cls-2" d="M26.4,11.3a.28.28,0,0,1-.24-.15c-.08-.16-.15-.32-.24-.47a.27.27,0,0,1,.11-.36.28.28,0,0,1,.37.11l.24.49a.26.26,0,0,1-.12.35A.27.27,0,0,1,26.4,11.3Z"/><path class="cls-2" d="M26.4,11.41a.37.37,0,0,1-.33-.22l-.24-.46a.36.36,0,0,1,.15-.5.38.38,0,0,1,.51.15l.25.49a.36.36,0,0,1,0,.29.36.36,0,0,1-.19.21A.42.42,0,0,1,26.4,11.41Zm-.24-1-.08,0a.16.16,0,0,0-.07.22,5.21,5.21,0,0,1,.24.47.17.17,0,0,0,.22.08.15.15,0,0,0,.08-.22c-.08-.16-.16-.32-.25-.48a.14.14,0,0,0-.09-.08Z"/><path class="cls-2" d="M16,27.78A11.74,11.74,0,0,1,6.83,23.4a.28.28,0,0,1,0-.38.27.27,0,0,1,.38,0,11.25,11.25,0,0,0,19.12-2.67.27.27,0,0,1,.35-.14.26.26,0,0,1,.14.35A11.75,11.75,0,0,1,16,27.78Z"/><path class="cls-2" d="M16,27.89a11.84,11.84,0,0,1-9.26-4.43.38.38,0,0,1-.08-.27.35.35,0,0,1,.14-.25.37.37,0,0,1,.52,0,11.15,11.15,0,0,0,18.94-2.64.39.39,0,0,1,.2-.2.37.37,0,0,1,.29,0,.38.38,0,0,1,.2.21.34.34,0,0,1,0,.28A11.89,11.89,0,0,1,16,27.89ZM7,23.06a.21.21,0,0,0-.1,0,.14.14,0,0,0-.06.11.17.17,0,0,0,0,.12,11.69,11.69,0,0,0,19.86-2.77.17.17,0,0,0-.09-.21.15.15,0,0,0-.22.08A11.35,11.35,0,0,1,7.17,23.12.16.16,0,0,0,7,23.06Z"/><path class="cls-2" d="M5.86,21.71a.27.27,0,0,1-.24-.14,11.79,11.79,0,0,1,19.5-13,.27.27,0,0,1,0,.38.26.26,0,0,1-.38,0A11.25,11.25,0,0,0,6.09,21.32a.26.26,0,0,1-.1.36Z"/><path class="cls-2" d="M5.86,21.82a.38.38,0,0,1-.33-.2A11.89,11.89,0,0,1,25.2,8.46a.36.36,0,0,1,.08.27.34.34,0,0,1-.13.25.37.37,0,0,1-.53-.05A11.14,11.14,0,0,0,6.19,21.27a.37.37,0,0,1-.16.5A.34.34,0,0,1,5.86,21.82ZM16,4.32a11.69,11.69,0,0,0-10.3,17.2.18.18,0,0,0,.23.07A.15.15,0,0,0,6,21.37,11.36,11.36,0,0,1,24.79,8.8a.17.17,0,0,0,.11.06.19.19,0,0,0,.12,0,.24.24,0,0,0,.06-.11.17.17,0,0,0,0-.12A11.66,11.66,0,0,0,16,4.32Z"/><path class="cls-2" d="M24.91,9h-.05l-2.78-.53a.27.27,0,0,1-.21-.32.27.27,0,0,1,.31-.21l2.41.46-.4-2.48a.27.27,0,0,1,.23-.31.27.27,0,0,1,.3.22l.46,2.86a.3.3,0,0,1-.08.24A.26.26,0,0,1,24.91,9Z"/><path class="cls-2" d="M24.91,9.07h-.07l-2.78-.53a.4.4,0,0,1-.24-.16.39.39,0,0,1-.05-.28.36.36,0,0,1,.43-.29l2.26.43-.37-2.34a.34.34,0,0,1,.07-.27.35.35,0,0,1,.24-.15.39.39,0,0,1,.43.31l.45,2.86a.35.35,0,0,1-.11.32A.36.36,0,0,1,24.91,9.07ZM22.13,8a.17.17,0,0,0-.16.13.15.15,0,0,0,0,.13.13.13,0,0,0,.1.06l2.78.54a.21.21,0,0,0,.15,0,.17.17,0,0,0,0-.14l-.45-2.86a.17.17,0,0,0-.19-.14.14.14,0,0,0-.1.07.14.14,0,0,0,0,.12l.41,2.63L22.16,8Z"/><path class="cls-2" d="M7.56,26.43a.28.28,0,0,1-.27-.22l-.51-2.94A.26.26,0,0,1,7.1,23l2.84.6a.28.28,0,0,1,.21.32.27.27,0,0,1-.32.21l-2.45-.53.44,2.55a.27.27,0,0,1-.22.31Z"/><path class="cls-2" d="M7.56,26.54a.38.38,0,0,1-.37-.31l-.52-2.94A.38.38,0,0,1,6.78,23a.39.39,0,0,1,.34-.1l2.84.61a.4.4,0,0,1,.24.16.4.4,0,0,1,.05.28.37.37,0,0,1-.44.29L7.5,23.71l.43,2.39a.38.38,0,0,1-.31.43ZM7,23.06a.16.16,0,0,0-.11.05.17.17,0,0,0,0,.15l.52,2.93a.15.15,0,0,0,.19.13.16.16,0,0,0,.13-.19l-.47-2.69,2.6.56a.17.17,0,0,0,.2-.13.17.17,0,0,0,0-.12.14.14,0,0,0-.1-.07l-2.84-.61Z"/></svg>