<svg id="Calque_1" data-name="Calque 1" xmlns="http://www.w3.org/2000/svg" viewBox="0 0 32 32"><defs><style>.cls-1{fill:#c69433;}</style></defs><path class="cls-1" d="M7.83,25H6.4a.32.32,0,0,1-.32-.32V6.51a.32.32,0,0,1,.32-.32H20.11a.32.32,0,0,1,.32.32V7.9a.32.32,0,0,1-.32.32h-12V24.68A.32.32,0,0,1,7.83,25Zm-1.11-.64h.79V7.9a.32.32,0,0,1,.32-.32h12V6.82H6.72Z"/><path class="cls-1" d="M14.5,26.39a1.78,1.78,0,1,1,1.77-1.77A1.78,1.78,0,0,1,14.5,26.39Zm0-2.91a1.14,1.14,0,1,0,1.13,1.14A1.14,1.14,0,0,0,14.5,23.48Z"/><path class="cls-1" d="M22.91,26.39a1.78,1.78,0,1,1,1.77-1.77A1.78,1.78,0,0,1,22.91,26.39Zm0-2.91a1.14,1.14,0,1,0,1.14,1.14A1.14,1.14,0,0,0,22.91,23.48Z"/><path class="cls-1" d="M26.15,21.27H13.63a.32.32,0,1,1,0-.64H26.15a.32.32,0,0,1,0,.64Z"/><path class="cls-1" d="M17.71,21.65a.32.32,0,0,1-.32-.32V19.07a.32.32,0,1,1,.63,0v2.26A.31.31,0,0,1,17.71,21.65Z"/><path class="cls-1" d="M24,21.27a.31.31,0,0,1-.29-.21l-.9-2.33a.32.32,0,0,1,.18-.41.33.33,0,0,1,.42.18l.89,2.34a.33.33,0,0,1-.18.41Z"/><path class="cls-1" d="M24.86,24.93h-.5a.31.31,0,0,1-.31-.31,1.14,1.14,0,0,0-2.28,0,.31.31,0,0,1-.32.31H16a.32.32,0,0,1-.32-.31,1.14,1.14,0,1,0-2.27,0,.32.32,0,0,1-.32.31H11a.31.31,0,0,1-.32-.31V23.56a2.66,2.66,0,0,1,2-2.61,4,4,0,0,0,1.65-.83,8.58,8.58,0,0,1,5.42-1.92h2.42a4.92,4.92,0,0,1,4,2,1.81,1.81,0,0,1,.36,1.1v2A1.63,1.63,0,0,1,24.86,24.93Zm-.21-.63h.21a1,1,0,0,0,1-1v-2a1.24,1.24,0,0,0-.24-.72,4.27,4.27,0,0,0-3.45-1.75H19.82s0,0,0,0h0a8,8,0,0,0-5,1.77,4.86,4.86,0,0,1-1.91,1,2,2,0,0,0-1.57,2v.74h1.48a1.77,1.77,0,0,1,3.49,0h4.92a1.77,1.77,0,0,1,3.49,0Z"/><path class="cls-1" d="M17.71,24.93a.31.31,0,0,1-.32-.31V21a.32.32,0,0,1,.32-.32h5A.32.32,0,0,1,23,21v2.22a.32.32,0,0,1-.32.32.32.32,0,0,1-.32-.32v-1.9H18v3.35A.32.32,0,0,1,17.71,24.93Z"/><path class="cls-1" d="M26.19,26.39H7.83a.32.32,0,0,1-.32-.32V7.9a.32.32,0,0,1,.32-.32H21.54a.32.32,0,0,1,.32.32V17a.32.32,0,1,1-.64,0V8.22H8.15V25.75h18a.32.32,0,0,1,.31.32A.31.31,0,0,1,26.19,26.39Z"/><path class="cls-1" d="M18.57,10.73H11.16a.32.32,0,0,1,0-.64h7.41a.32.32,0,0,1,0,.64Z"/><path class="cls-1" d="M19.72,12.83H10a.32.32,0,0,1,0-.64h9.7a.32.32,0,0,1,0,.64Z"/><path class="cls-1" d="M19.72,14.93H10a.32.32,0,0,1-.32-.32.32.32,0,0,1,.32-.32h9.7a.32.32,0,0,1,.32.32A.33.33,0,0,1,19.72,14.93Z"/><path class="cls-1" d="M19.72,17H10a.32.32,0,0,1-.32-.32.32.32,0,0,1,.32-.32h9.7a.32.32,0,0,1,.32.32A.33.33,0,0,1,19.72,17Z"/></svg>