<svg xmlns="http://www.w3.org/2000/svg" viewBox="0 0 203.83 203.83"><defs><style>.cls-1{fill:#e2b768;}.cls-2{fill:#cd9a32;}.cls-3{fill:#fff;}</style></defs><g id="Calque_2" data-name="Calque 2"><g id="Calque_1-2" data-name="Calque 1"><circle class="cls-1" cx="101.91" cy="101.91" r="101.91"/><circle class="cls-2" cx="101.91" cy="101.91" r="91.77"/><circle class="cls-3" cx="101.91" cy="111.89" r="3.32"/><path class="cls-3" d="M142.21,62.07l-39.89-10a1.59,1.59,0,0,0-.81,0l-39.89,10a1.67,1.67,0,0,0-1.26,1.61v46.54a41.56,41.56,0,1,0,83.11,0V63.68A1.67,1.67,0,0,0,142.21,62.07ZM90.28,87a11.64,11.64,0,0,1,23.27,0v8.32h-3.33V87A8.31,8.31,0,0,0,93.6,87v8.32H90.28Zm29.92,36.57a1.66,1.66,0,0,1-1.66,1.66H85.29a1.66,1.66,0,0,1-1.66-1.66V100.25a1.66,1.66,0,0,1,1.66-1.66h33.25a1.66,1.66,0,0,1,1.66,1.66Z"/></g></g></svg>