<svg width="212" height="58" viewBox="0 0 212 58" fill="none" xmlns="http://www.w3.org/2000/svg">
<path d="M24.7635 37.4155H18.6601V25.4311L14.3368 33.0922H10.4268L6.13525 25.4311V37.4155H0V12.9381H5.84915L12.3977 25.0814L18.9144 12.9381H24.7635V37.4155Z" fill="#004A95"/>
<path d="M35.6671 27.3384H39.5136L37.5744 21.7118L35.6671 27.3384ZM49.4317 37.4155H42.9468L41.3891 32.8379H33.8233L32.2657 37.4155H25.7808L34.8406 12.9699H40.3401L49.4317 37.4155Z" fill="#004A95"/>
<path d="M78.3277 37.4155H72.2561V12.9381H89.0088V18.6283H78.3277V23.0787H87.2604V28.7689H78.3277V37.4155Z" fill="#E42721"/>
<path d="M97.4647 37.4155H91.2658V12.9381H97.4647V37.4155Z" fill="#E42721"/>
<path d="M121.847 37.4155H115.966L107.129 24.096V37.4155H100.961V12.9381H106.747L115.68 26.5437V12.9381H121.847V37.4155Z" fill="#E42721"/>
<path d="M132.75 27.3384H136.597L134.658 21.7118L132.75 27.3384ZM146.515 37.4155H140.03L138.472 32.8379H130.907L129.349 37.4155H122.864L131.924 12.9381H137.423L146.515 37.4155Z" fill="#E42721"/>
<path d="M168.417 37.4155H162.537L153.699 24.096V37.4155H147.564V12.9381H153.318L162.25 26.5437V12.9381H168.417V37.4155Z" fill="#E42721"/>
<path d="M183.295 37.638C181.96 37.638 180.688 37.4791 179.48 37.1294C178.24 36.7797 177.096 36.2711 176.047 35.5717C174.998 34.8724 174.076 34.0459 173.313 33.0604C172.55 32.075 171.914 30.8988 171.501 29.5636C171.056 28.2285 170.833 26.7662 170.833 25.2086C170.833 23.8417 170.992 22.5065 171.342 21.2668C171.692 20.027 172.232 18.8508 172.931 17.8018C173.631 16.7527 174.489 15.8626 175.475 15.0679C176.46 14.305 177.636 13.701 178.971 13.256C180.307 12.8427 181.737 12.6202 183.295 12.6202C184.439 12.6202 185.583 12.7791 186.696 13.097C187.809 13.4149 188.953 13.9235 190.034 14.6547C191.147 15.354 192.132 16.2759 192.99 17.3249L193.499 17.9607L188.953 21.8389L188.413 21.2032C187.777 20.4402 186.982 19.8045 186.092 19.2958C185.202 18.819 184.28 18.5965 183.295 18.5965C182.786 18.5965 182.309 18.6601 181.832 18.7554C181.387 18.8508 180.942 19.0097 180.529 19.2005C180.116 19.3912 179.734 19.6455 179.416 19.8998C179.067 20.1859 178.781 20.5038 178.495 20.8535C178.208 21.235 177.986 21.6164 177.795 22.0615C177.604 22.5065 177.446 22.9833 177.35 23.5238C177.255 24.0642 177.191 24.6364 177.191 25.2086C177.191 26.4801 177.446 27.5927 177.954 28.5782C178.463 29.5636 179.162 30.2948 180.084 30.8352C181.006 31.3756 182.055 31.6617 183.263 31.6617C184.28 31.6617 185.202 31.4392 186.092 30.9624C186.982 30.4855 187.745 29.8497 188.381 29.0868L188.921 28.4192L193.467 32.3293L192.958 32.9333C191.846 34.332 190.447 35.4446 188.794 36.3029C187.205 37.2248 185.329 37.638 183.295 37.638Z" fill="#E42721"/>
<path d="M211.968 37.4155H195.088V12.9381H211.301V18.6283H201.16V22.4747H209.298V28.1014H201.16V31.7253H211.968V37.4155Z" fill="#E42721"/>
<path d="M54.3272 12.6838H46.0938L53.7867 25.2722H62.0201L54.3272 12.6838Z" fill="#004A95"/>
<path d="M73.782 9.4413L73.3687 0L61.3525 9.4413H63.4824L53.7868 25.2722H62.0201L71.7475 9.40951L73.782 9.4413Z" fill="#0D92D2"/>
<path d="M53.7867 25.2722L43.4871 42.0885L41.9931 44.568H50.2264L51.7523 42.0885L62.0201 25.2722H53.7867Z" fill="#004A95"/>
<path d="M69.6176 37.638L62.0201 25.2722H53.7868L61.3525 37.638H69.6176Z" fill="#1EB1E7"/>
<path d="M140.984 57.0928C137.932 57.0928 135.707 55.567 135.707 51.7523V44.8223H139.14V51.7523C139.14 53.2464 139.712 54.1682 141.047 54.1682C142.351 54.1682 142.923 53.2464 142.923 51.7523V44.8223H146.356V51.7523C146.324 55.567 144.035 57.0928 140.984 57.0928Z" fill="#004A95"/>
<path d="M153.636 56.9021V51.7523C153.636 50.5761 153.222 50.2582 152.587 50.2582C151.919 50.2582 151.538 50.5761 151.538 51.7205V56.9021H148.454V47.8423H151.569V48.4462C152.142 48.0012 152.777 47.6515 153.858 47.6515C155.861 47.6515 156.783 48.9867 156.783 51.3708V56.9021H153.636Z" fill="#004A95"/>
<path d="M158.722 47.8423H161.837V56.9021H158.722V47.8423ZM160.28 47.1747C159.262 47.1747 158.499 46.6025 158.499 45.6488C158.499 44.7587 159.262 44.1547 160.28 44.1547C161.36 44.1547 162.091 44.7905 162.091 45.6488C162.091 46.6025 161.36 47.1747 160.28 47.1747Z" fill="#004A95"/>
<path d="M169.339 56.9021H166.288L163.141 47.8423H166.447L167.273 51.1801C167.464 51.943 167.718 53.0238 167.813 53.8821C167.941 53.0238 168.195 51.943 168.386 51.1801L169.212 47.8423H172.486L169.339 56.9021Z" fill="#004A95"/>
<path d="M177.128 49.9403C176.428 49.9403 176.015 50.4171 175.92 51.3072H178.495C178.367 50.4171 178.049 49.9403 177.128 49.9403ZM181.228 53.2464H175.92C176.015 54.2636 176.619 54.7086 177.445 54.7086C178.24 54.7086 178.908 54.5497 179.798 54.0729L181.006 56.0756C179.893 56.7431 178.717 57.1246 177.318 57.1246C174.584 57.1246 173.09 55.1855 173.09 52.4198C173.09 49.3045 174.839 47.6833 177.223 47.6833C179.702 47.6833 181.26 49.3363 181.26 52.7059C181.26 52.9285 181.26 53.1192 181.228 53.2464Z" fill="#004A95"/>
<path d="M188.603 51.2437C188.19 50.7986 187.745 50.4807 187.141 50.4807C186.378 50.4807 185.901 50.8304 185.901 51.943V56.9021H182.786V47.8423H185.901V48.5098C186.442 48.0012 187.046 47.6515 187.84 47.6515C188.508 47.6515 188.953 47.8105 189.303 48.033L188.603 51.2437Z" fill="#004A95"/>
<path d="M193.753 57.0928C192.418 57.0928 191.115 56.8067 189.97 56.3617L190.701 54.0093C191.782 54.4861 193.022 54.804 193.817 54.804C194.421 54.804 194.643 54.6769 194.643 54.3908C194.643 54.1047 194.516 53.9775 193.912 53.8186C191.115 53.0874 190.161 52.5152 190.161 50.6079C190.161 48.7323 191.401 47.6515 193.849 47.6515C195.215 47.6515 196.137 47.874 197.345 48.3191L196.646 50.735C195.438 50.2264 194.548 49.9721 193.753 49.9721C193.149 49.9721 192.99 50.0993 192.99 50.3854C192.99 50.6715 193.086 50.7668 193.88 51.0211C196.423 51.6887 197.472 52.2927 197.472 54.1047C197.504 56.1391 196.074 57.0928 193.753 57.0928Z" fill="#004A95"/>
<path d="M203.989 53.2146C203.64 53.0556 203.258 52.9603 202.654 52.9603C202.018 52.9603 201.7 53.3099 201.7 53.9139C201.7 54.4861 201.987 54.8994 202.654 54.8994C203.163 54.8994 203.703 54.6769 203.989 54.4543V53.2146ZM203.989 56.9021V56.2981C203.417 56.7431 202.622 57.0928 201.764 57.0928C200.016 57.0928 198.839 56.012 198.839 53.9775C198.839 52.0384 200.175 51.0211 202.114 51.0211C202.94 51.0211 203.481 51.1801 203.989 51.4026V50.9576C203.989 50.1628 203.544 49.8767 202.718 49.8767C201.796 49.8767 201.065 50.0357 200.206 50.5443L199.38 48.478C200.492 47.9376 201.7 47.6515 203.29 47.6515C205.833 47.6515 206.946 48.9231 206.946 51.0211V56.9021H203.989Z" fill="#004A95"/>
<path d="M208.885 56.9021V45.5535L212 44.3137V56.9021H208.885Z" fill="#004A95"/>
</svg>
