<svg id="Calque_1" data-name="Calque 1" xmlns="http://www.w3.org/2000/svg" viewBox="0 0 32 32"><defs><style>.cls-1{fill:#c69433;}</style></defs><path class="cls-1" d="M16,26.26a.39.39,0,0,1-.18,0L11.37,24.1a6.73,6.73,0,0,1-3.79-6V9.77A.41.41,0,0,1,8,9.36c5.3-.56,7.71-3.44,7.73-3.47A.44.44,0,0,1,16,5.74a.46.46,0,0,1,.32.15s2.44,2.91,7.73,3.47a.41.41,0,0,1,.37.41v8.3a6.73,6.73,0,0,1-3.79,6l-4.45,2.12A.39.39,0,0,1,16,26.26ZM8.4,10.14v7.93a5.89,5.89,0,0,0,3.33,5.28l4.27,2,4.27-2a5.89,5.89,0,0,0,3.33-5.28V10.14A13,13,0,0,1,16,6.76,13,13,0,0,1,8.4,10.14Z"/><path class="cls-1" d="M16,29.19a.58.58,0,0,1-.18,0l-5.77-2.76a8.58,8.58,0,0,1-4.86-7.7V7.91a.41.41,0,0,1,.38-.41C12.5,6.78,15.65,3,15.68,3a.4.4,0,0,1,.64,0S19.5,6.78,26.43,7.5a.41.41,0,0,1,.38.41V18.69A8.58,8.58,0,0,1,22,26.39l-5.77,2.76A.58.58,0,0,1,16,29.19ZM6,8.28V18.69a7.73,7.73,0,0,0,4.39,7L16,28.31l5.59-2.67A7.73,7.73,0,0,0,26,18.69V8.28A16.58,16.58,0,0,1,16,3.84,16.58,16.58,0,0,1,6,8.28Z"/><path class="cls-1" d="M13.5,21.62a.42.42,0,0,1-.42-.42v-3a.42.42,0,0,1,.83,0v3A.42.42,0,0,1,13.5,21.62Z"/><path class="cls-1" d="M18.5,21.62a.42.42,0,0,1-.41-.42v-3a.42.42,0,0,1,.83,0v3A.42.42,0,0,1,18.5,21.62Z"/><path class="cls-1" d="M16,14.43A2.4,2.4,0,1,1,18.4,12,2.4,2.4,0,0,1,16,14.43Zm0-4A1.57,1.57,0,1,0,17.57,12,1.57,1.57,0,0,0,16,10.47Z"/><path class="cls-1" d="M20.33,21.62H11.67a.42.42,0,0,1-.41-.42V17.63A2.77,2.77,0,0,1,14,14.87h4a2.77,2.77,0,0,1,2.76,2.76V21.2A.42.42,0,0,1,20.33,21.62Zm-8.24-.83h7.82V17.63A1.92,1.92,0,0,0,18,15.7H14a1.92,1.92,0,0,0-1.93,1.93Z"/></svg>