<svg id="Calque_1" data-name="Calque 1" xmlns="http://www.w3.org/2000/svg" viewBox="0 0 32 32"><defs><style>.cls-1{fill:#c69433;}</style></defs><path class="cls-1" d="M15.8,19.6H12.46a.29.29,0,0,1,0-.58H15.8a.29.29,0,1,1,0,.58Z"/><path class="cls-1" d="M15.8,19.7H12.46a.39.39,0,1,1,0-.78H15.8a.39.39,0,1,1,0,.78Zm-3.34-.58a.19.19,0,0,0-.19.19.2.2,0,0,0,.19.2H15.8a.2.2,0,0,0,.2-.2.19.19,0,0,0-.2-.19Z"/><path class="cls-1" d="M10.23,21.9l-.13,0-.53-.26a.29.29,0,0,1-.13-.39.3.3,0,0,1,.39-.14l.53.26a.3.3,0,0,1,.14.39A.31.31,0,0,1,10.23,21.9Z"/><path class="cls-1" d="M10.23,22a.47.47,0,0,1-.17,0l-.53-.26A.39.39,0,0,1,9.87,21l.53.26a.39.39,0,0,1,.19.52A.41.41,0,0,1,10.23,22Zm-.53-.85-.06,0a.16.16,0,0,0-.11.1.18.18,0,0,0,.09.25l.53.26a.21.21,0,0,0,.26-.09.19.19,0,0,0,0-.15.16.16,0,0,0-.1-.11l-.53-.26Z"/><path class="cls-1" d="M7.68,20.68a.27.27,0,0,1-.12,0l-1-.48a.29.29,0,0,1-.14-.39.29.29,0,0,1,.39-.14l1,.48a.3.3,0,0,1,.14.39A.29.29,0,0,1,7.68,20.68Z"/><path class="cls-1" d="M7.68,20.78a.35.35,0,0,1-.17,0l-1-.48A.43.43,0,0,1,6.3,20a.4.4,0,0,1,.54-.49l1,.48a.4.4,0,0,1,.19.53A.42.42,0,0,1,7.68,20.78Zm-1-1.07a.18.18,0,0,0-.17.11.2.2,0,0,0,0,.15.18.18,0,0,0,.1.11l1,.48a.2.2,0,0,0,.26-.09.26.26,0,0,0,0-.15.22.22,0,0,0-.1-.11l-1-.48Z"/><path class="cls-1" d="M4.65,19.24a.27.27,0,0,1-.12,0L4,19a.29.29,0,0,1-.14-.39.3.3,0,0,1,.39-.14l.53.26a.29.29,0,0,1,.14.39A.31.31,0,0,1,4.65,19.24Z"/><path class="cls-1" d="M4.65,19.33a.51.51,0,0,1-.17,0L4,19a.39.39,0,0,1,.34-.71l.53.26a.34.34,0,0,1,.2.22.39.39,0,0,1,0,.3A.4.4,0,0,1,4.65,19.33Zm-.53-.84A.2.2,0,0,0,4,18.6a.19.19,0,0,0,.09.26l.53.26A.21.21,0,0,0,4.83,19a.26.26,0,0,0,0-.15.22.22,0,0,0-.1-.11l-.53-.26Z"/><path class="cls-1" d="M22.08,23.92a.32.32,0,0,1-.21-.08,5.82,5.82,0,0,0-2.42-1.44l-4,.44a9.42,9.42,0,0,1-5-.83l-.31-.14a.3.3,0,0,1-.13-.39.29.29,0,0,1,.39-.14l.3.14a8.83,8.83,0,0,0,4.7.77l4.09-.45a.2.2,0,0,1,.11,0,6.52,6.52,0,0,1,2.53,1.41l5-3.66-2.33-2a6,6,0,0,0-2.22-1.22,5.9,5.9,0,0,0-2.36-.21l-5.33.58a2.35,2.35,0,0,0-2.08,2.6.31.31,0,0,1-.12.27.32.32,0,0,1-.3,0L5,16.26a1.17,1.17,0,0,0-1.45.39,1.11,1.11,0,0,0-.14.92,1.13,1.13,0,0,0,.61.72l.28.13a.3.3,0,0,1,.14.4A.3.3,0,0,1,4,19l-.28-.13A1.71,1.71,0,0,1,3,16.32a1.77,1.77,0,0,1,2.18-.6l7,3.13a2.94,2.94,0,0,1,2.61-2.75l5.33-.59a6.51,6.51,0,0,1,5,1.58l2.62,2.28a.33.33,0,0,1,.1.23.35.35,0,0,1-.12.23l-5.3,3.88a1,1,0,0,0-.15.13A.32.32,0,0,1,22.08,23.92Z"/><path class="cls-1" d="M22.08,24a.41.41,0,0,1-.28-.11,5.82,5.82,0,0,0-2.36-1.41l-4,.44a9.56,9.56,0,0,1-5.08-.84l-.3-.14a.4.4,0,0,1-.18-.53.38.38,0,0,1,.52-.18l.3.14a8.76,8.76,0,0,0,4.65.77l4.09-.45a.38.38,0,0,1,.15,0,6.68,6.68,0,0,1,2.51,1.39l4.82-3.55-2.24-1.95A5.79,5.79,0,0,0,22.5,16.4a6.07,6.07,0,0,0-2.32-.21l-5.33.59a2.23,2.23,0,0,0-1.51.83,2.26,2.26,0,0,0-.49,1.66.37.37,0,0,1-.16.36.39.39,0,0,1-.39,0L4.91,16.35a1.08,1.08,0,0,0-1.33.35,1.06,1.06,0,0,0-.13.85A1.09,1.09,0,0,0,4,18.2l.28.13a.38.38,0,0,1,.2.23.39.39,0,0,1,0,.3.47.47,0,0,1-.22.2A.37.37,0,0,1,4,19l-.28-.13a1.82,1.82,0,0,1-.74-2.64,1.86,1.86,0,0,1,2.3-.64l6.84,3.07A3,3,0,0,1,14.76,16l5.33-.59A6.71,6.71,0,0,1,25.2,17l2.61,2.28a.42.42,0,0,1,.14.32.47.47,0,0,1-.16.3l-5.3,3.88-.15.12A.36.36,0,0,1,22.08,24Zm-2.62-1.73h0a6.11,6.11,0,0,1,2.46,1.46.2.2,0,0,0,.27,0l.16-.14,5.3-3.89a.18.18,0,0,0,.08-.14.2.2,0,0,0-.07-.16l-2.61-2.28a6.5,6.5,0,0,0-5-1.55l-5.33.59a2.83,2.83,0,0,0-2.52,2.66V19l-7.1-3.19a1.66,1.66,0,0,0-2.06.57,1.63,1.63,0,0,0-.2,1.33,1.61,1.61,0,0,0,.87,1l.28.13a.16.16,0,0,0,.15,0,.18.18,0,0,0,.11-.1.25.25,0,0,0,0-.15.27.27,0,0,0-.1-.11l-.29-.13a1.25,1.25,0,0,1-.66-.78,1.21,1.21,0,0,1,.16-1A1.26,1.26,0,0,1,5,16.17l7.39,3.32a.2.2,0,0,0,.2,0,.23.23,0,0,0,.08-.18,2.45,2.45,0,0,1,2.17-2.71L20.16,16a6,6,0,0,1,2.39.21,6,6,0,0,1,2.26,1.25l2.43,2.12-5.16,3.78L22,23.31a6.51,6.51,0,0,0-2.48-1.4h-.08l-4.09.45a9,9,0,0,1-4.76-.78l-.3-.14a.18.18,0,0,0-.25.09.19.19,0,0,0,.09.26l.3.14a9.31,9.31,0,0,0,5,.82Z"/><path class="cls-1" d="M21.82,26.63a.3.3,0,0,1-.24-.12,2.34,2.34,0,0,1,.5-3.27L27.92,19a2.36,2.36,0,0,1,3.28.5.3.3,0,0,1-.07.41.29.29,0,0,1-.41-.06,1.76,1.76,0,0,0-2.45-.38l-5.84,4.29a1.76,1.76,0,0,0-.38,2.45.29.29,0,0,1-.06.41A.27.27,0,0,1,21.82,26.63Z"/><path class="cls-1" d="M21.82,26.73a.39.39,0,0,1-.32-.16A2.44,2.44,0,0,1,22,23.16l5.85-4.29a2.45,2.45,0,0,1,3.41.52.4.4,0,0,1-.64.47,1.66,1.66,0,0,0-2.31-.36l-5.84,4.29a1.65,1.65,0,0,0-.36,2.31.39.39,0,0,1-.08.55A.4.4,0,0,1,21.82,26.73Zm7.49-8.13A2.27,2.27,0,0,0,28,19l-5.84,4.29a2.24,2.24,0,0,0-.48,3.13.19.19,0,0,0,.31-.23,1.81,1.81,0,0,1-.33-1.37,1.84,1.84,0,0,1,.73-1.22l5.84-4.29a1.86,1.86,0,0,1,2.59.4.19.19,0,0,0,.27,0,.19.19,0,0,0,.05-.27A2.23,2.23,0,0,0,29.31,18.6Z"/><path class="cls-1" d="M18.33,9.78H4.25A.3.3,0,0,1,4,9.57a.27.27,0,0,1,.11-.32l2.3-1.69,0,0A6.54,6.54,0,0,1,9.5,6.75H13a5.92,5.92,0,0,1,3.26,1l2.23,1.5a.29.29,0,0,1,.11.33A.29.29,0,0,1,18.33,9.78ZM5.15,9.19H17.37l-1.43-1A5.26,5.26,0,0,0,13,7.34H9.5a5.9,5.9,0,0,0-2.79.71Z"/><path class="cls-1" d="M18.33,9.88H4.25a.38.38,0,0,1-.37-.28A.37.37,0,0,1,4,9.17l2.3-1.69,0,0A6.53,6.53,0,0,1,9.5,6.65H13a5.92,5.92,0,0,1,3.31,1l2.23,1.5a.38.38,0,0,1,.16.44A.4.4,0,0,1,18.33,9.88Zm-8.83-3a6.34,6.34,0,0,0-3,.78h0L4.13,9.33a.21.21,0,0,0-.07.21.21.21,0,0,0,.19.14H18.33a.2.2,0,0,0,.19-.14.21.21,0,0,0-.08-.22L16.21,7.83a5.72,5.72,0,0,0-3.2-1Zm8.19,2.44H4.84L6.65,8A6,6,0,0,1,9.5,7.24H13a5.39,5.39,0,0,1,3,.91ZM5.45,9.09H17l-1.15-.78A5.18,5.18,0,0,0,13,7.44H9.5a5.7,5.7,0,0,0-2.74.7Z"/><path class="cls-1" d="M13.21,9.78h-5a.28.28,0,0,1-.24-.13.29.29,0,0,1,0-.27L8.76,7A.3.3,0,0,1,9,6.77l.48,0h3.73a.3.3,0,0,1,.28.29V9.48A.3.3,0,0,1,13.21,9.78ZM8.59,9.19h4.33V7.34H9.25Z"/><path class="cls-1" d="M13.21,9.88h-5a.4.4,0,0,1-.32-.17.36.36,0,0,1-.05-.36l.86-2.42A.41.41,0,0,1,9,6.67l.49,0h3.73a.4.4,0,0,1,.38.39V9.48A.4.4,0,0,1,13.21,9.88Zm-3.71-3L9,6.87A.23.23,0,0,0,8.85,7L8,9.42a.17.17,0,0,0,0,.17.17.17,0,0,0,.16.09h5a.2.2,0,0,0,.2-.2V7.05a.19.19,0,0,0-.19-.19H9.5ZM13,9.29H8.45l.73-2H13Zm-4.29-.2h4.09V7.44H9.32Z"/><path class="cls-1" d="M13.21,14.84a.29.29,0,0,1-.29-.29V9.48a.3.3,0,0,1,.59,0v5.07A.29.29,0,0,1,13.21,14.84Z"/><path class="cls-1" d="M13.21,14.94a.4.4,0,0,1-.39-.39V9.48a.4.4,0,0,1,.79,0v5.07A.4.4,0,0,1,13.21,14.94Zm0-5.65a.2.2,0,0,0-.19.19v5.07a.2.2,0,0,0,.19.19.2.2,0,0,0,.2-.19V9.48A.2.2,0,0,0,13.21,9.29Z"/><path class="cls-1" d="M8.18,13.42a.29.29,0,0,1-.3-.3V9.48a.3.3,0,0,1,.59,0v3.64A.29.29,0,0,1,8.18,13.42Z"/><path class="cls-1" d="M8.18,13.52a.4.4,0,0,1-.4-.4V9.48a.4.4,0,0,1,.79,0v3.64A.4.4,0,0,1,8.18,13.52Zm0-4.23a.2.2,0,0,0-.2.19v3.64a.2.2,0,1,0,.39,0V9.48A.2.2,0,0,0,8.18,9.29Z"/><path class="cls-1" d="M23.37,14.84H22a.29.29,0,0,1-.29-.29,1.82,1.82,0,0,0-3.64,0,.29.29,0,0,1-.29.29h-9a.29.29,0,0,1-.29-.29,1.82,1.82,0,0,0-3.64,0,.27.27,0,0,1-.09.21.29.29,0,0,1-.21.09,1.37,1.37,0,0,1-1.32-1.37V10.26A1.07,1.07,0,0,1,4.25,9.19H21a3.72,3.72,0,0,1,3.71,3.71v.57A1.37,1.37,0,0,1,23.37,14.84Zm-1.1-.59h1.1a.78.78,0,0,0,.78-.78V12.9A3.12,3.12,0,0,0,21,9.78H4.25a.48.48,0,0,0-.49.48v3.21a.78.78,0,0,0,.48.72A2.41,2.41,0,0,1,9,14.25h8.48a2.41,2.41,0,0,1,4.78,0Z"/><path class="cls-1" d="M23.37,14.94H22a.39.39,0,0,1-.39-.39,1.72,1.72,0,0,0-3.44,0,.39.39,0,0,1-.39.39h-9a.39.39,0,0,1-.39-.39,1.72,1.72,0,0,0-3.44,0,.4.4,0,0,1-.12.29.39.39,0,0,1-.27.11h0a1.46,1.46,0,0,1-1.42-1.47V10.26A1.17,1.17,0,0,1,4.25,9.09H21a3.82,3.82,0,0,1,3.81,3.81v.57A1.47,1.47,0,0,1,23.37,14.94Zm-3.49-2.31a1.92,1.92,0,0,1,1.92,1.92.19.19,0,0,0,.19.19h1.38a1.27,1.27,0,0,0,1.27-1.27V12.9A3.61,3.61,0,0,0,21,9.29H4.25a1,1,0,0,0-1,1v3.21A1.26,1.26,0,0,0,4.5,14.74a.22.22,0,0,0,.14-.06.17.17,0,0,0,.06-.14,1.92,1.92,0,0,1,3.84,0,.19.19,0,0,0,.19.19h9a.19.19,0,0,0,.19-.19A1.92,1.92,0,0,1,19.88,12.63Zm3.49,1.72H22.18v-.08a2.31,2.31,0,0,0-4.58,0v.08H8.92v-.08a2.31,2.31,0,0,0-4.57-.07l0,.13-.12-.05a.88.88,0,0,1-.54-.81V10.26a.59.59,0,0,1,.59-.58H21a3.22,3.22,0,0,1,3.22,3.22v.57A.88.88,0,0,1,23.37,14.35Zm-1-.2h1a.68.68,0,0,0,.68-.68V12.9a3,3,0,0,0-3-3H4.25a.39.39,0,0,0-.39.38v3.21a.68.68,0,0,0,.31.57,2.5,2.5,0,0,1,4.92.11h8.32a2.5,2.5,0,0,1,4.94,0Z"/><path class="cls-1" d="M18.35,16.29a.27.27,0,0,1-.21-.09,2.38,2.38,0,0,1-.66-1.65,2.41,2.41,0,1,1,4.81,0A2.36,2.36,0,0,1,21.8,16a.28.28,0,0,1-.27.12,5.64,5.64,0,0,0-1.36,0l-1.79.19Zm1.53-3.56a1.81,1.81,0,0,0-1.41,3l1.63-.18a6.47,6.47,0,0,1,1.32,0,1.81,1.81,0,0,0-1.54-2.78Z"/><path class="cls-1" d="M18.35,16.39a.36.36,0,0,1-.28-.12,2.47,2.47,0,0,1-.69-1.72,2.51,2.51,0,1,1,5,0,2.47,2.47,0,0,1-.51,1.5.42.42,0,0,1-.36.16,6,6,0,0,0-1.34,0l-1.79.2Zm1.53-4.15a2.31,2.31,0,0,0-2.3,2.31,2.27,2.27,0,0,0,.63,1.58.2.2,0,0,0,.14.06h0L20.16,16a5.8,5.8,0,0,1,1.38,0,.21.21,0,0,0,.18-.08,2.3,2.3,0,0,0-1.84-3.69ZM18.43,15.8l0-.05a2,2,0,0,1-.43-1.2,1.92,1.92,0,0,1,3.84,0,1.89,1.89,0,0,1-.29,1l0,0h-.06a6.27,6.27,0,0,0-1.3,0Zm1.45-3a1.72,1.72,0,0,0-1.72,1.72,1.78,1.78,0,0,0,.35,1l1.58-.18a6.82,6.82,0,0,1,1.28,0,1.69,1.69,0,0,0,.23-.85A1.72,1.72,0,0,0,19.88,12.83Z"/><path class="cls-1" d="M6.62,17H6.56a.28.28,0,0,1-.13,0L5,16.27a.22.22,0,0,1-.09-.07A2.4,2.4,0,1,1,6.62,17Zm-1.36-1.2,1.36.61a1.82,1.82,0,1,0-1.36-.61Z"/><path class="cls-1" d="M6.62,17.05h0a.53.53,0,0,1-.18,0l-1.46-.65a.38.38,0,0,1-.13-.09,2.5,2.5,0,1,1,1.82.78Zm0-4.81a2.32,2.32,0,0,0-2.31,2.31A2.28,2.28,0,0,0,5,16.13s0,0,.06.05l1.46.65.09,0h.06a2.31,2.31,0,0,0,0-4.61Zm0,4.22h0l-1.39-.63a1.92,1.92,0,1,1,1.43.64Zm-1.28-.79,1.32.59a1.71,1.71,0,1,0-1.32-.59Z"/><path class="cls-1" d="M13.91,17H6.55a.3.3,0,0,1,0-.59h7.36a.3.3,0,1,1,0,.59Z"/><path class="cls-1" d="M13.91,17.05H6.55a.4.4,0,0,1,0-.79h7.36a.4.4,0,1,1,0,.79Zm-7.36-.59a.2.2,0,1,0,0,.39h7.36a.2.2,0,1,0,0-.39Z"/></svg>