<svg id="Calque_1" data-name="Calque 1" xmlns="http://www.w3.org/2000/svg" viewBox="0 0 32 32"><defs><style>.cls-1{fill:#fff;}.cls-2{fill:#c69433;}</style></defs><rect class="cls-1" width="32" height="32" rx="16"/><path class="cls-2" d="M22.66,18.21H20a.27.27,0,0,1,0-.54h2.71a.27.27,0,0,1,0,.54Z"/><path class="cls-2" d="M22.66,18.32H20a.38.38,0,0,1,0-.76h2.71a.38.38,0,0,1,0,.76ZM20,17.78a.16.16,0,0,0-.16.16.16.16,0,0,0,.16.15h2.71a.15.15,0,0,0,.15-.15.16.16,0,0,0-.15-.16Z"/><path class="cls-2" d="M15.8,22.19a.31.31,0,0,1-.18-.07L15.5,22l-4.3-3.16a.26.26,0,0,1-.11-.21.27.27,0,0,1,.09-.21l2.12-1.85a6.44,6.44,0,0,1,2-1.09,8.74,8.74,0,0,1,2.1-.2h3.4a2.42,2.42,0,0,1,2.15,2.22l4.2-1.91a1.47,1.47,0,0,1,1.81.5,1.43,1.43,0,0,1-.58,2.07l-4,2a7.8,7.8,0,0,1-3.39.72H20.9c-.54,0-1.09,0-1.64,0l-1.3.06a4.88,4.88,0,0,0-2,1.17A.27.27,0,0,1,15.8,22.19Zm-4-3.57,4,2.94a5.52,5.52,0,0,1,2.05-1.14h.06l1.34-.06c.56,0,1.13,0,1.67,0H21a7.14,7.14,0,0,0,3.15-.67l4-2a.91.91,0,0,0,.48-.57.87.87,0,0,0-.11-.72.94.94,0,0,0-1.15-.31l-4.58,2.08a.29.29,0,0,1-.27,0,.27.27,0,0,1-.11-.25,1.89,1.89,0,0,0-1.65-2.08H17.38a8.56,8.56,0,0,0-1.91.16,6.1,6.1,0,0,0-1.82,1Z"/><path class="cls-2" d="M15.8,22.3a.44.44,0,0,1-.26-.1l-.1-.09L11.13,19a.38.38,0,0,1-.15-.29.34.34,0,0,1,.13-.3l2.12-1.85a6.54,6.54,0,0,1,2-1.12,9.27,9.27,0,0,1,2.15-.2h3.41A2.53,2.53,0,0,1,23,17.35l4.07-1.84a1.58,1.58,0,0,1,1.95.54,1.55,1.55,0,0,1,.19,1.26,1.51,1.51,0,0,1-.83,1l-4,2A7.86,7.86,0,0,1,21,21H20.9c-.54,0-1.09,0-1.63,0L18,21.06a4.66,4.66,0,0,0-1.89,1.13A.39.39,0,0,1,15.8,22.3Zm5-6.89H17.38a8.17,8.17,0,0,0-2.06.19,6.5,6.5,0,0,0-1.94,1.07l-2.12,1.85a.16.16,0,0,0,0,.25l4.31,3.15.13.11a.14.14,0,0,0,.21,0,5,5,0,0,1,2-1.19l1.33-.07c.54,0,1.1,0,1.64,0H21a7.56,7.56,0,0,0,3.35-.71l4-2a1.32,1.32,0,0,0,.54-1.91,1.35,1.35,0,0,0-1.67-.45l-4.35,2v-.16A2.31,2.31,0,0,0,20.77,15.41Zm-5,6.3-4.2-3.08,2-1.72a6.12,6.12,0,0,1,1.85-1,8.85,8.85,0,0,1,1.95-.17h3.36a2,2,0,0,1,1.76,2.2.15.15,0,0,0,.07.14.14.14,0,0,0,.15,0L27.3,16a1,1,0,0,1,1.29.34,1,1,0,0,1-.42,1.46l-4,2a7.23,7.23,0,0,1-3.2.68h-.05c-.51,0-1.1,0-1.67,0l-1.33.06h0a5.14,5.14,0,0,0-2,1.12ZM12,18.62l3.83,2.8a5.59,5.59,0,0,1,2-1.11h.09l1.34-.06c.58,0,1.17,0,1.68,0H21a7,7,0,0,0,3.1-.66l4-2a.81.81,0,0,0,.42-.5.75.75,0,0,0-.1-.63.79.79,0,0,0-1-.26l-4.59,2.07a.37.37,0,0,1-.53-.38A1.77,1.77,0,0,0,20.73,16H17.38a9.18,9.18,0,0,0-1.87.15,5.76,5.76,0,0,0-1.78,1Z"/><path class="cls-2" d="M4.23,25a.3.3,0,0,1-.16,0A.27.27,0,0,1,4,24.56l4.36-6a1.94,1.94,0,0,1,1.27-.77,1.91,1.91,0,0,1,1.43.35l4.75,3.48a2,2,0,0,1,.76,1.27,1.88,1.88,0,0,1-.35,1.43l-.44.6a.26.26,0,0,1-.21.11h-7a.27.27,0,1,1,0-.54h6.89L15.8,24a1.36,1.36,0,0,0,.25-1A1.39,1.39,0,0,0,15.5,22l-4.74-3.48a1.38,1.38,0,0,0-1-.25,1.35,1.35,0,0,0-.91.55L4.44,24.88A.26.26,0,0,1,4.23,25Z"/><path class="cls-2" d="M15.58,25.1h-7a.38.38,0,0,1,0-.76h6.83l.33-.44a1.31,1.31,0,0,0,.23-1,1.25,1.25,0,0,0-.51-.83l-4.74-3.49a1.29,1.29,0,0,0-.95-.23,1.25,1.25,0,0,0-.84.51l-4.37,6A.38.38,0,0,1,4,25a.41.41,0,0,1-.15-.25.35.35,0,0,1,.07-.28l4.36-6.05A2.05,2.05,0,0,1,11.14,18l4.74,3.48a2,2,0,0,1,.81,1.34,2,2,0,0,1-.37,1.52l-.44.59A.37.37,0,0,1,15.58,25.1Zm-7-.53a.15.15,0,0,0-.16.15.16.16,0,0,0,.16.16h7a.15.15,0,0,0,.12-.07l.44-.6a1.76,1.76,0,0,0,.33-1.35,1.8,1.8,0,0,0-.72-1.19L11,18.19a1.8,1.8,0,0,0-1.35-.33,1.78,1.78,0,0,0-1.19.72L4.1,24.63a.2.2,0,0,0,0,.11.16.16,0,0,0,.07.11.16.16,0,0,0,.21,0l4.37-6a1.51,1.51,0,0,1,1-.59,1.48,1.48,0,0,1,1.12.27l4.75,3.48a1.56,1.56,0,0,1,.6,1A1.49,1.49,0,0,1,15.89,24l-.39.54Z"/><path class="cls-2" d="M15.58,25a.25.25,0,0,1-.15,0l-5.3-3.59a.27.27,0,1,1,.3-.44l5.3,3.59a.27.27,0,0,1,.07.37A.26.26,0,0,1,15.58,25Z"/><path class="cls-2" d="M15.58,25.1a.36.36,0,0,1-.22-.07l-5.29-3.58a.38.38,0,0,1-.1-.53.37.37,0,0,1,.52-.1l5.3,3.59a.38.38,0,0,1-.21.69ZM10.28,21a.16.16,0,0,0-.13.06.17.17,0,0,0,0,.22l5.3,3.59a.15.15,0,0,0,.21,0,.16.16,0,0,0,0-.22L10.37,21Z"/><path class="cls-2" d="M9.59,21.76a1.11,1.11,0,1,1,1.11-1.11A1.11,1.11,0,0,1,9.59,21.76Zm0-1.69a.58.58,0,0,0-.57.58.58.58,0,0,0,1.15,0A.58.58,0,0,0,9.59,20.07Z"/><path class="cls-2" d="M9.59,21.87a1.22,1.22,0,1,1,0-2.44,1.22,1.22,0,1,1,0,2.44Zm0-2.22a1,1,0,1,0,1,1A1,1,0,0,0,9.59,19.65Zm0,1.69a.69.69,0,0,1,0-1.38.69.69,0,0,1,0,1.38Zm0-1.15a.46.46,0,0,0-.46.46.47.47,0,0,0,.46.46.46.46,0,0,0,.46-.46A.45.45,0,0,0,9.59,20.19Z"/><path class="cls-2" d="M8.9,20.44a.28.28,0,0,1-.15,0l-.94-.62a.27.27,0,1,1,.29-.45L9,20a.27.27,0,0,1-.14.49Z"/><path class="cls-2" d="M8.9,20.55a.37.37,0,0,1-.21-.06l-.94-.62a.35.35,0,0,1-.17-.24.35.35,0,0,1,.06-.28.37.37,0,0,1,.52-.11l.95.62a.37.37,0,0,1,.16.24.35.35,0,0,1-.06.28A.36.36,0,0,1,8.9,20.55ZM8,19.4a.15.15,0,0,0-.13.07.13.13,0,0,0,0,.12.16.16,0,0,0,.07.09l.94.62a.16.16,0,0,0,.22,0A.17.17,0,0,0,9,20L8,19.43Z"/><path class="cls-2" d="M24.3,15.67a.23.23,0,0,1-.14,0l-3-1.86a2.17,2.17,0,0,1-3.07-2.93,2.19,2.19,0,0,1,1.34-1,2.22,2.22,0,0,1,1.65.26,2.18,2.18,0,0,1,1,2.2.32.32,0,0,1,.19,0l.28.18a.26.26,0,0,1,.13.23.29.29,0,0,1,.27,0l.49.3a.24.24,0,0,1,.12.21.23.23,0,0,1,.24,0l.47.28a.25.25,0,0,1,.12.19l.2,1.6a.26.26,0,0,1-.12.26A.23.23,0,0,1,24.3,15.67Zm-3.19-2.49a.43.43,0,0,1,.14,0L24,14.89,23.85,14l-.24-.15-.22.09a.29.29,0,0,1-.24,0,.28.28,0,0,1-.13-.21s0-.11,0-.23l-.21-.12h0a.27.27,0,0,1-.31,0l-.32-.19a.26.26,0,0,1-.13-.25.27.27,0,0,1-.26,0l-.2-.12a.27.27,0,0,1-.11-.31,1.64,1.64,0,1,0-3.15-.12,1.56,1.56,0,0,0,.74,1,1.63,1.63,0,0,0,1.89-.13A.27.27,0,0,1,21.11,13.18Z"/><path class="cls-2" d="M24.3,15.79a.36.36,0,0,1-.2-.06l-3-1.82a2.3,2.3,0,0,1-2.41,0,2.29,2.29,0,1,1,3.46-1.72.22.22,0,0,1,.12,0l.29.17a.42.42,0,0,1,.16.19.42.42,0,0,1,.24.05l.48.3a.35.35,0,0,1,.15.17.4.4,0,0,1,.22.06l.47.28a.38.38,0,0,1,.17.28l.21,1.6a.39.39,0,0,1-.17.36A.44.44,0,0,1,24.3,15.79Zm-3.18-2.15,3.1,1.9a.15.15,0,0,0,.16,0,.17.17,0,0,0,.07-.15l-.2-1.6a.19.19,0,0,0-.07-.12l-.46-.28a.2.2,0,0,0-.15,0l-.14,0v-.14a.14.14,0,0,0-.07-.12l-.49-.3a.18.18,0,0,0-.16,0l-.17.09v-.19a.17.17,0,0,0-.08-.14l-.28-.17a.15.15,0,0,0-.11,0l-.16,0,0-.16A2.07,2.07,0,0,0,19.42,10a2.06,2.06,0,0,0-.59,3.76,2.07,2.07,0,0,0,2.23-.05Zm3,1.46-2.91-1.78a.17.17,0,0,0-.18,0,1.75,1.75,0,0,1-2.81-.94,1.77,1.77,0,0,1,.21-1.33,1.68,1.68,0,0,1,1.08-.78,1.74,1.74,0,0,1,2.08,2.24.14.14,0,0,0,.06.18l.19.12a.18.18,0,0,0,.16,0l.18-.1v.21a.16.16,0,0,0,.07.15l.31.19a.17.17,0,0,0,.19,0l.06-.05.08,0,.26.16,0,.26a.16.16,0,0,0,.07.14.14.14,0,0,0,.14,0l.27-.1.33.2Zm-3-2a.33.33,0,0,1,.19.06l2.52,1.54L23.74,14,23.6,14l-.17.06a.35.35,0,0,1-.34,0,.38.38,0,0,1-.18-.28v-.18l-.09-.06a.39.39,0,0,1-.39,0l-.32-.19a.37.37,0,0,1-.16-.21.37.37,0,0,1-.23-.05l-.2-.12a.38.38,0,0,1-.16-.44,1.52,1.52,0,1,0-2.24.83,1.54,1.54,0,0,0,1.76-.12A.34.34,0,0,1,21.11,13.07Z"/><path class="cls-2" d="M19.62,11.39a.37.37,0,0,0-.32.17.38.38,0,0,0,.12.51.37.37,0,0,0,.51-.12.39.39,0,0,0,.05-.28.4.4,0,0,0-.17-.23A.34.34,0,0,0,19.62,11.39Z"/><path class="cls-2" d="M19.62,12.24a.52.52,0,0,1-.25-.07.48.48,0,1,1,.5-.82.45.45,0,0,1,.21.29A.52.52,0,0,1,20,12,.5.5,0,0,1,19.62,12.24Zm0-.74a.27.27,0,0,0-.22.12.25.25,0,0,0,.08.35.26.26,0,0,0,.36-.08.32.32,0,0,0,0-.19.25.25,0,0,0-.12-.16A.22.22,0,0,0,19.62,11.5Z"/><path class="cls-2" d="M22.67,17.93a.28.28,0,0,1-.16-.05.26.26,0,0,1-.11-.21,1.89,1.89,0,0,0-1.66-1.84H17.06a.26.26,0,0,1-.23-.12,5.32,5.32,0,0,1-.9-3,5.37,5.37,0,1,1,6.81,5.17ZM20.75,15.3h0a2.42,2.42,0,0,1,2.12,2,4.84,4.84,0,1,0-5.71-2h3.56Z"/><path class="cls-2" d="M22.67,18a.37.37,0,0,1-.23-.07.36.36,0,0,1-.15-.3A1.77,1.77,0,0,0,20.73,16H17.06a.38.38,0,0,1-.33-.17,5.48,5.48,0,1,1,10.05-3,5.5,5.5,0,0,1-4,5.28Zm-1.93-2.32a2,2,0,0,1,1.77,2,.2.2,0,0,0,.06.12.17.17,0,0,0,.14,0,5.26,5.26,0,1,0-5.79-2.15.19.19,0,0,0,.13.07h3.69Zm2.07,1.74,0-.13a2.31,2.31,0,0,0-2-1.92l0-.11v.11H17.13l0-.06a5,5,0,1,1,5.84,2.05Zm-2.06-2.27h0a2.54,2.54,0,0,1,2.2,2,4.72,4.72,0,1,0-5.73-2h3.49Z"/><path class="cls-2" d="M27.62,13a.27.27,0,0,1-.27-.27,4.35,4.35,0,0,0,0-.51.27.27,0,0,1,.25-.29.25.25,0,0,1,.28.24,5.25,5.25,0,0,1,0,.56A.27.27,0,0,1,27.62,13Z"/><path class="cls-2" d="M27.62,13.13a.38.38,0,0,1-.38-.38c0-.17,0-.34,0-.5a.35.35,0,0,1,.09-.28.33.33,0,0,1,.26-.13.39.39,0,0,1,.27.08.38.38,0,0,1,.14.26c0,.19,0,.38,0,.57A.38.38,0,0,1,27.62,13.13Zm0-1.07h0a.14.14,0,0,0-.11,0,.19.19,0,0,0,0,.12,4.53,4.53,0,0,1,0,.52.15.15,0,0,0,.15.15.16.16,0,0,0,.16-.15,5.07,5.07,0,0,0,0-.55.16.16,0,0,0-.05-.11A.17.17,0,0,0,27.6,12.06Z"/><path class="cls-2" d="M27,10.35a.26.26,0,0,1-.24-.15,6.46,6.46,0,0,0-.53-.92.27.27,0,0,1,.07-.37A.26.26,0,0,1,26.7,9a7.65,7.65,0,0,1,.58,1,.28.28,0,0,1-.13.36ZM24.92,7.84a.3.3,0,0,1-.15,0,6.46,6.46,0,0,0-.92-.53.28.28,0,0,1-.13-.36.28.28,0,0,1,.36-.13,7.65,7.65,0,0,1,1,.58.26.26,0,0,1,.06.37A.25.25,0,0,1,24.92,7.84Z"/><path class="cls-2" d="M27,10.46a.37.37,0,0,1-.34-.22,6.09,6.09,0,0,0-.52-.89.38.38,0,0,1-.06-.29.33.33,0,0,1,.15-.24.39.39,0,0,1,.29-.07.4.4,0,0,1,.24.16,6.83,6.83,0,0,1,.59,1,.42.42,0,0,1,0,.29.36.36,0,0,1-.2.22A.41.41,0,0,1,27,10.46ZM26.48,9l-.09,0a.13.13,0,0,0-.06.1.17.17,0,0,0,0,.12,5.37,5.37,0,0,1,.54.93.16.16,0,0,0,.29,0,.17.17,0,0,0,0-.12,7.3,7.3,0,0,0-.56-1,.17.17,0,0,0-.1-.07ZM24.92,8a.31.31,0,0,1-.21-.07,6.77,6.77,0,0,0-.9-.52.38.38,0,0,1-.19-.5.4.4,0,0,1,.51-.19,7.83,7.83,0,0,1,1,.59.38.38,0,0,1,.09.53A.37.37,0,0,1,24.92,8ZM24,6.86a.16.16,0,0,0-.14.09.15.15,0,0,0,.07.21,5.77,5.77,0,0,1,.93.54.17.17,0,0,0,.22,0,.16.16,0,0,0,0-.22,7.3,7.3,0,0,0-1-.56Z"/><path class="cls-2" d="M21.84,6.72h0a4.35,4.35,0,0,0-.51,0,.27.27,0,0,1,0-.54,5.25,5.25,0,0,1,.56,0,.26.26,0,0,1,.24.28A.27.27,0,0,1,21.84,6.72Z"/><path class="cls-2" d="M21.84,6.83h0l-.5,0a.38.38,0,0,1,0-.76l.57,0a.4.4,0,0,1,.26.14.36.36,0,0,1,.08.27A.37.37,0,0,1,21.84,6.83Zm-.54-.56a.16.16,0,0,0-.15.16.15.15,0,0,0,.15.15,4.53,4.53,0,0,1,.52,0l0,.11V6.61A.16.16,0,0,0,22,6.46a.15.15,0,0,0,0-.11.12.12,0,0,0-.1,0A5.07,5.07,0,0,0,21.3,6.27Z"/><path class="cls-2" d="M22.66,18.21a.3.3,0,0,1-.16-.05.27.27,0,0,1-.11-.25,1.89,1.89,0,0,0-1.65-2.08H17.38a14.49,14.49,0,0,0-1.64.09.26.26,0,0,1-.28-.14A6.58,6.58,0,0,1,21.3,6.16a.27.27,0,1,1,0,.54,6.05,6.05,0,0,0-6.05,6.05,6,6,0,0,0,.6,2.63,14.39,14.39,0,0,1,1.53-.08h3.4a2.42,2.42,0,0,1,2.15,2.22l3.52-1.6a6,6,0,0,0,.9-3.17.27.27,0,0,1,.54,0,6.6,6.6,0,0,1-1,3.53.36.36,0,0,1-.11.1l-4,1.8Z"/><path class="cls-2" d="M22.66,18.32a.48.48,0,0,1-.23-.07.37.37,0,0,1-.15-.35A1.77,1.77,0,0,0,20.73,16H17.38a12.72,12.72,0,0,0-1.62.1.41.41,0,0,1-.4-.2,6.7,6.7,0,0,1,5.94-9.8.38.38,0,1,1,0,.76,6,6,0,0,0-5.94,5.94,5.86,5.86,0,0,0,.56,2.51c.63-.07,1.42-.07,1.46-.07h3.41A2.53,2.53,0,0,1,23,17.35l3.36-1.52a5.94,5.94,0,0,0,.86-3.08.38.38,0,0,1,.76,0,6.73,6.73,0,0,1-1,3.59.39.39,0,0,1-.17.14l-4,1.8A.28.28,0,0,1,22.66,18.32Zm-1.92-2.6a2,2,0,0,1,1.76,2.2.15.15,0,0,0,.07.14.14.14,0,0,0,.15,0l4-1.81a.18.18,0,0,0,.07-.05,6.47,6.47,0,0,0,1-3.47.16.16,0,0,0-.16-.16.15.15,0,0,0-.15.16A6.15,6.15,0,0,1,26.55,16l0,0-3.7,1.68v-.16a2.31,2.31,0,0,0-2.05-2.12H17.38a14.46,14.46,0,0,0-1.52.08h-.08l0-.07a6,6,0,0,1-.61-2.68A6.17,6.17,0,0,1,21.3,6.58a.15.15,0,0,0,.16-.15.16.16,0,0,0-.16-.16,6.48,6.48,0,0,0-5.74,9.47.14.14,0,0,0,.16.08,13.13,13.13,0,0,1,1.66-.1Z"/></svg>