<svg id="Calque_1" data-name="Calque 1" xmlns="http://www.w3.org/2000/svg" viewBox="0 0 32 32"><defs><style>.cls-1{fill:#c69433;}</style></defs><path class="cls-1" d="M12.89,17.37H6.49a1.37,1.37,0,0,1,0-2.74H16a.37.37,0,1,1,0,.74H6.49a.63.63,0,0,0,0,1.26h6.4a.37.37,0,0,1,0,.74Z"/><path class="cls-1" d="M12.32,15.37H10.44a.37.37,0,0,1-.37-.37V8.25a.37.37,0,0,1,.37-.37h1.88a.38.38,0,0,1,.37.37V15A.38.38,0,0,1,12.32,15.37Zm-1.52-.74H12v-6H10.8Z"/><path class="cls-1" d="M16,15.37H14.09a.38.38,0,0,1-.37-.37V8.25a.38.38,0,0,1,.37-.37H16a.37.37,0,0,1,.37.37V15A.37.37,0,0,1,16,15.37Zm-1.52-.74h1.16v-6H14.45Z"/><path class="cls-1" d="M8.67,15.37H6.79A.37.37,0,0,1,6.42,15V8.25a.37.37,0,0,1,.37-.37H8.67A.38.38,0,0,1,9,8.25V15A.38.38,0,0,1,8.67,15.37Zm-1.52-.74H8.3v-6H7.15Z"/><path class="cls-1" d="M16.93,8.62H5.83a1,1,0,0,1-.76-.37,1,1,0,0,1-.18-.83,1,1,0,0,1,.68-.71L11,5a1.13,1.13,0,0,1,.68,0l5.47,1.67a1,1,0,0,1,.68.71,1,1,0,0,1-.18.83A1,1,0,0,1,16.93,8.62Zm-5.55-2.9a.3.3,0,0,0-.13,0L5.78,7.41a.28.28,0,0,0-.18.17.23.23,0,0,0,.05.21.21.21,0,0,0,.18.09h11.1a.21.21,0,0,0,.18-.09.23.23,0,0,0,.05-.21A.28.28,0,0,0,17,7.41L11.51,5.74A.3.3,0,0,0,11.38,5.72Z"/><path class="cls-1" d="M25.51,27H15.73a1.37,1.37,0,0,1,0-2.74h9.78a1.37,1.37,0,0,1,0,2.74Zm-9.78-2a.63.63,0,1,0,0,1.26h9.78a.63.63,0,1,0,0-1.26Z"/><path class="cls-1" d="M21.56,25H19.68a.38.38,0,0,1-.37-.37V17.9a.38.38,0,0,1,.37-.37h1.88a.37.37,0,0,1,.37.37v6.75A.37.37,0,0,1,21.56,25ZM20,24.28H21.2v-6H20Z"/><path class="cls-1" d="M25.21,25H23.33a.38.38,0,0,1-.37-.37V17.9a.38.38,0,0,1,.37-.37h1.88a.37.37,0,0,1,.37.37v6.75A.37.37,0,0,1,25.21,25Zm-1.51-.74h1.15v-6H23.7Z"/><path class="cls-1" d="M17.91,25H16a.37.37,0,0,1-.37-.37V17.9a.37.37,0,0,1,.37-.37h1.88a.38.38,0,0,1,.37.37v6.75A.38.38,0,0,1,17.91,25Zm-1.52-.74h1.16v-6H16.39Z"/><path class="cls-1" d="M26.17,18.27H15.07a1,1,0,0,1-.76-.37,1,1,0,0,1-.18-.83,1,1,0,0,1,.68-.71l5.47-1.68a1.31,1.31,0,0,1,.68,0l5.47,1.68a1,1,0,0,1,.68.71,1,1,0,0,1-.18.83A1,1,0,0,1,26.17,18.27Zm-5.55-2.9a.3.3,0,0,0-.13,0L15,17.06a.28.28,0,0,0-.18.17.23.23,0,0,0,.05.21.21.21,0,0,0,.18.09h11.1a.21.21,0,0,0,.18-.09.23.23,0,0,0,0-.21.28.28,0,0,0-.18-.17l-5.47-1.67A.3.3,0,0,0,20.62,15.37Z"/><path class="cls-1" d="M20.62,13.77a.37.37,0,0,1-.37-.36V8A.37.37,0,0,1,21,8v5.46A.37.37,0,0,1,20.62,13.77Z"/><path class="cls-1" d="M20.62,13.77a.37.37,0,0,1-.26-.1L19,12.28a.37.37,0,0,1,.52-.52l1.12,1.13,1.12-1.13a.37.37,0,0,1,.52,0,.36.36,0,0,1,0,.52l-1.38,1.39A.37.37,0,0,1,20.62,13.77Z"/><path class="cls-1" d="M11.38,24.72a.38.38,0,0,1-.37-.37V18.9a.37.37,0,0,1,.74,0v5.45A.38.38,0,0,1,11.38,24.72Z"/><path class="cls-1" d="M12.76,20.65a.38.38,0,0,1-.26-.11l-1.12-1.12-1.12,1.12a.37.37,0,0,1-.52,0,.36.36,0,0,1,0-.52l1.38-1.38a.37.37,0,0,1,.52,0L13,20a.37.37,0,0,1,0,.52A.36.36,0,0,1,12.76,20.65Z"/><path class="cls-1" d="M23.78,27H8a.37.37,0,1,1,0-.74h15.8a.37.37,0,1,1,0,.74Z"/></svg>