<?xml version="1.0" encoding="UTF-8"?>
<svg xmlns="http://www.w3.org/2000/svg" xmlns:xlink="http://www.w3.org/1999/xlink" width="512px" height="512px" viewBox="0 0 512 512" version="1.1">
<g id="surface1">
<path style=" stroke:none;fill-rule:nonzero;fill:rgb(83.529412%,67.45098%,26.666667%);fill-opacity:1;" d="M 256 0 C 396.800781 0 512 115.199219 512 256 C 512 396.800781 396.800781 512 256 512 C 115.199219 512 0 396.800781 0 256 C 0 115.199219 115.199219 0 256 0 Z M 256 0 "/>
<path style=" stroke:none;fill-rule:nonzero;fill:rgb(100%,100%,100%);fill-opacity:1;" d="M 275.199219 398.398438 C 273.601562 398.398438 273.601562 398.398438 272 398.398438 L 241.601562 382.398438 C 224 372.800781 212.800781 355.199219 212.800781 334.398438 L 212.800781 273.601562 C 212.800781 270.398438 216 267.199219 219.199219 267.199219 C 238.398438 265.601562 256 260.800781 272 251.199219 C 273.601562 249.601562 276.800781 249.601562 280 251.199219 C 296 260.800781 315.199219 265.601562 332.800781 267.199219 C 336 267.199219 339.199219 270.398438 339.199219 273.601562 L 339.199219 334.398438 C 339.199219 355.199219 328 372.800781 310.398438 382.398438 L 278.398438 398.398438 C 276.800781 398.398438 276.800781 398.398438 275.199219 398.398438 Z M 225.601562 278.398438 L 225.601562 334.398438 C 225.601562 348.800781 233.601562 363.199219 246.398438 371.199219 L 275.199219 385.601562 L 304 371.199219 C 316.800781 364.800781 326.398438 350.398438 324.800781 334.398438 L 324.800781 278.398438 C 307.199219 276.800781 291.199219 272 275.199219 262.398438 C 259.199219 272 243.199219 276.800781 225.601562 278.398438 Z M 225.601562 278.398438 "/>
<path style=" stroke:none;fill-rule:nonzero;fill:rgb(100%,100%,100%);fill-opacity:1;" d="M 275.199219 368 C 273.601562 368 273.601562 368 272 368 L 254.398438 360 C 243.199219 355.199219 236.800781 342.398438 236.800781 331.199219 L 236.800781 296 C 236.800781 292.800781 238.398438 289.601562 243.199219 289.601562 C 254.398438 289.601562 264 286.398438 273.601562 281.601562 C 275.199219 280 278.398438 280 281.601562 281.601562 C 289.601562 286.398438 300.800781 289.601562 310.398438 289.601562 C 313.601562 289.601562 316.800781 292.800781 316.800781 296 L 316.800781 331.199219 C 316.800781 344 310.398438 355.199219 299.199219 360 L 278.398438 368 C 276.800781 368 276.800781 368 275.199219 368 Z M 249.601562 300.800781 L 249.601562 329.601562 C 249.601562 337.601562 254.398438 344 260.800781 347.199219 L 275.199219 355.199219 L 289.601562 347.199219 C 296 344 300.800781 336 300.800781 329.601562 L 300.800781 300.800781 C 292.800781 299.199219 283.199219 297.601562 275.199219 292.800781 C 267.199219 297.601562 259.199219 299.199219 249.601562 300.800781 Z M 249.601562 300.800781 "/>
<path style=" stroke:none;fill-rule:nonzero;fill:rgb(100%,100%,100%);fill-opacity:1;" d="M 265.601562 446.398438 L 174.398438 446.398438 C 171.199219 446.398438 168 443.199219 168 440 L 168 304 L 140.800781 304 C 137.601562 304 134.398438 300.800781 134.398438 297.601562 L 134.398438 196.800781 C 134.398438 169.601562 156.800781 147.199219 184 147.199219 L 256 147.199219 C 283.199219 147.199219 305.601562 169.601562 305.601562 196.800781 L 305.601562 265.601562 C 305.601562 268.800781 302.398438 272 299.199219 272 C 296 272 292.800781 268.800781 292.800781 265.601562 L 292.800781 196.800781 C 292.800781 176 276.800781 160 256 160 L 184 160 C 163.199219 160 147.199219 176 147.199219 196.800781 L 147.199219 291.199219 L 174.398438 291.199219 C 177.601562 291.199219 180.800781 294.398438 180.800781 297.601562 L 180.800781 432 L 259.199219 432 L 259.199219 387.199219 C 259.199219 384 262.398438 380.800781 265.601562 380.800781 C 268.800781 380.800781 272 384 272 387.199219 L 272 440 C 272 443.199219 268.800781 446.398438 265.601562 446.398438 Z M 265.601562 446.398438 "/>
<path style=" stroke:none;fill-rule:nonzero;fill:rgb(100%,100%,100%);fill-opacity:1;" d="M 220.800781 446.398438 C 217.601562 446.398438 214.398438 443.199219 214.398438 440 L 214.398438 348.800781 C 214.398438 345.601562 217.601562 342.398438 220.800781 342.398438 C 224 342.398438 227.199219 345.601562 227.199219 348.800781 L 227.199219 440 C 227.199219 443.199219 224 446.398438 220.800781 446.398438 Z M 220.800781 446.398438 "/>
<path style=" stroke:none;fill-rule:nonzero;fill:rgb(100%,100%,100%);fill-opacity:1;" d="M 174.398438 304 C 171.199219 304 168 300.800781 168 297.601562 L 168 212.800781 C 168 209.601562 171.199219 206.398438 174.398438 206.398438 C 177.601562 206.398438 180.800781 209.601562 180.800781 212.800781 L 180.800781 297.601562 C 180.800781 300.800781 177.601562 304 174.398438 304 Z M 174.398438 304 "/>
<path style=" stroke:none;fill-rule:nonzero;fill:rgb(100%,100%,100%);fill-opacity:1;" d="M 265.601562 267.199219 C 262.398438 267.199219 259.199219 264 259.199219 260.800781 L 259.199219 212.800781 C 259.199219 209.601562 262.398438 206.398438 265.601562 206.398438 C 268.800781 206.398438 272 209.601562 272 212.800781 L 272 260.800781 C 272 264 268.800781 267.199219 265.601562 267.199219 Z M 265.601562 267.199219 "/>
<path style=" stroke:none;fill-rule:nonzero;fill:rgb(100%,100%,100%);fill-opacity:1;" d="M 220.800781 134.398438 C 198.398438 134.398438 180.800781 116.800781 180.800781 94.398438 C 180.800781 72 198.398438 54.398438 220.800781 54.398438 C 243.199219 54.398438 260.800781 72 260.800781 94.398438 C 260.800781 116.800781 243.199219 134.398438 220.800781 134.398438 Z M 220.800781 67.199219 C 204.800781 67.199219 193.601562 80 193.601562 94.398438 C 193.601562 110.398438 206.398438 121.601562 220.800781 121.601562 C 236.800781 121.601562 248 108.800781 248 94.398438 C 248 78.398438 235.199219 67.199219 220.800781 67.199219 Z M 220.800781 67.199219 "/>
<path style=" stroke:none;fill-rule:nonzero;fill:rgb(100%,100%,100%);fill-opacity:1;" d="M 379.199219 446.398438 L 140.800781 446.398438 C 137.601562 446.398438 134.398438 443.199219 134.398438 440 C 134.398438 436.800781 137.601562 433.601562 140.800781 433.601562 L 377.601562 433.601562 C 380.800781 433.601562 384 436.800781 384 440 C 385.601562 443.199219 382.398438 446.398438 379.199219 446.398438 Z M 379.199219 446.398438 "/>
</g>
</svg>
