<svg id="Calque_1" data-name="Calque 1" xmlns="http://www.w3.org/2000/svg" viewBox="0 0 32 32"><defs><style>.cls-1{fill:#c69433;}.cls-2{fill:#fff;}</style></defs><rect class="cls-1" width="32" height="32" rx="16"/><path class="cls-2" d="M17.2,24.9a.35.35,0,0,1-.18,0l-1.95-1a3.32,3.32,0,0,1-1.79-3V17.06a.39.39,0,0,1,.36-.4,7.41,7.41,0,0,0,3.32-1,.41.41,0,0,1,.47,0,7.4,7.4,0,0,0,3.33,1,.39.39,0,0,1,.35.4V20.9a3.33,3.33,0,0,1-1.78,3l-1.95,1A.41.41,0,0,1,17.2,24.9Zm-3.12-7.49V20.9a2.54,2.54,0,0,0,1.34,2.26l1.78.89L19,23.16a2.52,2.52,0,0,0,1.34-2.26V17.41a8.7,8.7,0,0,1-3.11-.95A8.86,8.86,0,0,1,14.08,17.41Z"/><path class="cls-2" d="M17.2,23A.35.35,0,0,1,17,23l-1.1-.55a2,2,0,0,1-1.1-1.83V18.45a.39.39,0,0,1,.35-.4A3.85,3.85,0,0,0,17,17.52a.41.41,0,0,1,.47,0,4.12,4.12,0,0,0,1.79.53.4.4,0,0,1,.36.4v2.16a2.06,2.06,0,0,1-1.11,1.83L17.38,23A.41.41,0,0,1,17.2,23ZM15.61,18.8v1.81a1.24,1.24,0,0,0,.67,1.12l.92.46.92-.46a1.25,1.25,0,0,0,.66-1.12V18.8a5.23,5.23,0,0,1-1.58-.49A5.42,5.42,0,0,1,15.61,18.8Z"/><path class="cls-2" d="M16.62,27.87H10.9a.4.4,0,0,1-.4-.4V19H8.82a.4.4,0,0,1-.4-.4V12.31A3.08,3.08,0,0,1,11.5,9.23H16a3.08,3.08,0,0,1,3.07,3.08v4.34a.4.4,0,0,1-.4.4.39.39,0,0,1-.39-.4V12.31A2.29,2.29,0,0,0,16,10H11.5a2.28,2.28,0,0,0-2.28,2.28v5.87H10.9a.4.4,0,0,1,.4.4v8.5h4.92V24.21a.4.4,0,1,1,.8,0v3.26A.4.4,0,0,1,16.62,27.87Z"/><path class="cls-2" d="M13.76,27.87a.4.4,0,0,1-.4-.4V21.79a.4.4,0,1,1,.8,0v5.68A.4.4,0,0,1,13.76,27.87Z"/><path class="cls-2" d="M10.9,19a.4.4,0,0,1-.4-.4V13.31a.4.4,0,0,1,.8,0v5.27A.4.4,0,0,1,10.9,19Z"/><path class="cls-2" d="M16.62,16.7a.4.4,0,0,1-.4-.4v-3a.4.4,0,1,1,.8,0v3A.4.4,0,0,1,16.62,16.7Z"/><path class="cls-2" d="M13.76,8.41a2.52,2.52,0,1,1,2.52-2.52A2.52,2.52,0,0,1,13.76,8.41Zm0-4.24a1.73,1.73,0,1,0,1.72,1.72A1.72,1.72,0,0,0,13.76,4.17Z"/><path class="cls-2" d="M23.66,27.87H8.82a.4.4,0,0,1-.4-.4.39.39,0,0,1,.4-.39H23.66a.39.39,0,0,1,.4.39A.4.4,0,0,1,23.66,27.87Z"/></svg>